<?xml version="1.0" encoding="UTF-8"?>
<!-- Generator: Adobe Illustrator 25.2.1, SVG Export Plug-In . SVG Version: 6.00 Build 0)  -->
<svg xmlns="http://www.w3.org/2000/svg" xmlns:xlink="http://www.w3.org/1999/xlink" version="1.1" id="Capa_1" x="0px" y="0px" viewBox="0 0 512 512" style="enable-background:new 0 0 512 512;" xml:space="preserve" width="512" height="512">
<g>
	<g>
		<g>
			<g>
				<path style="fill-rule:evenodd;clip-rule:evenodd;fill:#E8BD54;" d="M217.156,158.968c2.754-5.077,7.424-12.748,12.148-20.067      c9.743-15.084,18.48-32.97,32.958-30.453c7.159,1.247,16.038,6.149,24.797,10.985c8.475,4.675,16.799,10.628,24.729,15.771      c34.705,22.529,59.45,42.44,95.703,64.39c7.974,4.822,16.113,10.45,23.775,16.005c10.682,7.747,22.184,14.759,21.199,24.928      c-0.444,4.602-5.132,10.667-8.645,16.952c-3.383,6.051-7.715,11.805-10.952,16.753c-7.875,12.054-15.214,23.265-21.898,33.516      c-16.036,24.591-28.459,46.347-42.811,70.055c-13.553,22.388-26.659,46.865-41.75,70.297      c-12.86,19.966-26.775,49.469-44.19,60.344c-13.856,8.651-30.239,0.13-49.594-10.664      c-37.853-21.113-69.905-45.206-104.448-67.264c-8.26-5.276-17.972-11.139-26.496-16.846      c-9.851-6.591-19.344-13.893-20.329-20.368c-0.998-6.54,5.855-18.333,11.887-28.291c6.297-10.407,12.719-20.17,18.273-28.86      c36.393-56.993,70.237-118.671,105.286-176.588C216.919,159.362,217.048,159.171,217.156,158.968z"/>
				<g>
					<path style="fill-rule:evenodd;clip-rule:evenodd;fill:#FFFFFF;" d="M237.678,485.066c-0.771,6.714-15.489-2.756-9.788-6.186       C230.86,477.089,236.052,482.209,237.678,485.066z"/>
					<path style="fill-rule:evenodd;clip-rule:evenodd;fill:#FFFFFF;" d="M242.465,495.828c-0.82-1.168-1.871-4.013,0.605-5.482       c3.224-1.925,9.833,1.722,12.722,2.666c3.517,1.151,10.664,1.734,11.489,5.821c1.189,5.831-9.269,3.265-12.827,2.23       c-1.895-0.547-3.695-1.269-5.275-1.808C246.479,498.318,244.044,498.077,242.465,495.828z"/>
				</g>
				<g>
					<path style="fill-rule:evenodd;clip-rule:evenodd;fill:#FFFFFF;" d="M304.663,454.803c0.811-2.989,4.605-6.583,8.548-9.883       c1.684-1.417,4.451-3.662,5.886-2.295c1.725,1.637-1.013,4.686-1.989,5.772c-3.123,3.443-7.574,6.964-10.5,8.146       C305.878,456.503,304.94,455.601,304.663,454.803z"/>
					<path style="fill-rule:evenodd;clip-rule:evenodd;fill:#FFFFFF;" d="M314.584,433.362c-4.209-2.694,3.147-10.773,5.888-7.662       c1.187,1.353-0.908,6.588-3.281,7.884C316.336,434.046,315.32,433.827,314.584,433.362z"/>
					<path style="fill-rule:evenodd;clip-rule:evenodd;fill:#FFFFFF;" d="M326.55,427.707c-1.587-0.794-1.413-3.36-0.31-5.681       c0.89-1.867,3.435-5.032,5.143-3.389c0.767,0.725,0.895,2.802,0.026,4.755C330.4,425.684,328.587,428.728,326.55,427.707z"/>
				</g>
				<g>
					<path style="fill-rule:evenodd;clip-rule:evenodd;fill:#FFFFFF;" d="M414.459,286.052c0.367-3.45,3.923-8.093,7.686-12.444       c1.613-1.865,4.271-4.83,6.097-3.58c2.198,1.505-0.288,5.362-1.174,6.736c-2.831,4.353-7.13,9.037-10.146,10.867       C416.109,287.714,414.911,286.885,414.459,286.052z"/>
					<path style="fill-rule:evenodd;clip-rule:evenodd;fill:#FFFFFF;" d="M422.703,265.83c-5.13-2.222,1.556-12.459,5.139-9.51       c1.552,1.283,0.165,7.443-2.222,9.295C424.762,266.274,423.595,266.214,422.703,265.83z"/>
					<path style="fill-rule:evenodd;clip-rule:evenodd;fill:#FFFFFF;" d="M438.324,247.825c-1.895-0.594-2.152-3.461-1.35-6.219       c0.646-2.223,2.903-6.168,5.093-4.657c0.963,0.666,1.477,2.934,0.87,5.244C442.223,244.906,440.761,248.592,438.324,247.825z"/>
				</g>
				<g>
					<path style="fill-rule:evenodd;clip-rule:evenodd;fill:#FFFFFF;" d="M134.679,333.91c-0.367,3.493-3.965,8.193-7.783,12.595       c-1.627,1.88-4.319,4.893-6.163,3.623c-2.231-1.524,0.29-5.423,1.189-6.817c2.862-4.405,7.214-9.149,10.265-10.992       C133.015,332.235,134.228,333.066,134.679,333.91z"/>
					<path style="fill-rule:evenodd;clip-rule:evenodd;fill:#FFFFFF;" d="M131.384,349.933c5.187,2.252-1.571,12.613-5.2,9.624       c-1.569-1.3-0.165-7.534,2.251-9.407C129.305,349.48,130.48,349.544,131.384,349.933z"/>
					<path style="fill-rule:evenodd;clip-rule:evenodd;fill:#FFFFFF;" d="M109.793,373.673c1.917,0.597,2.178,3.499,1.365,6.293       c-0.664,2.243-2.939,6.239-5.15,4.711c-0.985-0.674-1.497-2.968-0.881-5.312C105.848,376.626,107.327,372.896,109.793,373.673z       "/>
				</g>
			</g>
			<g>
				<path style="fill-rule:evenodd;clip-rule:evenodd;fill:#7C75D1;" d="M394.057,162.069c12.012,10.369,31.125,20.676,32.09,38.145      c0.165,2.906-0.758,6.687-2.354,10.202c-38.119-24.001-78.741-51.018-118.152-76.505c2.644-5.033,7.205-7.748,11.904-8.895      c15.144-3.701,32.947,9.743,43.877,15.497c4.693-5.939,10.669-10.299,19.381-8.962      C394.794,133.704,402.025,148.42,394.057,162.069z"/>
				<path style="fill-rule:evenodd;clip-rule:evenodd;fill:#FFFFFF;" d="M379.313,142.702c15.155,2.254,5.614,28.781-8.574,20.995      C359.965,157.789,368.847,141.145,379.313,142.702z"/>
			</g>
		</g>
		<g>
			<g>
				<path style="fill-rule:evenodd;clip-rule:evenodd;fill:#FFFFFF;" d="M235.182,193.467c2.237-4.077,5.996-10.259,9.785-16.165      c7.814-12.172,14.97-26.507,25.722-25.026c5.321,0.735,11.807,4.277,18.201,7.774c6.185,3.378,12.218,7.767,17.979,11.529      c25.226,16.492,43.073,31.272,69.479,47.258c5.805,3.512,11.706,7.649,17.258,11.747c7.737,5.717,16.107,10.822,15.027,18.837      c-0.495,3.624-4.211,8.546-7.06,13.599c-2.734,4.862-6.181,9.528-8.772,13.522c-6.308,9.728-12.192,18.779-17.55,27.05      c-12.849,19.845-22.903,37.344-34.459,56.441c-10.917,18.031-21.571,37.687-33.677,56.592      c-10.31,16.109-21.742,39.739-35.158,48.869c-10.671,7.26-22.65,1.132-36.778-6.675c-27.626-15.275-50.81-33.086-75.921-49.213      c-6.014-3.86-13.082-8.127-19.271-12.316c-7.157-4.832-14.014-10.24-14.533-15.287c-0.523-5.1,5.014-14.586,9.871-22.609      c5.071-8.38,10.22-16.261,14.676-23.272c29.206-45.969,56.663-95.531,84.889-142.179      C234.992,193.784,235.094,193.629,235.182,193.467z"/>
				<g>
					<path style="fill-rule:evenodd;clip-rule:evenodd;fill:#E8BD54;" d="M339.058,231.455c-1.497-1.407-0.653-3.086-0.367-4.7       c-4.242,1.016-8.809,8.752-13.04,5.738c-2.618-1.866-2.477-7.695-3.029-10.89c-0.706-4.141-1.424-7.864-2.137-10.819       c-8.508,10.95-16.682,22.928-25.052,35.251c-2.446,3.606-6.427,11.012-9.777,9.575c-2.582-1.111-3.139-4.506-3.583-6.61       c-1.442-6.882-1.945-13.578-3.925-20.099c-4.695,4.979-8.339,10.614-13.322,16.84c-1.565,1.964-3.383,4.592-4.915,3.034       c-1.257-1.278,1.11-3.671,2.204-5.177c2.752-3.779,6.126-8.936,9.831-13.621c2.961-3.742,5.506-8.001,8.755-6.292       c3.468,1.822,3.89,8.713,4.495,11.423c0.903,4.027,1.508,7.242,2.569,11.469c6.866-9.809,16.309-22.867,24.019-33.547       c2.862-3.967,7.444-11.28,11.9-7.89c2.438,1.85,2.996,8.173,3.534,10.659c0.862,3.989,1.213,7.157,1.947,10.663       c2.141-1.204,4.242-2.808,6.334-4.429c-0.374-0.279-2.4-0.635-2.169-2.03c2.167-1.728,6.424-1.615,8.818-1.206       c3.222,0.55,2.308,4.255,1.349,7.046C342.777,227.963,341.579,231.86,339.058,231.455z"/>
					<path style="fill-rule:evenodd;clip-rule:evenodd;fill:#E8BD54;" d="M262.831,198.536c0.196,0.154,0.389,0.307,0.583,0.46       c-4.101,16.702-8.337,33.418-13.636,50.258c20.441,6.731,39.079,11.496,60.419,17.898c2.969,0.89,6.323,1.928,9.998,2.874       c1.11,0.286,9.548,1.312,7.776,4.89c-1.585,3.185-8.13-0.418-10.146-1.099c-20.83-7.04-40.321-12.55-61.428-19.011       c-2.628-0.804-8.91-1.996-9.884-3.413c-1.044-1.523,0.411-4.394,1.002-6.444c4.548-15.73,9.467-30.281,14.86-45.831       C262.528,198.923,262.68,198.729,262.831,198.536z"/>
				</g>
				<g>
					<path style="fill:#A59AE8;" d="M245.241,313.082c0.923,0.196,2.053-0.147,3.143-0.48c0.541-0.163,1.094-0.333,1.605-0.429       c0.549-0.102,1.158-0.188,1.783-0.276c1.706-0.241,3.479-0.491,4.664-1.123c3.31-1.763,5-4.243,4.642-6.806       c-0.303-2.149-2.059-3.924-4.374-4.419c-1.947-0.414-3.969,0.105-5.772,1.462c-0.559,0.421-0.599,1.284-0.046,1.713       c0.371,0.288,0.788,0.479,1.262,0.581c0.743,0.159,1.512,0.068,2.257-0.019c0.218-0.025,0.432-0.047,0.641-0.062       c1.59-0.111,2.472,1.803,1.353,2.939c-1.262,1.28-3.424,1.605-5.808,1.963c-2.649,0.395-5.383,0.805-6.942,2.741       c-0.092,0.114-0.126,0.277-0.088,0.419C243.828,312.296,244.392,312.9,245.241,313.082z"/>
					<path style="fill:#A59AE8;" d="M298.963,362.249c-0.044-0.09-0.116-0.159-0.204-0.206l-0.237-0.121       c-0.301-0.151-0.604-0.311-0.956-0.385c-0.56-0.119-1.081,0.01-1.595,0.401c-0.082,0.062-0.136,0.148-0.165,0.247       c-0.626,2.362,0.525,4.452,1.541,6.293c0.431,0.778,0.835,1.513,1.088,2.223c8.036,22.345-0.927,49.454-20.852,63.057       c-10.728,7.32-23.736,10.057-35.683,7.508c-10.776-2.299-19.792-8.565-26.07-18.118c-2.051-3.113-3.46-5.787-3.684-8.649       c6.724-3.668,14.071-8.012,21.175-12.216c2.991-1.77,5.919-3.501,8.7-5.122c0.817-0.471,1.699-0.885,2.543-1.28       c2.185-1.021,4.247-1.984,5.385-3.954c0.114-0.196,0.064-0.444-0.112-0.585c-5.13-4.073-10.972-6.792-16.627-9.424       c-2.187-1.02-4.446-2.072-6.603-3.176c-3.939-2.031-7.869-4.216-11.667-6.327c-3.609-2.009-7.337-4.082-11.119-6.05       c4.822-11.948,23.314-26.276,37.954-25.982c-0.084,0.456-0.174,0.91-0.253,1.364c-0.428,2.282-0.866,4.641-1.523,7.066       c-0.178,0.645-0.492,1.355-0.824,2.102c-0.949,2.143-2.136,4.812-0.354,7.388c0.119,0.174,0.336,0.242,0.532,0.166       c2.776-1.061,3.235-3.995,3.644-6.584c0.13-0.83,0.253-1.613,0.444-2.3c0.165-0.599,0.323-1.207,0.484-1.818       c0.661-2.513,1.339-5.114,2.64-7.218c2.402-0.102,4.915,0.122,7.469,0.667c16.423,3.504,32.492,19.564,37.376,37.355       c0.334,1.218,0.554,2.49,0.769,3.723c0.53,3.059,1.024,5.948,3.174,7.377c0.158,0.101,0.36,0.099,0.51-0.004       c2.005-1.365,1.506-4.453,1.169-6.499l-0.016-0.113c-3.912-23.91-24.828-42.161-42.789-45.994       c-2.508-0.536-4.956-0.791-7.284-0.764c0.514-1.852,1.086-3.971,1.567-6.109c0.09-0.393,0.211-0.812,0.334-1.246       c0.512-1.8,1.147-4.042,0.07-6.013c-0.064-0.107-0.167-0.189-0.286-0.22c-0.116-0.035-0.246-0.012-0.354,0.054       c-3.031,1.901-3.594,5.431-4.13,8.845c-0.279,1.738-0.567,3.534-1.18,5.033c-16.794-1.606-41.341,16.433-43.28,31.908       c-0.02,0.182,0.07,0.365,0.233,0.453c6.262,3.452,12.959,6.875,19.434,10.185c8.141,4.16,16.548,8.459,23.927,12.738       c-5.301,3.329-10.937,6.511-16.392,9.592c-7.047,3.983-13.706,7.741-19.702,11.784c-0.18,0.121-0.248,0.352-0.167,0.55       c7.079,17.191,19.368,28.447,34.598,31.699c13.726,2.93,28.47-0.982,41.512-11.008       C304.861,417.823,311.52,387.419,298.963,362.249z"/>
					<path style="fill:#A59AE8;" d="M237.276,319.255c0.04-0.001,0.083,0.013,0.13,0.008c1.339-0.102,3.152-1.31,3.965-2.634       c0.477-0.778,0.585-1.535,0.319-2.19c-0.037-0.088-0.101-0.162-0.18-0.212c-0.266-0.172-0.549-0.291-0.839-0.352       c-1.857-0.396-3.56,1.587-4.677,3.117c-0.361,0.494-0.576,1.295-0.24,1.762C236.038,319.15,236.916,319.265,237.276,319.255z"/>
					<path style="fill:#A59AE8;" d="M223.159,399.577c3.086-1.131,6.277-2.299,7.875-5.262c0.061-0.115,0.07-0.252,0.026-0.374       c-0.631-1.675-1.69-2.059-2.391-2.31c-0.141-0.052-0.27-0.096-0.378-0.151c-5.025-2.55-10.766-4.956-16.316-7.283       c-2.343-0.982-4.695-1.969-7.016-2.974c-2.64-1.137-5.24-2.444-7.756-3.706c-5.466-2.74-10.621-5.321-16.045-6.312       c-0.226-0.04-0.45,0.101-0.514,0.325c-4.523,16.014-1.998,30.531,7.519,43.149c0.066,0.091,0.163,0.15,0.27,0.17       c0.086,0.021,0.185,0.013,0.277-0.029c4.602-2.006,9.421-4.2,14.078-6.322c6.036-2.752,12.278-5.598,18.065-8.033       C221.589,400.152,222.37,399.868,223.159,399.577z M224.532,394.094c-4.578,2.311-9.596,4.529-14.891,6.87       c-6.62,2.924-13.467,5.947-19.909,9.381c-7.734-11.489-7.53-23.878-6.607-34.684c7.315,2.921,14.654,6.336,21.755,9.643       C211.297,388.288,217.921,391.372,224.532,394.094z"/>
				</g>
				<g>
					<path style="fill:#A59AE8;" d="M232.122,254.328c-0.244-0.381-0.558-0.515-0.772-0.563c-0.255-0.056-0.534-0.022-0.828,0.095       l-29.028,11.544c-0.49,0.196-0.855,0.573-1.016,1.073c-0.169,0.535-0.095,1.154,0.202,1.611       c0.251,0.378,0.561,0.513,0.778,0.562c0.255,0.054,0.536,0.02,0.831-0.099c9.675-3.85,19.346-7.695,29.026-11.539       c0.49-0.199,0.851-0.583,1.005-1.076C232.493,255.399,232.419,254.782,232.122,254.328z"/>
					<g>
						<path style="fill:#A59AE8;" d="M210.958,254.688c-0.097-0.023-0.189-0.059-0.248-0.132c-0.813-0.966-1.064-1.682-0.738-2.124        c0.793-1.059,1.818-2.129,3.051-3.183c0.864-0.738,2.253-1.796,4.141-3.142c1.877-1.342,3.262-2.4,4.13-3.137        c0.954-0.816,1.884-1.733,2.844-2.796c0.093-0.104,0.226-0.17,0.365-0.181c0.18-0.018,0.374,0.002,0.51,0.064        c0.402,0.236,0.651,0.457,0.815,0.706c0.207,0.318,0.253,0.662,0.156,1.054c-0.193,0.721-0.864,1.608-2.005,2.641        c-1.154,1.047-2.903,2.454-5.191,4.174c-2.409,1.832-4.218,3.26-5.247,4.131c-0.694,0.599-1.341,1.178-1.938,1.752        c-0.112,0.106-0.303,0.202-0.453,0.194C211.085,254.707,211.022,254.702,210.958,254.688z"/>
					</g>
					<g>
						<path style="fill:#A59AE8;" d="M229.955,269.319c-0.105-0.124-0.244-0.246-0.404-0.355c-1.536-1.068-3.185-1.393-5.038-0.999        c-0.712,0.15-1.235,0.367-1.556,0.644c-0.264,0.222-0.303,0.423-0.303,0.549c-0.075,1.444,0.061,1.763,0.077,1.795        c0.005,0,0.035,0.029,0.136,0.032c0.127,0.007,0.172-0.029,0.185-0.043c0.024-0.015,0.125-0.121,0.29-0.426        c0.204-0.389,0.361-0.612,0.512-0.746c0.178-0.149,0.363-0.245,0.563-0.291c0.655-0.128,1.33-0.256,2.048-0.377        c0.668-0.112,1.495-0.177,1.941,0.355c0.018,0.022,0.088,0.111,0.101,0.136c0.301,0.459,0.411,1.226-0.783,2.247        c-0.497,0.424-1.22,0.786-2.209,1.11c-0.787,0.22-1.532,0.43-2.257,0.641c-1.255,0.379-3.207,0.855-5.969,1.446        c-2.424,0.495-4.304,0.949-5.605,1.352c-0.143,0.415-0.094,1.101,0.611,1.929l0.809,0.948c0.226,0.231,0.8,0.9,1.693,1.978        c0.657,0.764,1.255,1.402,1.796,1.895c0.545,0.497,0.873,0.579,0.974,0.548c0-0.002,0.154-0.078,0.154-0.078        c0.345-0.292,0.343-0.511,0.215-0.789c-0.301-0.627-0.859-1.43-1.62-2.319c-1.092-1.276-1.75-2.063-1.967-2.353        c-0.13-0.179-0.165-0.38-0.114-0.577c0.059-0.2,0.202-0.364,0.395-0.44c0.941-0.375,2.165-0.701,3.728-0.994        c1.679-0.339,2.882-0.614,3.554-0.822c1.253-0.396,2.519-0.784,3.796-1.163c1.334-0.498,2.426-1.089,3.198-1.752        c0.494-0.423,0.912-0.898,1.229-1.412C230.498,270.392,230.419,269.863,229.955,269.319z"/>
						<path style="fill:#A59AE8;" d="M217.328,284.223c-0.317-0.067-0.69-0.295-1.108-0.675c-0.55-0.5-1.167-1.153-1.844-1.944        c-1.152-1.393-1.536-1.819-1.666-1.951l-0.838-0.974c-1.005-1.187-0.828-2.126-0.71-2.474        c0.057-0.167,0.191-0.297,0.358-0.347c1.323-0.41,3.224-0.866,5.66-1.365c2.734-0.586,4.671-1.055,5.915-1.433        c0.734-0.213,1.479-0.426,2.277-0.644c0.892-0.294,1.556-0.624,1.993-0.998c0.712-0.611,0.943-1.123,0.677-1.525        c-0.145-0.18-0.266-0.247-0.439-0.283c-0.327-0.071-0.752-0.014-1.046,0.036c-0.714,0.12-1.387,0.245-2.035,0.374        c-0.097,0.023-0.204,0.079-0.308,0.173c-0.092,0.078-0.22,0.268-0.382,0.579c-0.158,0.29-0.312,0.498-0.426,0.593        c-0.128,0.12-0.326,0.183-0.57,0.17c-0.029-0.001-0.13-0.013-0.156-0.019c-0.086-0.02-0.145-0.044-0.176-0.059        c-0.117-0.053-0.211-0.145-0.271-0.259c-0.141-0.293-0.187-0.99-0.134-2.069c0.013-0.35,0.182-0.673,0.501-0.943        c0.391-0.34,0.98-0.591,1.798-0.763c1.994-0.424,3.811-0.065,5.466,1.084c0.202,0.14,0.374,0.291,0.51,0.45        c0.633,0.745,0.717,1.524,0.233,2.317c-0.354,0.568-0.806,1.085-1.343,1.548c-0.82,0.7-1.95,1.323-3.363,1.849        c-1.308,0.388-2.574,0.776-3.824,1.172c-0.71,0.218-1.923,0.497-3.607,0.835c-1.449,0.274-2.716,0.58-3.613,0.914        c-0.091,0.034-0.118,0.141-0.057,0.217c0.291,0.361,1.077,1.329,1.934,2.332c0.785,0.92,1.372,1.763,1.697,2.44        c0.259,0.558,0.143,1.03-0.354,1.452c-0.035,0.029-0.07,0.054-0.117,0.074l-0.147,0.075        C217.602,284.251,217.47,284.254,217.328,284.223z"/>
					</g>
				</g>
			</g>
			<g>
				<g>
					<path style="fill-rule:evenodd;clip-rule:evenodd;fill:#A59AE8;" d="M470.356,366.53c-16.97-10.664-33-21.315-50.992-31.399       c-5.844-3.275-11.473-7.292-18.19-9.53c-1.367,3.261-0.44,6.864-0.07,10.095c2.578,22.593,5.937,45.06,8.368,68.101       c-27.035,2.222-50.999-9.79-64.494-23.871c-14.113-14.726-22.408-33.866-20.993-57.71       c1.541-25.924,16.335-46.741,32.064-58.285c8.299-6.094,17.447-10.112,27.43-12.884c10.313-2.861,22.333-4.118,35.22-2.001       c29.404,4.834,48.489,23.977,57.463,42.89c4.574,9.639,7.631,22.07,6.959,35.685       C482.436,341.371,478.071,355.627,470.356,366.53z"/>
					<path style="fill-rule:evenodd;clip-rule:evenodd;fill:#7C75D1;" d="M406.086,333.674       c10.572,6.537,21.962,14.532,32.294,21.463c10.842,7.274,21.056,14.765,31.666,21.624c-5.701,8.849-12.84,16.122-20.698,21.754       c-7.554,5.418-17.331,9.569-27.413,11.4c-5.4-25.337-11.675-50.106-16.887-75.57       C405.298,333.971,405.643,333.746,406.086,333.674z"/>
				</g>
				<path style="fill-rule:evenodd;clip-rule:evenodd;fill:#2C8952;" d="M408.755,258.894c-1.954,1.284-3.583,3.112-5.196,4.841      c-21.858,23.371-43.897,47.086-66.219,70.623c-3.266,3.445-6.992,9.172-11.407,8.867c-4.009-0.276-7.343-4.43-10.119-6.917      c-20.1-18.008-40.145-35.975-60.235-53.592c-19.085,20.941-38.398,42.587-57.975,64.055c-2.846,3.119-5.847,7.16-9.502,6.895      c-3.385-0.246-7.071-4.254-10.183-6.632c-21.751-16.631-42.776-33.18-64.046-49.65c-22.764,24.79-45.214,50.235-68.51,75.786      c-3.205,3.513-6.515,9.14-11.289,8.298c-3.499-0.619-5.337-3.445-5.286-5.886c0.057-2.685,2.262-5.207,4.257-7.417      c12.289-13.598,24.158-27.017,36.286-40.436c11.763-13.013,24.265-26.657,36.569-40.373c2.27-2.535,3.803-4.856,6.961-4.759      c4.244,0.134,7.143,3.786,10.526,6.41c22.05,17.109,42.301,32.59,64.276,49.994c19.071-20.689,37.91-41.987,57.28-63.611      c3.062-3.411,6.71-8.642,11.737-7.608c2.989,0.616,6.568,5.039,9.148,7.306c20.036,17.597,40.82,36.171,60.008,53.247      c23.958-25.303,47.757-50.842,71.596-76.318c-6.139,1.094-14.306,4.125-21.241,6.173c-2.09,0.62-4.829,1.791-7.882,0.699      c-3.156-1.132-4.394-4.433-3.844-7.067c0.945-4.487,7.123-5.742,11.614-7.038c9.623-2.778,18.35-5.311,27.25-7.864      c4.418-1.267,9.038-3.618,13.913-3.87c1.677-0.088,4.932,1.09,6.119,3.386c1.33,2.581,0.022,8.05-0.681,12.939      c-1.266,8.792-2.446,18.39-3.715,27.162c-1.083,7.518-1.424,18.176-10.286,14.755c-5.517-2.13-3.27-10.063-2.229-17.423      C407.192,268.637,407.845,264.143,408.755,258.894z"/>
			</g>
		</g>
	</g>
	<g>
		<g>
			<g>
				<g>
					<g>
						<polygon style="fill-rule:evenodd;clip-rule:evenodd;fill:#DB9171;" points="105.308,245.678 98.604,247.567 103.066,262.419         109.42,260.493       "/>
					</g>
					<g>
						<path style="fill-rule:evenodd;clip-rule:evenodd;fill:#2C8952;" d="M85.168,278.664c-2.086-5.938-4.061-11.931-6.059-18.015        l9.84-11.577c5.187-1.174,10.163-2.289,10.163-2.289c0.475,0.209,3.991,10.68,5.254,15.241l-11.498,5.506l1.074,8.554        c-0.007,0.494-0.018,0.982-0.046,1.457l-6.071,5.687L85.168,278.664z"/>
						<path style="fill:#69AF7A;" d="M90.931,274.971c-0.815-1.31-0.327-8.388,0.405-9.281c0.624-0.754,10.897-3.186,13.031-3.667        c0,0,0.554,1.674,0.442,2.057c-0.717,2.523-7.297,2.601-9.447,4.59c-1.189,1.097-1.27,3.546-1.369,5.373        c-0.039,0.675-0.046,1.365-0.055,2.04C92.726,275.851,91.485,275.861,90.931,274.971"/>
						<path style="fill:#69AF7A;" d="M76.763,252.165c0.345-0.468,1.532-0.649,2.609-0.904c3.624-0.848,6.504-1.454,9.576-2.19        c0.18,1.886-0.407,3.73-1.106,5.041c-1.516,2.868-4.763,5.31-8.737,6.538c-0.514-1.562-1.022-3.12-1.536-4.69        C77.108,254.566,76.279,252.826,76.763,252.165"/>
						<path style="fill:#69AF7A;" d="M92.962,277.121c0.292,0.07,0.618,0.218,0.932,0.42c-0.053,0.869-0.16,1.696-0.415,2.422        c-0.745,2.092-2.989,4.409-6.361,4.114l-1.943-5.416C85.227,278.646,89.676,276.34,92.962,277.121"/>
					</g>
				</g>
				<g>
					<g>
						<path style="fill-rule:evenodd;clip-rule:evenodd;fill:#A59AE8;" d="M179.883,140.565        c14.425,9.91,28.338,20.195,41.748,30.847c-1.293,10.216-2.227,20.708-3.671,31.508c-1.442,10.777-2.04,21.456-7.053,28.636        c-6.31,9.04-17.5,13.875-28.567,17.377c-21.944,6.948-49.414,11.708-72.93,14.971c-2.664-6.544-4.121-13.979-6.519-20.718        c10.856-6.036,22.388-11.083,34.67-14.97c12.234-3.872,25.358-7.408,40.022-7.671c1.163-11.235,1.569-20.796,2.519-31.687        c0.284-3.256,1.213-7.066,1.02-10.437c-0.11-1.928-1.444-3.676-2.079-5.617C176.696,165.645,174.397,149.47,179.883,140.565z"/>
						<path style="fill:#7C75D1;" d="M181.903,208.033c2.013-10.086,3.433-20.322,4.906-30.524        c-5.143-7.317-7.629-16.512-6.189-25.881c0.475-3.078,1.354-6.01,2.563-8.757c-1.101-0.767-2.187-1.545-3.299-2.307        c-5.486,8.905-3.187,25.079-0.839,32.239c0.635,1.941,1.969,3.689,2.079,5.617c0.194,3.371-0.736,7.181-1.02,10.437        c-0.95,10.891-1.356,20.452-2.519,31.687c-14.665,0.263-27.789,3.799-40.022,7.671c-9.926,3.14-19.353,7.053-28.34,11.619        c10.335-4.655,21.166-8.45,32.562-11.236c11.517-2.815,23.773-5.286,37.125-5.082        C179.763,218.337,180.879,213.178,181.903,208.033z"/>
						<path style="fill-rule:evenodd;clip-rule:evenodd;fill:#7C75D1;" d="M202.808,231.872c-3.33-1.903,2.682-11.45,5.236-8.409        c0.457,1.788-1.365,3.222-2.246,4.74C204.925,229.708,204.417,232.792,202.808,231.872z"/>
					</g>
					<g>
						<path style="fill-rule:evenodd;clip-rule:evenodd;fill:#7C75D1;" d="M115.895,239.718c1.956-0.897,5.207-1.865,5.923-0.464        c0.923,1.804-1.279,2.379-2.928,2.97c-1.631,0.589-3.679,1.259-4.317-0.234C113.88,240.361,115.128,240.071,115.895,239.718z"/>
						<path style="fill-rule:evenodd;clip-rule:evenodd;fill:#7C75D1;" d="M126.948,239.959c1.404-0.777,3.079-0.869,3.552,0.435        c0.807,2.232-4.193,4.073-4.87,1.838C125.37,241.384,125.79,240.602,126.948,239.959z"/>
					</g>
				</g>
			</g>
			<g>
				<g>
					<g>
						<g>
							<polygon style="fill-rule:evenodd;clip-rule:evenodd;fill:#DB9171;" points="315.89,269 318.457,275.471 332.772,269.508          330.203,263.388        "/>
						</g>
						<g>
							<path style="fill-rule:evenodd;clip-rule:evenodd;fill:#2C8952;" d="M348.753,277.078c-0.475,0.021-0.961,0.062-1.453,0.105         l-6.8,1.76l-8.256-10.688c-4.408,1.725-14.461,6.3-14.618,6.794c0,0,1.619,4.834,3.319,9.872l12.526,8.6         c5.848-2.613,11.606-5.193,17.3-7.877l-0.383-4.449L348.753,277.078z"/>
							<path style="fill:#69AF7A;" d="M346.505,280.292c-1.22,0.946-8.31,1.185-9.275,0.549c-0.813-0.542-4.288-10.512-4.985-12.584         c0,0,1.609-0.722,2-0.654c2.583,0.457,3.336,6.99,5.539,8.927c1.211,1.069,3.653,0.9,5.484,0.811         c0.673-0.031,1.363-0.098,2.033-0.157C347.199,278.418,347.334,279.647,346.505,280.292"/>
							<path style="fill:#69AF7A;" d="M325.277,296.726c-0.503-0.295-0.807-1.457-1.172-2.5c-1.215-3.518-2.117-6.319-3.163-9.303         c1.859-0.372,3.754,0.023,5.13,0.58c3.009,1.214,5.774,4.196,7.398,8.02c-1.501,0.668-2.998,1.339-4.508,2.012         C327.627,296.137,325.983,297.142,325.277,296.726"/>
							<path style="fill:#69AF7A;" d="M348.432,278.049c0.037-0.296,0.154-0.635,0.321-0.967c0.873-0.038,1.708-0.017,2.455,0.163         c2.154,0.526,4.688,2.52,4.743,5.905l-5.185,2.488C350.745,285.585,347.997,281.397,348.432,278.049"/>
						</g>
					</g>
					<g>
						<path style="fill-rule:evenodd;clip-rule:evenodd;fill:#A59AE8;" d="M332.247,265.28c-5.33,2.47-11.473,3.829-16.852,6.236        c-6.873-9.168-12.163-19.542-16.821-30.248c-4.677-10.736-8.642-22.269-9.864-35.358        c-20.006-4.546-39.372-9.806-59.544-16.518c-8.827-2.938-18.129-6.552-26.621-10.57c-14.056-6.65-25.076-32.106-25.076-32.106        c1.576-1.112,3.708-1.098,5.528-1.504c5.297-1.18,11.143-2.175,16.984-3.272c7.737-1.453,15.594-3.261,22.709-4.156        c3.561-0.449,9.086,2.984,12.823,4.622c18.636,8.161,37.046,15.715,54.678,25.184c6.77,3.633,13.968,7.36,18.377,12.536        c4.337,5.095,6.754,12.335,8.803,19.306C323.602,220.648,327.647,242.738,332.247,265.28z"/>
						<path style="fill:#7C75D1;" d="M292.937,203.424c-0.237-0.072-0.483-0.145-0.725-0.22        c-12.57-3.351-112.912-23.988-110.42-57.774c-1.503,0.233-3.086,0.413-4.323,1.286c-0.525,17.127,11.02,25.456,25.076,32.106        c8.493,4.018,17.794,7.632,26.621,10.57c20.173,6.711,39.539,11.971,59.544,16.518c1.222,13.089,5.187,24.622,9.864,35.358        c2.596,5.975,5.409,11.837,8.565,17.452c-2.989-6.458-5.484-13.205-7.726-20.056        C295.851,227.789,293.051,216.211,292.937,203.424z"/>
						<path style="fill-rule:evenodd;clip-rule:evenodd;fill:#7C75D1;" d="M307.639,189.991c-2.798,2.624-10.157-5.924-6.501-7.475        c1.844,0.091,2.681,2.253,3.87,3.539C306.195,187.332,308.993,188.723,307.639,189.991z"/>
					</g>
				</g>
				<g>
					<path style="fill-rule:evenodd;clip-rule:evenodd;fill:#7C75D1;" d="M313.857,261.755c-1.202-1.788-2.681-4.84-1.413-5.771       c1.633-1.201,2.554,0.88,3.405,2.41c0.844,1.519,1.833,3.43,0.462,4.297C314.813,263.64,314.325,262.453,313.857,261.755z"/>
					<path style="fill-rule:evenodd;clip-rule:evenodd;fill:#7C75D1;" d="M312.316,250.805c-0.991-1.262-1.352-2.898-0.141-3.575       c2.07-1.155,4.695,3.486,2.596,4.516C313.973,252.135,313.136,251.848,312.316,250.805z"/>
				</g>
				<g>
					<path style="fill-rule:evenodd;clip-rule:evenodd;fill:#FFFFFF;" d="M190.917,162.73c1.936-0.311,8.493,4.226,6.812,6.363       c-1.369,1.738-7.066-2.401-7.574-4.659C190.018,163.854,190.122,163.452,190.917,162.73z"/>
					<path style="fill-rule:evenodd;clip-rule:evenodd;fill:#FFFFFF;" d="M200.773,170.773c1.31-2.126,6.137,1.565,4.691,3.341       c-0.609,0.749-1.279,0.547-2.409,0.049C201.382,173.431,199.858,172.262,200.773,170.773z"/>
				</g>
			</g>
		</g>
		<g>
			<g>
				<g>
					<path style="fill-rule:evenodd;clip-rule:evenodd;fill:#C4765B;" d="M288.059,48.585c-5.618,2.558,0.415,10.102-0.541,11.43       c-0.75,1.029-1.71,1.699-2.317,2.655c-1.086,1.725-0.714,2.542-1.141,4.464l-11.823-2.528c0.198-1.953,0.387-3.343,0.846-5.174       c0.424-1.668,0.859-3.53,1.558-5.182c1.745-4.15,5.488-6.619,11.218-8.591c1.967-0.681,6.721-2.05,7.031-0.488       C293.143,46.421,289.163,47.905,288.059,48.585"/>
					<g>
						<path style="fill-rule:evenodd;clip-rule:evenodd;fill:#7C75D1;" d="M279.261,36.624c0.917,2.832-0.631,5.873-3.46,6.791        l-3.363,1.096c-2.831,0.921-5.871-0.625-6.792-3.456l-0.673-2.072c-0.927-2.829,0.624-5.871,3.453-6.793l3.367-1.093        c2.829-0.921,5.866,0.626,6.783,3.458L279.261,36.624z"/>
						<path style="fill-rule:evenodd;clip-rule:evenodd;fill:#7C75D1;" d="M279.485,45.83c2.139-0.921,4.614-1.264,6.726-2.228        c0.169,0.088,0.165,0.28,0.38,0.337c0.094,2.17,1.105,3.899,0.629,6.539c-0.332,1.834-1.229,3.467-1.123,5.129        c0.128,2.04,2.147,4.749,1.627,6.331c-0.604,1.814-4.506,2.811-6.009,2.182c-2.336-0.978-3.543-8.626-2.987-11.884        C279.178,49.617,280.11,48.139,279.485,45.83z"/>
						<path style="fill-rule:evenodd;clip-rule:evenodd;fill:#A59AE8;" d="M312.085,1.401c0.152,0.008,0.301,0.017,0.453,0.025        c4.809,13.796,9.293,27.881,13.341,42.35c-4.224,2.624-7.104,0.435-12.511-0.945c-8.044-2.056-16.368-0.799-22.907,0.973        c-4.119,1.116-10.381,4.123-14.515,2.136c-1.998-0.957-3.33-3.81-4.405-6.876c-1.13-3.211-2.183-7.237-1.503-9.683        c1.154-4.157,5.668-5.063,9.746-6.525c3.785-1.36,8.319-2.997,11.453-4.6c6.011-3.067,9.579-6.147,13.436-11.109        C307.069,4.061,307.68,2.107,312.085,1.401z"/>
						<g>
							<path style="fill-rule:evenodd;clip-rule:evenodd;fill:#FFFFFF;" d="M273.217,27.768c1.323-1.338,2.635,3.092,1.319,3.566         c-1.545,0.557-1.82-2.47-1.437-3.43C273.122,27.845,273.171,27.814,273.217,27.768z"/>
							<path style="fill-rule:evenodd;clip-rule:evenodd;fill:#FFFFFF;" d="M271.817,32.319c1.209-0.924,2.53,2.743,0.972,2.982         C271.604,35.484,270.979,32.956,271.817,32.319z"/>
						</g>
						<path style="fill-rule:evenodd;clip-rule:evenodd;fill:#7C75D1;" d="M327.862,43.836c0.686,2.107-0.466,4.37-2.574,5.055l0,0        c-2.101,0.685-4.367-0.468-5.051-2.574L306.874,5.252c-0.684-2.105,0.468-4.369,2.569-5.055l0,0        c2.112-0.684,4.372,0.468,5.059,2.574L327.862,43.836z"/>
						<g>
							<path style="fill-rule:evenodd;clip-rule:evenodd;fill:#FFFFFF;" d="M304.208,12.896c0.978,0.402,4.981-1.152,4.363-2.482         c-0.499-1.082-4,0.374-4.55,1.491C303.88,12.194,303.882,12.419,304.208,12.896z"/>
							<path style="fill-rule:evenodd;clip-rule:evenodd;fill:#FFFFFF;" d="M307.241,7.847c0.173,1.408,2.143,0.551,2.026-0.291         C309.109,6.427,307.091,6.603,307.241,7.847z"/>
							<path style="fill-rule:evenodd;clip-rule:evenodd;fill:#FFFFFF;" d="M310.379,9.912c0.422,1.28,3.407-0.05,2.875-1.164         c-0.229-0.467-0.605-0.444-1.255-0.326C311.034,8.598,310.085,9.02,310.379,9.912z"/>
						</g>
					</g>
					<path style="fill-rule:evenodd;clip-rule:evenodd;fill:#DB9171;" d="M282.934,47.857c1.105,0.731-0.578,4.075-1.55,5.887       c-0.637,1.178-1.402,2.219-1.886,3.333c2.154,2.408,3.246,6.925,4.563,10.056l-11.823-2.527       c0.242-4.05,2.383-9.012,5.227-12.796C278.806,50.036,281.696,47.037,282.934,47.857"/>
					<path style="fill-rule:evenodd;clip-rule:evenodd;fill:#DB9171;" d="M284.804,58.653c-0.629,0.463-2.662,1.971-3.332,1.156       c-1.049-1.276,1.76-4.77,2.576-5.46c-0.837,0.396-2.503,1.212-3.09,0.423c-0.842-1.132,3.286-5.509,6.442-6.062       c2.266-0.392,1.477,1.641,0.299,3.142c0.468-0.112,0.93-0.135,1.222,0.207c1.191,1.195-0.84,2.935-1.835,4.16       c0.582-0.11,1.145-0.176,1.514,0.228c1.472,1.501-4.405,8.161-5.429,7.486C281.89,63.092,283.912,59.995,284.804,58.653"/>
				</g>
				<g>
					<path style="fill-rule:evenodd;clip-rule:evenodd;fill:#2C8952;" d="M295.596,109.522       c-2.701-14.312-7.952-29.427-11.535-42.388c-3.349-0.669-11.823-2.528-11.823-2.528c0.477,14.187,1.231,28.245,2.991,41.487       c-6.502-5.747-12.651-11.651-18.77-17.6c-6.174-5.996-11.904-12.444-18.731-17.889c-1.108-0.239-0.04,1.058-0.132,0.863       c3.794,8.233,4.86,20.199,2.609,32.77c8.132,8.788,20.166,19.25,31.512,26.623c4.163,2.707,8.312,5.805,13.042,7.009       c8.352,2.129,12.012-3.281,12.627-11.3C297.799,121.176,296.636,115.035,295.596,109.522z"/>
					<path style="fill-rule:evenodd;clip-rule:evenodd;fill:#69AF7A;" d="M237.729,70.605c-1.108-0.239-0.04,1.058-0.132,0.863       c3.794,8.233,4.86,20.199,2.609,32.77c0.554,0.597,1.121,1.198,1.71,1.808C241.916,106.045,257.833,85.098,237.729,70.605z"/>
					<g>
						<g>
							<path style="fill-rule:evenodd;clip-rule:evenodd;fill:#FFFFFF;" d="M293.277,123.942c2.527-0.844,1.365,5.596-0.613,5.356         c-2.306-0.285-0.719-4.288,0.38-5.257C293.112,123.979,293.185,123.973,293.277,123.942z"/>
							<path style="fill-rule:evenodd;clip-rule:evenodd;fill:#FFFFFF;" d="M288.6,128.807c2.123-0.395,1.451,5.083-0.675,4.39         C286.312,132.674,287.132,129.082,288.6,128.807z"/>
						</g>
						<path style="fill-rule:evenodd;clip-rule:evenodd;fill:#69AF7A;" d="M275.23,106.094c0,0,2.04,7.813,1.057,8.145        c-1.459,0.493-4.594-11.316-4.594-11.316L275.23,106.094z"/>
					</g>
				</g>
			</g>
			<g>
				<path style="fill-rule:evenodd;clip-rule:evenodd;fill:#2C8952;" d="M177.299,147.818c3.317-11.693,8.557-24.554,10.985-38.914      c2.558-15.07,4.334-28.586,12.165-36.972c4.583-4.91,11.946-8.282,20.608-7.718c17.219,1.119,24.936,12.439,23.859,26.624      c-0.475,6.211-2.824,13.093-4.866,20.144c-2.123,7.339-3.776,23.894-5.337,31.061      C232.623,151.66,190.097,156.836,177.299,147.818z"/>
				<g>
					<path style="fill:#FFFFFF;" d="M228.836,109.574c4.027-16.902,6.71-31.356,6.647-40.844c-3.708-2.51-8.488-4.13-14.425-4.516       c-0.765-0.051-2.662,0.792-3.403,0.802C221.972,70.245,230.392,82.387,228.836,109.574z"/>
					<g>
						<path style="fill:#DB9171;" d="M223.508,49.467c0,0-2.266-3.539-2.244-9.008c1.862-5.574,3.266-15.649,8.044-17.509        c7.038-2.738,16.452,0.796,20.135,5.916c3.163,4.397,5.242,13.385,4.169,21.842c-1.086,8.555-5.563,15.109-15.203,10.405        c-1.325,3.267-3.431,8.676-3.958,9.849c-1.536,3.429-5.994,8.339-17.232-5.938C217.163,65.424,223.106,51.607,223.508,49.467z        "/>
						<path style="fill-rule:evenodd;clip-rule:evenodd;fill:#C4765B;" d="M238.452,61.151c-3.013-1.264-6.082-5.666-6.082-5.666        s-1.227,6.209,3.884,10.865L238.452,61.151z"/>
						<g>
							<path style="fill-rule:evenodd;clip-rule:evenodd;fill:#E8BD54;" d="M231.608,22.782c-1.974-1.019-3.642-2.22-5.974-2.213         c-5.033,0.012-6.961,5.641-5.016,10.623c-2.543,2.139-4.084,4.915-3.93,10.453c0.106,3.599,2.216,11.912,6.433,11.557         c2.196-0.186,3.359-3.551,3.306-6.144c-0.02-1.014-1.409-1.75-1.56-3.614c-0.169-2.129,0.703-5.054,3.631-4.102         c2.653,0.862-1.749,8.555,2.117,7.827c3.429-0.646,5.697-8.898,5.699-12.936c2.033,1.225,9.57,2.284,13.326,2.563         c4.126,0.309,9.66-1.407,8.508-6.131c-0.512-2.095-2.29-3.236-5.273-3.486c0.468-1.333,0.85-3.107,0.635-4.526         c-0.883-5.778-8.838-5.209-11.869-1.385c-0.356-4.327-6.115-5.451-8.567-2.325C232.225,20.026,232.076,21.281,231.608,22.782         z"/>
							<g>
								<path style="fill-rule:evenodd;clip-rule:evenodd;fill:#FFFFFF;" d="M222.15,25.838c1.752-0.585,3.642-1.009,4.035-3.076          C223.963,21.803,221.073,23.903,222.15,25.838z"/>
								<path style="fill-rule:evenodd;clip-rule:evenodd;fill:#FFFFFF;" d="M222.504,27.587c-1.574,0.117-0.958,3.233,0.297,3.266          C223.99,30.277,223.295,28.165,222.504,27.587z"/>
								<path style="fill-rule:evenodd;clip-rule:evenodd;fill:#FFFFFF;" d="M250.613,34.452c0.204,0.015,0.152,0.274,0.194,0.443          c2.004,0.644,4.371-0.196,4.857-1.956C254.299,31.47,250.952,32.653,250.613,34.452z"/>
								<path style="fill-rule:evenodd;clip-rule:evenodd;fill:#FFFFFF;" d="M245.67,33.369c-0.073,1.199,2.101,1.512,2.785,0.77          C248.591,32.88,246.34,32.637,245.67,33.369z"/>
								<path style="fill-rule:evenodd;clip-rule:evenodd;fill:#FFFFFF;" d="M218.888,45.86c-0.042,1.011,0.187,1.77,1.224,1.789          C220.901,46.759,220.007,45.002,218.888,45.86z"/>
								<path style="fill-rule:evenodd;clip-rule:evenodd;fill:#FFFFFF;" d="M224.025,47.384c-0.215-0.01-0.433-0.019-0.648-0.027          c-0.732,0.95-1.901,3.577-0.402,4.319C224.521,51.253,224.842,48.515,224.025,47.384z"/>
							</g>
						</g>
						<g>
							<g>
								<path style="fill-rule:evenodd;clip-rule:evenodd;fill:#FFFFFF;" d="M237.834,42.666c3.284-3.022,5.95-0.279,5.95-0.279          s-0.862,1.142-2.943,1.334C239.294,43.861,237.834,42.666,237.834,42.666"/>
								<path style="fill-rule:evenodd;clip-rule:evenodd;fill:#2C8952;" d="M243.784,42.386c0,0-1.292-1.339-3.218-1.11          c-0.064,0.141-0.215,0.426-0.24,0.591c-0.083,0.744,0.398,1.441,1.139,1.758C243.096,43.293,243.784,42.386,243.784,42.386"/>
							</g>
							<g>
								<path style="fill-rule:evenodd;clip-rule:evenodd;fill:#FFFFFF;" d="M248.503,42.841c3.04-2.795,5.515-0.256,5.515-0.256          s-0.796,1.059-2.725,1.241C249.861,43.959,248.503,42.841,248.503,42.841"/>
								<path style="fill-rule:evenodd;clip-rule:evenodd;fill:#2C8952;" d="M254.018,42.585c0,0-1.191-1.24-2.976-1.031          c-0.066,0.134-0.207,0.4-0.229,0.553c-0.079,0.689,0.367,1.339,1.062,1.63C253.38,43.427,254.018,42.585,254.018,42.585"/>
							</g>
							<path style="fill:#C4765B;" d="M241.459,46.743c0.649,1.249,0.159,2.787-1.088,3.44c-1.248,0.642-2.785,0.157-3.435-1.094         c-0.646-1.249-0.158-2.788,1.09-3.433C239.27,45.008,240.81,45.491,241.459,46.743"/>
							<path style="fill:#C4765B;" d="M251.49,49.071c0.42,0.807,1.209,1.289,2.057,1.358c0.018-0.105,0.035-0.209,0.046-0.315         c0.2-1.575,0.297-3.172,0.286-4.745c-0.435-0.026-0.886,0.053-1.295,0.265C251.328,46.283,250.846,47.82,251.49,49.071z"/>
							<path style="fill-rule:evenodd;clip-rule:evenodd;fill:#E8BD54;" d="M236.891,40.101l0.627,0.769         c2.363-1.914,5.49-1.121,6.563-0.465l0.517-0.846C242.936,38.539,239.448,38.035,236.891,40.101z"/>
							<path style="fill-rule:evenodd;clip-rule:evenodd;fill:#E8BD54;" d="M247.604,40.435l0.618,0.775         c2.185-1.769,5.073-1.034,6.053-0.432l0.518-0.846C253.244,38.987,249.991,38.511,247.604,40.435z"/>
							<g>
								<path style="fill-rule:evenodd;clip-rule:evenodd;fill:#C4765B;" d="M247.092,43.076c0.593-0.11,2.097,5.376,1.95,5.953          c-0.196,0.721-2.741,1.058-2.928,0.763C245.586,48.954,246.198,43.237,247.092,43.076"/>
								<path style="fill:#C4765B;" d="M250.007,54.236c-2.925,1.431-5.91-0.311-7.438-2.529l0.943-0.645          c1.255,1.829,3.671,3.281,6.003,2.153L250.007,54.236z"/>
							</g>
						</g>
					</g>
					<path style="fill-rule:evenodd;clip-rule:evenodd;fill:#69AF7A;" d="M228.893,96.355c-0.925,0.648-3.165,0.356-4.057-0.537       c-2.686-2.676-0.255-9.165-0.222-13.862c-0.682,1.343-1.704,2.81-3.891,2.344c-2.251-0.478-3.336-7.34-3.805-9.705       c-0.356-1.804-0.644-3.939-0.93-5.442c-0.378-2.024-1.679-6.287,0.732-6.654c2.172-0.334,4.583,5.076,5.44,6.723       C226.302,77.168,229.555,84.97,228.893,96.355z"/>
					<path style="fill-rule:evenodd;clip-rule:evenodd;fill:#69AF7A;" d="M238.351,84.5c1.114-6.222,0.996-13.445-2.097-18.15       c-0.406,1.374-1.756,4.528-1.802,4.612c-0.257,7.94-0.778,16.395-2.719,25.731c1.209,1.121,3.374,0.513,4.011-0.493       c1.031-1.641,0.78-7.579,0.503-10.846C236.997,85.16,238.171,85.508,238.351,84.5z"/>
				</g>
				<path style="fill:#FFFFFF;" d="M218.767,150.522c2.115-0.453,4.101-0.977,5.913-1.562l0.257-16.159L218.767,150.522z"/>
			</g>
			<g>
				<g>
					<path style="fill-rule:evenodd;clip-rule:evenodd;fill:#7C75D1;" d="M99.569,172.264c0,0,27.957,18.549,27.575,20.841       c-0.04,0.24-0.112,0.48-0.22,0.721c-0.57,1.263-1.888,2.667-3.189,4.051c-1.262,1.34-2.747,2.594-4.066,3.811       c-5.78,5.332-10.612,8.952-16.359,14.597c-1.262,1.24-2.679,2.476-4.066,3.625c-1.927,1.603-3.758,3.391-5.587,2.732       c-0.822-0.299-1.719-1.449-2.714-2.387c-0.95-0.908-1.809-1.977-2.569-2.806c-1.846-2.016-3.57-3.896-5.146-5.609       c-3.772-4.108-7.192-7.419-10.882-11.176c-3.488-3.55-7.376-7.112-10.983-10.992c-3.068-3.308-7.849-7.259-9.036-10.975       c-0.938-2.96,1.4-5.575,4.297-8.631c5.669-5.979,11.607-10.748,17.296-16.071c1.361-1.275,2.897-2.785,4.347-4.087       c1.677-1.505,3.471-2.909,4.708-2.787c0.062,0.006,0.158,0.029,0.158,0.029C85.587,149.507,99.569,172.264,99.569,172.264z"/>
					<path style="fill:#A59AE8;" d="M77.798,160.195c-1.978,12.754,7.058,28.946,22.722,34.761c3.88,1.441,9.148,2.003,13.095,1.858       c4.523-0.164,9.15-1.458,13.515-3.712c0.385-2.288-2.167-4.511-4.266-6.778c-1.128-1.213-2.317-2.433-3.123-3.181       c-0.031-0.027-0.057-0.061-0.092-0.09c-9.014-9.178-18.784-18.311-27.569-27.694c-1.336-1.428-2.835-3.07-4.455-4.721       c-1.488-1.513-3.251-3.245-4.493-3.49c-2.523,3.947-4.391,8.172-5.183,12.146C77.89,159.589,77.846,159.894,77.798,160.195z"/>
					<path style="fill:#A59AE8;" d="M105.231,182.506l-14.251-14.505c-2.512-2.557-2.475-6.683,0.085-9.194l4.91-4.824       c2.556-2.51,6.68-2.475,9.187,0.083l14.252,14.504c2.514,2.556,2.477,6.68-0.084,9.192l-4.908,4.822       C111.864,185.097,107.739,185.063,105.231,182.506z M101.138,158.021c-0.329-0.339-0.875-0.34-1.209-0.013l-4.912,4.827       c-0.336,0.331-0.341,0.873-0.009,1.212l14.247,14.504c0.33,0.336,0.875,0.341,1.211,0.01l4.91-4.822       c0.339-0.331,0.345-0.875,0.011-1.213L101.138,158.021z"/>
					<path style="fill:#E8BD54;" d="M94.371,187.36c0.323-0.717-0.229-1.296-0.635-1.714l-0.145-0.159       c-0.202-0.213-0.415-0.431-0.554-0.558c-0.589-0.605-1.202-1.207-1.815-1.809c-0.945-0.932-1.899-1.868-2.787-2.819       l-0.182-0.198c-0.185-0.192-0.374-0.398-0.576-0.603c-0.385-0.39-0.732-0.718-1.127-0.756c-0.407-0.04-0.776,0.214-1.218,0.609       c-0.16,0.143-0.321,0.298-0.486,0.449l-0.255,0.244c-0.325,0.307-0.659,0.602-0.996,0.901       c-0.637,0.562-1.288,1.145-1.921,1.812c-0.501,0.522-1.114,1.173-0.851,2.006c0.162,0.507,0.572,0.971,0.989,1.396l0.488,0.487       c0.057,0.057,0.11,0.112,0.16,0.169c0.376,0.404,0.765,0.786,1.152,1.159c0.24,0.234,0.475,0.465,0.701,0.692l1.02,1.033       c0.259,0.264,0.519,0.531,0.791,0.825l0.976,1.072c0.081,0.094,0.169,0.191,0.259,0.287l0.143,0.136l0.119,0.126       c0.123,0.125,0.273,0.266,0.472,0.339c0.576,0.209,1.051-0.188,1.394-0.477l0.09-0.077c0.297-0.247,0.525-0.447,0.721-0.64       c0.541-0.536,1.033-0.954,1.55-1.4c0.382-0.323,0.763-0.653,1.174-1.031l0.193-0.174c0.176-0.159,0.356-0.323,0.527-0.505       C93.988,187.922,94.239,187.654,94.371,187.36z"/>
					<g>
						<path style="fill-rule:evenodd;clip-rule:evenodd;fill:#FFFFFF;" d="M118.823,195.953c1.974,0.655-1.763,4.144-2.888,3.071        c-1.314-1.262,1.554-3.022,2.69-3.115C118.7,195.902,118.752,195.932,118.823,195.953z"/>
						<path style="fill-rule:evenodd;clip-rule:evenodd;fill:#FFFFFF;" d="M113.616,196.815c1.516,0.745-1.47,3.857-2.477,2.432        C110.378,198.164,112.572,196.301,113.616,196.815z"/>
					</g>
					<g>
						<path style="fill-rule:evenodd;clip-rule:evenodd;fill:#FFFFFF;" d="M65.259,170.32c0.086,1.148-2.881,4.773-4.053,3.685        c-0.947-0.888,1.743-4.024,3.09-4.214C64.644,169.742,64.874,169.821,65.259,170.32z"/>
						<path style="fill-rule:evenodd;clip-rule:evenodd;fill:#FFFFFF;" d="M58.995,171.753c1.404,0.655-0.152,2.406-0.982,1.999        C56.896,173.205,57.76,171.175,58.995,171.753z"/>
						<path style="fill-rule:evenodd;clip-rule:evenodd;fill:#FFFFFF;" d="M60.078,175.705c1.18,0.869-1.209,3.518-2.181,2.586        c-0.411-0.392-0.261-0.777,0.083-1.413C58.491,175.934,59.252,175.097,60.078,175.705z"/>
					</g>
				</g>
				<g>
					<path style="fill-rule:evenodd;clip-rule:evenodd;fill:#DB9171;" d="M116.946,170.446c-1.721-0.058-1.646-3.536-1.442-5.854       c-3.18,3.205-8.468,6.689-12.535,8.194c-1.257,0.463-3.337,1.432-4.09,0.514c-0.987-1.205,1.224-2.774,2.367-3.565       c1.567-1.088,2.67-1.511,3.893-2.622c-0.284-0.128-1.699-0.707-1.802-1.681c-0.077-0.801,0.27-1.17,0.941-1.775       c-0.941-0.671-1.216-0.995-1.191-2.074c0.024-1.283,1.787-2.175,1.787-2.175c-0.273-0.679-0.506-1.829-0.334-2.802       c0.541-3.08,7.09-5.45,10.557-9.972c-3.145,4.099,3.91,8.618,8.029,11.53c-1.464,2.027-2.341,3.53-3.163,5.709       c-0.774,2.038-0.811,4.23-1.547,5.773C118.236,170.022,117.572,170.465,116.946,170.446"/>
					<path style="fill-rule:evenodd;clip-rule:evenodd;fill:#C4765B;" d="M116.493,170.336c-1.576-0.714-2.152-4.893,0.02-7.415       c-0.453,1.111-0.554,3.67-0.005,5.024c0.352,0.854,1.523,1.812,2.271,0.714C118.59,170.266,117.385,170.742,116.493,170.336"/>
					<path style="fill-rule:evenodd;clip-rule:evenodd;fill:#C4765B;" d="M107.009,166.791c-2.739,1.303-5.477-1.29-2.734-3.132       c-0.547-0.17-1.086-0.897-1.165-1.331c-0.268-1.412,0.666-2.407,1.763-2.92c-0.78-1.588-0.655-3.585,0.807-5.504       c1.046-1.358,4.884-2.693,6.273-4.081c0,0-1.055,1.39-1.73,2.061c-2.172,2.169-5.233,4.221-3.271,6.332       c-0.903,0.859-1.446,1.635-1.407,2.536c0.024,0.588,0.396,1.683,1.13,2.196C106.094,164.088,105.413,166.125,107.009,166.791"/>
				</g>
				<g>
					<g>
						<path style="fill-rule:evenodd;clip-rule:evenodd;fill:#69AF7A;" d="M124.768,161.221c-4.847-4.252-9.53-8.675-13.856-13.487        c12.702-14.849,24.362-30.358,42.123-43.95c11.709-8.961,24.268-18.751,37.457-27.493c4.598-3.044,9.932-6.795,15.465-7.229        c6.066-0.478,10.273,4.278,10.28,10.993c0.002,5.574-4.481,10.225-7.677,13.652c-10.247,10.987-25.173,18.992-38.365,26.65        c-9.539,5.541-16.542,12.465-23.467,19.73C139.613,147.559,131.962,154.126,124.768,161.221z"/>
						<path style="fill:#2C8952;" d="M154.695,118.542c-1.339,1.439,2.475,5.66,5.033,9.15c1.341-1.104,2.728-2.182,4.169-3.223        C160.964,121.396,156.016,117.121,154.695,118.542z"/>
					</g>
					<g>
						<path style="fill-rule:evenodd;clip-rule:evenodd;fill:#FFFFFF;" d="M189.816,82.423c0.312-1.723,6.075-5.907,7.376-3.856        c1.059,1.668-4.108,5.245-6.165,5.006C190.5,83.51,190.19,83.308,189.816,82.423z"/>
						<path style="fill-rule:evenodd;clip-rule:evenodd;fill:#FFFFFF;" d="M199.579,82.728c-1.809-1.505,1.154-3.478,2.22-2.558        C203.228,81.403,201.175,84.056,199.579,82.728z"/>
						<path style="fill-rule:evenodd;clip-rule:evenodd;fill:#FFFFFF;" d="M199.511,76.498c-1.402-1.734,3.132-4.708,4.201-2.962        c0.45,0.735,0.083,1.242-0.668,2.045C201.931,76.773,200.491,77.712,199.511,76.498z"/>
					</g>
				</g>
			</g>
		</g>
	</g>
</g>















</svg>
