<?xml version="1.0" encoding="UTF-8"?>
<!-- Generator: Adobe Illustrator 26.1.0, SVG Export Plug-In . SVG Version: 6.00 Build 0)  -->
<svg xmlns="http://www.w3.org/2000/svg" xmlns:xlink="http://www.w3.org/1999/xlink" version="1.1" id="Capa_1" x="0px" y="0px" viewBox="0 0 512 512" style="enable-background:new 0 0 512 512;" xml:space="preserve" width="512" height="512">
<g>
	<path style="fill-rule:evenodd;clip-rule:evenodd;fill:#29AEFD;" d="M439.311,72.451c-3.128-7.623-6.494-15.144-9.714-22.728   c-1.102-2.594-2.208-5.187-3.314-7.779c-0.913-2.139-3.756-0.344-4.668-2.483c-0.908-2.13,0.117-8.195-0.786-10.327   c-2.566-6.058-5.106-12.127-7.581-18.222c-0.656-1.617-1.794-3.308-2.752-4.4C408.486,4.223,73.232,38.564,72.282,40.038   c-0.61,0.946-0.856,1.879-1.06,3.303l-3.209,28.372l5.448,13.441l-7.106,1.222l-5.198,45.964c-0.014,0.223-0.146,0.436-0.224,0.652   c0,1.809,0,3.616,0,5.423c1.101,1.284,2.046,2.756,3.332,3.828c11.565,9.657,22.746,19.743,33.41,30.395   c21.372,21.364,40.246,44.783,57.175,69.797c10.995,16.252,21.178,33.007,30.833,50.085c0.21,0.368,0.361,0.764,0.541,1.147   c0.093,0,0.185,0,0.283,0c13.899-22.736,32.509-39.752,58.51-47.973c-25.08-43.906-52.702-85.906-86.035-124.291   c0,0,47.178-38.237,70.788-41.018c37.409-4.406,111.298,22.326,111.298,22.326c-13.349,22.308-24.027,44.934-34.989,68.214   c-10.966,23.282-20.783,47.043-29.708,71.265c26.405,1.946,47.572,13.914,65.364,33.078c0.624-1.423,1.237-2.679,1.735-3.98   c6.007-15.813,12.744-31.301,20.369-46.403c13.797-27.334,30.404-52.861,49.458-76.813c10.752-13.515,22.142-26.467,34.024-38.996   c1.554-1.636,2.514-3.829,3.746-5.764c0-0.475,0-0.951,0-1.428C447.155,92.069,443.321,82.224,439.311,72.451z"/>
	<path style="fill:#F9D555;" d="M150.992,150.198c-17.041-19.112-35.481-36.97-54.524-54.069   c-9.29-8.344-18.722-16.581-28.451-24.421l-1.661,14.694c24.856,20.511,48.435,42.909,70.241,66.53   c18.449,19.989,36.689,41.696,48.001,66.666c1.408,3.108,5.846,3.832,8.56,2.245c3.167-1.853,3.649-5.454,2.246-8.561   C184.792,189.858,167.99,169.261,150.992,150.198z"/>
	<path style="fill:#F9D555;" d="M406.7,64.979c6.372-7.828,12.837-15.598,19.526-23.169c-1.807-4.234-3.61-8.466-5.408-12.704   c-23.828,26.294-45.828,54.693-65.51,84.171c-15.819,23.69-31.174,49.293-38.75,76.981c-2.134,7.795,9.938,11.1,12.062,3.325   c6.635-24.239,19.711-46.553,33.415-67.782C375.793,104.492,390.852,84.452,406.7,64.979z"/>
	<path style="fill:#7BEFE5;" d="M395.44,2.732c-12.265-0.764-24.529-1.545-36.79-2.296c-2.373-0.143-4.75-0.127-7.123-0.208   c-0.404-0.015-0.809-0.15-1.208-0.228c-12.267,0-24.544,0-36.816,0c-2.109,0.11-4.224,0.222-6.338,0.332   c-11.717,0.619-23.443,1.077-35.145,1.904c-10.903,0.772-21.796,1.715-32.65,2.984c-13.772,1.611-27.555,3.315-41.239,5.54   c-17.105,2.779-34.2,5.749-51.153,9.332c-19.268,4.073-38.38,8.894-57.55,13.44c-0.627,0.149-1.252,0.302-1.877,0.459   c-3.518,0.883,6.463,13.561,39.783,38.829c14.594,11.067,31.952,25.838,51.938,45.559c58.32-7.555,84.632-10.801,144.048-14.816   c3.598-6.39,20.481-25.853,40.64-47.852C379.035,39.26,397.824,2.88,395.44,2.732z"/>
	<path style="fill-rule:evenodd;clip-rule:evenodd;fill:#074785;" d="M179.272,118.378c-12.252-15.313-43.729-51.386-91.978-84.316   c-3.43,0.867-6.835,1.834-10.255,2.745c-2.319,0.619-3.849,1.664-4.789,3.31c4.048,2.092,20.944,16.066,84.208,78.414   c0.974,0.944,1.934,1.883,2.889,2.815C165.987,120.325,172.628,119.339,179.272,118.378z"/>
	<path style="fill-rule:evenodd;clip-rule:evenodd;fill:#074785;" d="M395.582,2.738c-39.875,41.62-63.147,82.874-72.262,100.824   c5.914-0.319,11.824-0.613,17.748-0.851c6.289-11.169,35.412-61.423,69.427-96.199c-1.973-2.055-4.565-3.129-7.902-3.337   C400.255,3.032,397.916,2.884,395.582,2.738z"/>
	<g>
		<path style="fill:#074785;" d="M186.239,37.624c-15.054,1.655-22.834,13.785-21.665,28.01c0.594,7.284,12.179,7.034,11.575-0.28    c-0.658-7.975,1.744-14.394,10.167-16.304c9.241-2.097,14.903,4.041,14.8,12.674c-0.088,7.322,11.493,7.004,11.58-0.288    C212.868,46.554,201.415,35.956,186.239,37.624z"/>
		<path style="fill:#074785;" d="M305.757,23.063c-14.995,2.079-22.41,14.423-20.827,28.619c0.799,7.264,12.364,6.686,11.556-0.607    c-0.886-7.954,1.325-14.442,9.68-16.587c9.178-2.358,15.01,3.631,15.161,12.255c0.127,7.33,11.687,6.69,11.561-0.602    C332.63,31.252,320.875,20.973,305.757,23.063z"/>
		<path style="fill:#074785;" d="M270.394,62.78c-0.019-3.091-1.569-5.936-5.018-6.426c-2.826-0.401-6.509,1.698-6.494,4.795    c0.019,4.456,0,12.205-4.964,14.309c-7.03,2.974-11.429-5.347-12.53-10.685c-1.457-7.152-12.959-5.799-11.488,1.412    c2.45,11.92,10.942,22.35,24.403,20.782C266.428,85.555,270.428,73.129,270.394,62.78z"/>
	</g>
	<path style="fill-rule:evenodd;clip-rule:evenodd;fill:#F1854F;" d="M427.751,329.753c7.775,89.098-58.461,170.148-147.935,181.031   c-89.479,10.881-168.309-52.525-176.084-141.618c-7.771-89.095,58.461-170.147,147.935-181.031   C341.146,177.251,419.98,240.66,427.751,329.753z"/>
	<g>
		<path style="fill-rule:evenodd;clip-rule:evenodd;fill:#F9D555;" d="M411.45,349.458c0,8.286-12.292,15.398-13.675,23.292    c-1.418,8.115,7.678,18.989,4.926,26.557c-2.806,7.703-16.793,10.177-20.841,17.181c-4.092,7.07,0.726,20.417-4.497,26.632    c-5.237,6.235-19.219,3.796-25.455,9.032c-6.221,5.221-6.231,19.421-13.3,23.512c-7.001,4.051-19.302-3.008-27.004-0.201    c-7.571,2.754-12.447,16.091-20.564,17.514c-7.887,1.381-17.012-9.468-25.299-9.468c-8.287,0-17.412,10.849-25.304,9.468    c-8.111-1.423-12.988-14.76-20.559-17.516c-7.702-2.805-20.003,4.254-27.004,0.202c-7.074-4.09-7.084-18.29-13.3-23.511    c-6.236-5.238-20.218-2.798-25.455-9.032c-5.223-6.218-0.405-19.563-4.497-26.632c-4.053-7.004-18.035-9.478-20.841-17.181    c-2.752-7.568,6.343-18.442,4.921-26.557c-1.379-7.893-13.67-15.006-13.67-23.292s12.292-15.398,13.67-23.289    c1.423-8.115-7.673-18.989-4.921-26.559c2.806-7.703,16.788-10.177,20.841-17.183c4.092-7.069-0.726-20.415,4.497-26.633    c5.237-6.235,19.224-3.793,25.455-9.031c6.221-5.222,6.226-19.421,13.3-23.512c7.001-4.051,19.302,3.009,27.004,0.206    c7.571-2.757,12.447-16.096,20.559-17.516c7.892-1.384,17.017,9.466,25.304,9.466c8.287,0,17.411-10.849,25.299-9.466    c8.116,1.42,12.993,14.759,20.564,17.516c7.702,2.804,20.003-4.257,27.004-0.204c7.069,4.089,7.084,18.287,13.3,23.51    c6.236,5.238,20.218,2.796,25.455,9.031c5.222,6.22,0.404,19.564,4.497,26.633c4.053,7.006,18.035,9.479,20.841,17.183    c2.752,7.571-6.343,18.444-4.926,26.559C399.158,334.06,411.45,341.173,411.45,349.458z"/>
		<path style="fill-rule:evenodd;clip-rule:evenodd;fill:#074785;" d="M368.632,316.685c21.416,56.64-16.369,120.507-71.805,136.924    c-54.958,16.258-116.941-14.313-135.371-72.613c-17.339-54.853,14.893-118.1,71.629-136.052    C286.543,228.034,354.368,258.953,368.632,316.685z"/>
		<path style="fill-rule:evenodd;clip-rule:evenodd;fill:#FFA4AC;" d="M353.291,323.05c14.586,48.352-12.788,99.375-61.141,113.96    c-48.352,14.585-99.374-12.787-113.96-61.143c-14.586-48.352,12.788-99.372,61.141-113.958    C287.683,247.323,338.705,274.697,353.291,323.05z"/>
	</g>
	<path style="fill:#FFFFFF;" d="M205.458,345.104c0.258-4.326,24.403-6.984,37.707-10.406   c-5.111-13.064-17.202-34.472-13.617-36.923c3.03-2.072,15.638,10.197,26.02,19.112c3.264-13.771,7.337-32.164,11.151-31.939   c4.316,0.263,8.238,23.718,11.098,37.305c12.993-5.705,34.356-16.378,36.787-12.818c2.144,3.147-10.133,17.063-19.239,27.562   c13.495,3.265,30.872,6.274,30.658,9.931c-0.258,4.344-24.602,6.897-37.848,10.402c5.033,13.068,17.27,34.485,13.69,36.936   c-3.021,2.06-15.458-10.127-25.815-19.008c-3.259,13.76-7.352,32.052-11.166,31.829c-4.311-0.251-8.165-23.646-11.049-37.237   c-12.969,5.7-34.511,16.435-36.962,12.859c-2.153-3.15,10.201-17.072,19.311-27.581   C222.665,351.864,205.244,348.765,205.458,345.104z"/>
	<g>
		<path style="fill-rule:evenodd;clip-rule:evenodd;fill:#FFFFFF;" d="M190.434,379.041c8.75-0.015,7.507-12.977-1.31-13.165    C180.179,365.816,181.552,379.182,190.434,379.041z"/>
		<path style="fill-rule:evenodd;clip-rule:evenodd;fill:#FFFFFF;" d="M248.105,276.183c8.76,2.03,11.171-10.681,2.387-12.916    C241.553,261.129,239.175,274.25,248.105,276.183z"/>
		<path style="fill-rule:evenodd;clip-rule:evenodd;fill:#FFFFFF;" d="M193.727,352.461c1.31-27.043,14.084-56.253,39.87-68.89    c5.91-2.875,0.458-11.99-5.578-9.055c-28.704,14.011-43.49,46.531-44.864,76.629C182.834,357.71,193.396,358.884,193.727,352.461z    "/>
	</g>
	<path style="fill:#074785;" d="M331.997,383.335c-0.716-0.691-2.149-10.373-3.444-10.293c-1.301,0.078-2.441,9.678-3.05,10.311   c-1.218,1.265-10.143,2.164-10.07,3.397c0.073,1.226,8.837,1.806,10.075,3.006c0.692,0.667,2.144,10.374,3.449,10.298   c1.296-0.074,2.412-9.651,3.045-10.303c1.174-1.226,10.172-2.172,10.099-3.407C342.027,385.112,333.185,384.493,331.997,383.335z"/>
	<path style="fill:#074785;" d="M419.561,92.883c-0.711-0.69-2.144-10.371-3.444-10.293c-1.301,0.078-2.436,9.678-3.045,10.311   c-1.218,1.268-10.143,2.165-10.07,3.397c0.073,1.226,8.837,1.806,10.075,3.006c0.692,0.67,2.144,10.375,3.444,10.298   c1.301-0.074,2.416-9.65,3.05-10.303c1.174-1.224,10.167-2.172,10.094-3.407C429.592,94.662,420.755,94.042,419.561,92.883z"/>
	<path style="fill:#FFFFFF;" d="M138.91,173.675c-0.716-0.691-2.148-10.371-3.449-10.292c-1.301,0.079-2.436,9.678-3.045,10.31   c-1.218,1.268-10.143,2.167-10.07,3.399c0.073,1.226,8.837,1.806,10.075,3.005c0.692,0.669,2.144,10.377,3.449,10.299   c1.296-0.076,2.412-9.649,3.045-10.304c1.174-1.225,10.167-2.172,10.094-3.405C148.936,175.455,140.099,174.836,138.91,173.675z"/>
	<path style="fill:#FFFFFF;" d="M233.29,400.045c0,2.696-2.183,4.885-4.881,4.885c-2.699,0-4.886-2.189-4.886-4.885   c0-2.698,2.187-4.886,4.886-4.886C231.108,395.159,233.29,397.347,233.29,400.045z"/>
	<path style="fill:#FFFFFF;" d="M254.127,475.318c0,2.698-2.188,4.886-4.886,4.886c-2.699,0-4.886-2.189-4.886-4.886   c0-2.696,2.188-4.885,4.886-4.885C251.939,470.433,254.127,472.622,254.127,475.318z"/>
	<circle style="fill:#FFFFFF;" cx="164.458" cy="428.539" r="4.886"/>
	<path style="fill:#FFFFFF;" d="M174.23,267.919c0,2.696-2.188,4.884-4.886,4.884c-2.699,0-4.886-2.188-4.886-4.884   c0-2.699,2.187-4.885,4.886-4.885C172.043,263.034,174.23,265.22,174.23,267.919z"/>
	<circle style="fill:#FFFFFF;" cx="242.478" cy="224.123" r="4.886"/>
	<path style="fill:#FFFFFF;" d="M364.608,266.746c0,2.699-2.188,4.886-4.886,4.886s-4.886-2.188-4.886-4.886   c0-2.698,2.188-4.883,4.886-4.883S364.608,264.048,364.608,266.746z"/>
	<path style="fill:#FFFFFF;" d="M391.977,315.328c0,2.699-2.187,4.885-4.886,4.885c-2.699,0-4.886-2.186-4.886-4.885   c0-2.696,2.187-4.885,4.886-4.885C389.79,310.443,391.977,312.632,391.977,315.328z"/>
	<path style="fill:#FFFFFF;" d="M364.608,430.979c0,2.696-2.188,4.885-4.886,4.885s-4.886-2.189-4.886-4.885   c0-2.697,2.188-4.885,4.886-4.885S364.608,428.282,364.608,430.979z"/>
	<path style="fill:#FFFFFF;" d="M283.737,415.768c0,2.697-2.183,4.885-4.881,4.885c-2.699,0-4.886-2.189-4.886-4.885   c0-2.699,2.187-4.888,4.886-4.888C281.555,410.88,283.737,413.069,283.737,415.768z"/>
	<path style="fill:#FFFFFF;" d="M335.797,325.1c0,2.698-2.183,4.885-4.886,4.885c-2.699,0-4.881-2.188-4.881-4.885   c0-2.699,2.183-4.886,4.881-4.886C333.614,320.213,335.797,322.401,335.797,325.1z"/>
	<path style="fill:#FFFFFF;" d="M304.384,287.079c0,2.698-2.183,4.886-4.886,4.886c-2.694,0-4.882-2.189-4.882-4.886   c0-2.696,2.188-4.885,4.882-4.885C302.201,282.194,304.384,284.383,304.384,287.079z"/>
	<path style="fill:#FFFFFF;" d="M124.918,381.199c0,2.699-2.187,4.884-4.886,4.884c-2.699,0-4.886-2.185-4.886-4.884   c0-2.699,2.187-4.885,4.886-4.885C122.731,376.314,124.918,378.5,124.918,381.199z"/>
	<path style="fill:#FFFFFF;" d="M325.205,211.284c0,2.697-2.188,4.885-4.886,4.885c-2.699,0-4.886-2.189-4.886-4.885   c0-2.699,2.188-4.888,4.886-4.888C323.018,206.396,325.205,208.585,325.205,211.284z"/>
	<path style="fill:#FFFFFF;" d="M391.977,132.297c0,2.697-2.187,4.885-4.886,4.885c-2.699,0-4.886-2.189-4.886-4.885   c0-2.699,2.187-4.888,4.886-4.888C389.79,127.409,391.977,129.598,391.977,132.297z"/>
	<path style="fill:#FFFFFF;" d="M391.977,54.212c0,2.698-2.187,4.885-4.886,4.885c-2.699,0-4.886-2.187-4.886-4.885   c0-2.699,2.187-4.884,4.886-4.884C389.79,49.328,391.977,51.513,391.977,54.212z"/>
	<path style="fill:#FFFFFF;" d="M356.721,29.106c0,2.698-2.188,4.884-4.886,4.884c-2.694,0-4.886-2.186-4.886-4.884   s2.192-4.885,4.886-4.885C354.533,24.221,356.721,26.409,356.721,29.106z"/>
	<path style="fill:#FFFFFF;" d="M309.27,77.704c0,2.699-2.187,4.884-4.886,4.884c-2.699,0-4.886-2.185-4.886-4.884   c0-2.697,2.187-4.884,4.886-4.884C307.083,72.82,309.27,75.008,309.27,77.704z"/>
	<path style="fill:#FFFFFF;" d="M249.24,33.99c0,2.699-2.187,4.886-4.886,4.886c-2.699,0-4.886-2.188-4.886-4.886   c0-2.697,2.188-4.884,4.886-4.884C247.053,29.106,249.24,31.294,249.24,33.99z"/>
	<path style="fill:#FFFFFF;" d="M201.034,93.956c0,2.699-2.187,4.886-4.886,4.886c-2.699,0-4.886-2.188-4.886-4.886   c0-2.696,2.187-4.885,4.886-4.885C198.847,89.071,201.034,91.26,201.034,93.956z"/>
	<ellipse style="fill:#FFFFFF;" cx="93.662" cy="77.704" rx="4.886" ry="4.884"/>
	<path style="fill:#FFFFFF;" d="M86.032,122.524c0,2.7-2.188,4.885-4.886,4.885c-2.694,0-4.886-2.185-4.886-4.885   c0-2.696,2.192-4.884,4.886-4.884C83.845,117.64,86.032,119.828,86.032,122.524z"/>
	<path style="fill:#FFFFFF;" d="M107.994,156.942c0,2.699-2.183,4.886-4.882,4.886c-2.699,0-4.886-2.188-4.886-4.886   c0-2.697,2.188-4.884,4.886-4.884C105.812,152.058,107.994,154.245,107.994,156.942z"/>
	<path style="fill:#FFFFFF;" d="M161.651,205.802c0,2.696-2.183,4.885-4.886,4.885c-2.694,0-4.881-2.189-4.881-4.885   c0-2.698,2.187-4.886,4.881-4.886C159.469,200.916,161.651,203.104,161.651,205.802z"/>
	<circle style="fill:#FFFFFF;" cx="191.262" cy="182.559" r="4.886"/>
	<path style="fill:#FFFFFF;" d="M145.448,346.018c0,2.698-2.183,4.886-4.881,4.886c-2.699,0-4.886-2.189-4.886-4.886   c0-2.696,2.187-4.885,4.886-4.885C143.266,341.133,145.448,343.321,145.448,346.018z"/>
	<circle style="fill:#FFFFFF;" cx="411.45" cy="315.328" r="4.886"/>
	<path style="fill:#FFFFFF;" d="M399.782,423.651c0,2.699-2.187,4.887-4.886,4.887c-2.699,0-4.886-2.189-4.886-4.887   c0-2.695,2.187-4.884,4.886-4.884C397.595,418.767,399.782,420.956,399.782,423.651z"/>
	<path style="fill:#FFFFFF;" d="M219.416,493.1c0,2.699-2.188,4.884-4.886,4.884c-2.699,0-4.886-2.185-4.886-4.884   c0-2.699,2.188-4.886,4.886-4.886C217.228,488.214,219.416,490.401,219.416,493.1z"/>
	<path style="fill:#FFFFFF;" d="M367.604,174.675c0,4.355-3.527,7.884-7.882,7.884s-7.887-3.528-7.887-7.884   s3.532-7.883,7.887-7.883S367.604,170.32,367.604,174.675z"/>
</g>















</svg>
