<svg id="Layer_1" enable-background="new 0 0 497 497" height="512" viewBox="0 0 497 497" width="512" xmlns="http://www.w3.org/2000/svg"><g><g><g fill="#fff6e0"><path d="m136.783 283.674h-117.421v-50.914c0-15.722 12.745-28.467 28.467-28.467h60.488c15.722 0 28.467 12.745 28.467 28.467v50.914z"/><path d="m477.638 283.674h-117.421v-50.914c0-15.722 12.745-28.467 28.467-28.467h60.488c15.722 0 28.467 12.745 28.467 28.467v50.914z"/></g><g><g><g><g><path d="m176.631 249.285h-124.079v-46.838c0-26.128 21.181-47.308 47.308-47.308h29.463c26.128 0 47.308 21.181 47.308 47.308z" fill="#8affb3"/><path d="m114.633 170.905h-.083c-21.148 0-38.292-17.144-38.292-38.292v-32.565c0-21.148 17.144-38.292 38.292-38.292h.083c21.148 0 38.292 17.144 38.292 38.292v32.565c0 21.149-17.144 38.292-38.292 38.292z" fill="#ffcab9"/><path d="m114.633 61.757h-.083c-7.313 0-14.146 2.052-19.958 5.609 10.995 6.729 18.333 18.848 18.333 32.682v32.565c0 13.835-7.338 25.953-18.333 32.682 5.812 3.557 12.645 5.609 19.958 5.609h.083c21.148 0 38.292-17.144 38.292-38.292v-32.565c0-21.146-17.144-38.29-38.292-38.29z" fill="#fabba7"/></g></g><path d="m76.258 116.331v-16.202c0-21.192 17.162-38.372 38.333-38.372 21.171 0 38.333 17.18 38.333 38.372z" fill="#828cb3"/><path d="m112.925 100.129v8.453l40-8.453c0-21.193-17.162-38.372-38.333-38.372-7.33 0-14.177 2.062-20 5.634 10.996 6.745 18.333 18.883 18.333 32.738z" fill="#717eb3"/></g><g><path d="m426.177 182.508c-12.954 0-23.456-10.502-23.456-23.456v-84.482c0-12.954 10.502-23.456 23.456-23.456 12.954 0 23.456 10.502 23.456 23.456v84.483c0 12.954-10.501 23.455-23.456 23.455z" fill="#828cb3"/><g><g><g><path d="m444.448 249.285h-124.079v-46.838c0-26.128 21.181-47.308 47.308-47.308h29.463c26.128 0 47.308 21.181 47.308 47.308z" fill="#ffea00"/><path d="m420.742 100.048v32.565c0 21.148-17.144 38.292-38.292 38.292h-.083c-21.148 0-38.292-17.144-38.292-38.292v-32.565z" fill="#ffcab9"/><path d="m380.742 100.048v32.565c0 13.835-7.338 25.953-18.333 32.682 5.812 3.557 12.645 5.609 19.958 5.609h.083c21.148 0 38.292-17.144 38.292-38.292v-32.565h-40z" fill="#fabba7"/></g></g><path d="m344.075 116.331v-16.202c0-21.192 17.162-38.372 38.333-38.372 21.171 0 38.333 17.18 38.333 38.372z" fill="#828cb3"/><path d="m380.742 100.129v8.453l40-8.453c0-21.193-17.162-38.372-38.333-38.372-7.33 0-14.177 2.062-20 5.634 10.995 6.745 18.333 18.883 18.333 32.738z" fill="#717eb3"/></g></g></g><ellipse cx="248.5" cy="316.453" fill="#cc8b66" rx="248.5" ry="107.531"/><g><g><g><g><g><path d="m176.631 451.116-124.079 45.884v-88.715c0-26.128 21.181-47.308 47.308-47.308h29.463c26.128 0 47.308 21.181 47.308 47.308z" fill="#ff59ac"/><path d="m114.633 423.544h-.083c-21.148 0-38.292-17.144-38.292-38.292v-79.366c0-21.148 17.144-38.292 38.292-38.292h.083c21.148 0 38.292 17.144 38.292 38.292v79.366c0 21.148-17.144 38.292-38.292 38.292z" fill="#828cb3"/><path d="m114.633 267.595h-.083c-7.313 0-14.146 2.052-19.958 5.609 10.995 6.729 18.333 18.848 18.333 32.682v79.366c0 13.835-7.338 25.953-18.333 32.682 5.812 3.557 12.645 5.609 19.958 5.609h.083c21.148 0 38.292-17.144 38.292-38.292v-79.366c0-21.147-17.144-38.29-38.292-38.29z" fill="#717eb3"/></g></g></g><g><g><g><path d="m444.448 408.285c0-26.128-21.181-47.308-47.308-47.308h-29.463c-26.128 0-47.308 21.181-47.308 47.308v59.23h124.079z" fill="#87dbff"/><path d="m382.45 376.743h-.083c-21.148 0-38.292-17.144-38.292-38.292v-32.565c0-21.148 17.144-38.292 38.292-38.292h.083c21.148 0 38.292 17.144 38.292 38.292v32.565c0 21.148-17.144 38.292-38.292 38.292z" fill="#828cb3"/><path d="m382.45 267.595h-.083c-7.313 0-14.146 2.052-19.958 5.609 10.995 6.729 18.333 18.848 18.333 32.682v32.565c0 13.835-7.338 25.953-18.333 32.682 5.812 3.557 12.645 5.609 19.958 5.609h.083c21.148 0 38.292-17.144 38.292-38.292v-32.565c0-21.147-17.144-38.29-38.292-38.29z" fill="#717eb3"/></g></g></g></g><g><path d="m136.783 497h-98.701c-10.339 0-18.72-8.381-18.72-18.72v-39.682c0-15.722 12.745-28.467 28.467-28.467h60.488c15.722 0 28.467 12.745 28.467 28.467v58.402z" fill="#fff6e0"/><path d="m108.316 410.131h-40c15.722 0 28.467 12.745 28.467 28.467v58.402h40v-58.402c0-15.722-12.745-28.467-28.467-28.467z" fill="#fff0cc"/><g><path d="m136.485 461.936 40.146-25.054c9.757-6.384 22.703.616 22.703 12.276 0 4.95-2.496 9.566-6.638 12.276l-56.211 35.566z" fill="#fff6e0"/></g><g><path d="m360.217 461.936-40.146-25.054c-9.757-6.384-22.703.616-22.703 12.276 0 4.95 2.496 9.566 6.638 12.276l56.211 35.566z" fill="#fff6e0"/></g><path d="m458.918 497h-98.701v-58.402c0-15.722 12.745-28.467 28.467-28.467h60.488c15.722 0 28.467 12.745 28.467 28.467v39.682c-.001 10.339-8.382 18.72-18.721 18.72z" fill="#fff6e0"/><path d="m449.172 410.131h-40c15.722 0 28.467 12.745 28.467 28.467v39.682c0 10.339-8.381 18.72-18.72 18.72h40c10.339 0 18.72-8.381 18.72-18.72v-39.682c-.001-15.722-12.746-28.467-28.467-28.467z" fill="#fff0cc"/></g></g></g><g><g><g><path d="m318.543 306.798c0-25.997-21.075-47.073-47.073-47.073-25.997 0-47.073 21.075-47.073 47.073 0 25.997 21.075 47.073 47.073 47.073 3.19 0 6.306-.321 9.318-.926l21.736 12.74v-23.525c9.816-8.628 16.019-21.267 16.019-35.362z" fill="#fff6e0"/></g></g><g><g><path d="m249.1 315c9.652 0 9.668-15 0-15-9.651 0-9.667 15 0 15z" fill="#828cb3"/></g><g><path d="m271.47 315c9.652 0 9.668-15 0-15-9.651 0-9.667 15 0 15z" fill="#828cb3"/></g><g><path d="m293.84 315c9.652 0 9.668-15 0-15-9.651 0-9.667 15 0 15z" fill="#828cb3"/></g></g></g><g><g><g><g><path d="m176.884 109.471c0-25.997 21.075-47.073 47.073-47.073 25.997 0 47.073 21.075 47.073 47.073 0 25.997-21.075 47.073-47.073 47.073-3.19 0-6.306-.321-9.318-.926l-21.736 12.74v-23.525c-9.815-8.628-16.019-21.267-16.019-35.362z" fill="#fff6e0"/></g></g><g><g><path d="m201.587 117.673c9.652 0 9.668-15 0-15-9.652 0-9.668 15 0 15z" fill="#828cb3"/></g><g><path d="m223.957 117.673c9.652 0 9.668-15 0-15-9.652 0-9.668 15 0 15z" fill="#828cb3"/></g><g><path d="m246.327 117.673c9.652 0 9.668-15 0-15-9.652 0-9.668 15 0 15z" fill="#828cb3"/></g></g></g><g><g><path d="m334.116 47.073c0-25.998-21.076-47.073-47.073-47.073s-47.073 21.075-47.073 47.073c0 25.997 21.075 47.073 47.073 47.073 3.19 0 6.306-.321 9.318-.926l21.736 12.74v-23.526c9.815-8.627 16.019-21.266 16.019-35.361z" fill="#ff59ac"/></g><path d="m297.649 47.336 6.956-6.956c2.929-2.929 2.929-7.678 0-10.606-2.929-2.929-7.678-2.929-10.606 0l-6.956 6.956-6.956-6.956c-2.928-2.929-7.677-2.929-10.606 0s-2.929 7.678 0 10.606l6.956 6.956-6.956 6.956c-2.929 2.929-2.929 7.678 0 10.606 1.464 1.464 3.384 2.197 5.303 2.197s3.839-.732 5.303-2.197l6.956-6.956 6.956 6.956c1.464 1.465 3.384 2.197 5.303 2.197s3.839-.732 5.303-2.197c2.929-2.929 2.929-7.678 0-10.606z" fill="#fff"/></g></g></g></svg>