<?xml version="1.0" encoding="UTF-8" standalone="no"?>
<svg
   xmlns:dc="http://purl.org/dc/elements/1.1/"
   xmlns:cc="http://creativecommons.org/ns#"
   xmlns:rdf="http://www.w3.org/1999/02/22-rdf-syntax-ns#"
   xmlns:svg="http://www.w3.org/2000/svg"
   xmlns="http://www.w3.org/2000/svg"
   xmlns:sodipodi="http://sodipodi.sourceforge.net/DTD/sodipodi-0.dtd"
   xmlns:inkscape="http://www.inkscape.org/namespaces/inkscape"
   version="1.1"
   id="Capa_1"
   x="0px"
   y="0px"
   viewBox="0 0 512 512"
   style="enable-background:new 0 0 512 512;"
   xml:space="preserve"
   width="512"
   height="512"
   sodipodi:docname="price-tag.svg"
   inkscape:version="1.0.2 (1.0.2+r75+1)"><metadata
   id="metadata169"><rdf:RDF><cc:Work
       rdf:about=""><dc:format>image/svg+xml</dc:format><dc:type
         rdf:resource="http://purl.org/dc/dcmitype/StillImage" /></cc:Work></rdf:RDF></metadata><defs
   id="defs167" /><sodipodi:namedview
   pagecolor="#ffffff"
   bordercolor="#666666"
   borderopacity="1"
   objecttolerance="10"
   gridtolerance="10"
   guidetolerance="10"
   inkscape:pageopacity="0"
   inkscape:pageshadow="2"
   inkscape:window-width="1920"
   inkscape:window-height="1043"
   id="namedview165"
   showgrid="false"
   inkscape:snap-text-baseline="false"
   inkscape:zoom="1.5742188"
   inkscape:cx="256"
   inkscape:cy="256"
   inkscape:window-x="0"
   inkscape:window-y="0"
   inkscape:window-maximized="1"
   inkscape:current-layer="g590"
   inkscape:document-rotation="0" />
<g
   id="g162">
	<path
   style="fill:#ff6c6c"
   d="M 95.161,512 C 70.633,512 50.678,492.045 50.678,467.516 V 205.322 C 50.678,92.107 142.785,0 255.999,0 369.214,0 461.322,92.107 461.322,205.322 v 262.194 c 0,24.529 -19.956,44.484 -44.484,44.484 z"
   id="path2" />
	<path
   style="fill:#ffffff"
   d="M 416.839,503.021 H 95.16 c -19.578,0 -35.504,-15.928 -35.504,-35.504 V 205.322 C 59.656,97.058 147.736,8.978 256,8.978 c 108.264,0 196.344,88.08 196.344,196.344 v 262.195 c -10e-4,19.577 -15.927,35.504 -35.505,35.504 z M 256,11.544 c -106.85,0 -193.778,86.929 -193.778,193.778 v 262.195 c 0,18.162 14.777,32.939 32.939,32.939 H 416.84 c 18.162,0 32.939,-14.777 32.939,-32.939 V 205.322 C 449.778,98.472 362.849,11.544 256,11.544 Z"
   id="path4" />
	<path
   style="fill:#ffffff"
   d="m 427.976,361.523 v 96.459 c 0,11.411 -9.25,20.661 -20.661,20.661 h -302.63 c -11.411,0 -20.661,-9.25 -20.661,-20.661 v -96.459 c 0,-11.411 9.25,-20.661 20.661,-20.661 h 302.63 c 11.411,10e-4 20.661,9.251 20.661,20.661 z"
   id="path6" />
	<g
   id="g50">
		<g
   id="g22">
			<g
   id="g10">
				<path
   style="fill:#fd4242"
   d="m 183.716,181.37 c -11.857,0 -23.717,-5.62 -31.889,-15.16 -7.519,-8.777 -11.792,-20.497 -12.031,-33.003 -0.204,-10.781 2.607,-22.186 8.129,-32.983 6.493,-12.692 17.921,-22.945 26.851,-29.58 2.882,-2.86 6.293,-5.202 10.053,-6.813 9.258,-3.969 20.166,-3.471 29.184,1.337 7.751,4.129 13.959,11.317 17.68,20.271 1.923,-2.778 3.771,-5.622 5.595,-8.428 2.317,-3.562 7.083,-4.575 10.647,-2.26 3.563,2.317 4.575,7.083 2.259,10.647 -4.385,6.748 -8.901,13.693 -14.506,19.996 0.203,7.11 -0.647,13.689 -1.46,18.687 -2.527,15.557 -6.845,27.2 -13.588,36.64 -8.993,12.59 -22.451,20.304 -36,20.637 -0.308,0.009 -0.616,0.012 -0.924,0.012 z m -17.704,-81.061 c -1.75,2.334 -3.222,4.653 -4.384,6.925 -4.371,8.547 -6.6,17.427 -6.443,25.681 0.17,8.941 3.129,17.209 8.331,23.282 5.324,6.214 13.266,9.933 20.745,9.775 8.61,-0.212 17.75,-5.652 23.854,-14.197 5.317,-7.444 8.788,-17.029 10.922,-30.163 0.155,-0.956 0.296,-1.891 0.424,-2.808 -4.325,2.438 -8.795,4.147 -13.3,5.069 -11.981,2.445 -24.262,-0.927 -32.073,-8.803 -4.035,-4.069 -6.796,-9.23 -8.076,-14.761 z m 18.93,-18.034 c -1.954,2.159 -3.377,4.78 -3.987,7.528 -1.141,5.127 0.454,10.791 4.062,14.43 4.132,4.167 11.227,5.957 18.061,4.559 6.774,-1.384 12.537,-5.376 16.684,-9.134 -0.18,-1.154 -0.402,-2.272 -0.667,-3.359 -1.928,-7.905 -6.534,-14.465 -12.319,-17.546 -4.862,-2.592 -10.947,-2.888 -15.884,-0.774 -1.463,0.627 -2.836,1.479 -4.073,2.501 -0.456,0.615 -1.013,1.171 -1.667,1.643 -0.071,0.052 -0.14,0.102 -0.21,0.152 z"
   id="path8" />
			</g>
			<g
   id="g20">
				<g
   id="g14">
					<path
   style="fill:#ffbc00"
   d="m 178.588,176.238 c -11.86,0 -23.721,-5.622 -31.894,-15.159 -7.521,-8.778 -11.794,-20.5 -12.031,-33.007 -0.204,-10.781 2.607,-22.186 8.128,-32.98 6.495,-12.696 17.923,-22.948 26.855,-29.582 2.881,-2.86 6.29,-5.201 10.048,-6.812 9.258,-3.968 20.167,-3.466 29.184,1.335 7.752,4.131 13.96,11.32 17.681,20.273 1.924,-2.778 3.771,-5.623 5.595,-8.43 2.314,-3.563 7.078,-4.578 10.647,-2.259 3.564,2.316 4.576,7.082 2.26,10.647 -4.383,6.744 -8.895,13.688 -14.506,19.996 0.203,7.11 -0.646,13.688 -1.459,18.686 -2.529,15.561 -6.847,27.203 -13.588,36.643 -8.992,12.589 -22.45,20.303 -35.999,20.638 -0.307,0.007 -0.614,0.011 -0.921,0.011 z m -17.71,-81.062 c -1.75,2.332 -3.222,4.653 -4.384,6.926 -4.371,8.545 -6.599,17.424 -6.442,25.68 0.169,8.942 3.128,17.21 8.329,23.282 5.325,6.214 13.235,9.954 20.748,9.776 8.61,-0.213 17.75,-5.653 23.853,-14.197 5.316,-7.443 8.786,-17.028 10.922,-30.166 0.155,-0.955 0.296,-1.891 0.423,-2.807 -4.325,2.438 -8.797,4.149 -13.302,5.069 -11.973,2.444 -24.264,-0.926 -32.072,-8.803 -4.034,-4.069 -6.795,-9.227 -8.075,-14.76 z m 18.931,-18.035 c -1.954,2.159 -3.377,4.781 -3.99,7.53 -1.139,5.126 0.456,10.79 4.063,14.427 4.131,4.168 11.223,5.959 18.06,4.56 6.774,-1.383 12.537,-5.375 16.686,-9.134 -0.179,-1.154 -0.402,-2.272 -0.666,-3.358 -1.929,-7.905 -6.535,-14.465 -12.32,-17.549 -4.862,-2.59 -10.951,-2.886 -15.884,-0.773 -1.462,0.627 -2.835,1.479 -4.072,2.501 -0.457,0.615 -1.015,1.171 -1.668,1.645 -0.069,0.051 -0.138,0.101 -0.209,0.151 z"
   id="path12" />
				</g>
				<g
   id="g18">
					<path
   style="fill:#ffffff"
   d="m 173.449,171.103 c -11.857,0 -23.717,-5.62 -31.889,-15.16 -7.519,-8.777 -11.792,-20.497 -12.031,-33.003 -0.204,-10.781 2.607,-22.186 8.129,-32.983 6.493,-12.692 17.921,-22.945 26.851,-29.58 2.882,-2.86 6.293,-5.202 10.053,-6.813 9.258,-3.969 20.166,-3.471 29.184,1.337 7.751,4.129 13.959,11.317 17.68,20.271 1.923,-2.778 3.771,-5.622 5.595,-8.428 2.317,-3.562 7.083,-4.575 10.647,-2.26 3.563,2.317 4.575,7.083 2.259,10.647 -4.385,6.748 -8.901,13.693 -14.506,19.996 0.203,7.11 -0.647,13.689 -1.46,18.687 -2.527,15.557 -6.845,27.2 -13.588,36.64 -8.993,12.59 -22.451,20.304 -36,20.637 -0.308,0.008 -0.616,0.012 -0.924,0.012 z M 155.745,90.042 c -1.75,2.334 -3.222,4.653 -4.384,6.925 -4.371,8.547 -6.6,17.427 -6.443,25.681 0.17,8.941 3.129,17.209 8.331,23.282 5.324,6.214 13.266,9.933 20.745,9.775 8.61,-0.212 17.75,-5.652 23.854,-14.197 5.317,-7.444 8.788,-17.029 10.922,-30.163 0.155,-0.956 0.296,-1.891 0.424,-2.808 -4.325,2.438 -8.795,4.147 -13.3,5.069 -11.981,2.445 -24.262,-0.927 -32.073,-8.803 -4.035,-4.069 -6.796,-9.23 -8.076,-14.761 z m 18.93,-18.034 c -1.954,2.159 -3.377,4.78 -3.987,7.528 -1.141,5.127 0.454,10.791 4.062,14.43 4.132,4.167 11.227,5.957 18.061,4.559 6.774,-1.384 12.537,-5.376 16.684,-9.134 -0.18,-1.154 -0.402,-2.272 -0.667,-3.359 -1.928,-7.905 -6.533,-14.465 -12.319,-17.546 -4.862,-2.592 -10.947,-2.888 -15.884,-0.774 -1.463,0.627 -2.836,1.479 -4.073,2.501 -0.456,0.615 -1.013,1.171 -1.667,1.643 -0.071,0.052 -0.14,0.102 -0.21,0.152 z"
   id="path16" />
				</g>
			</g>
		</g>
		<g
   id="g38">
			<g
   id="g26">
				<path
   style="fill:#fd4242"
   d="m 263.104,176.498 c -6.154,0.001 -12.258,-3.615 -15.825,-9.473 -2.939,-4.822 -3.794,-10.172 -4.244,-14.769 -1.34,-13.718 0.064,-27.939 4.06,-41.125 1.233,-4.067 5.525,-6.372 9.597,-5.133 4.067,1.232 6.366,5.529 5.133,9.597 -3.417,11.274 -4.617,23.433 -3.471,35.163 0.279,2.863 0.745,6.084 2.07,8.261 0.828,1.362 2.143,2.142 2.693,2.087 0.382,-0.031 1.27,-0.466 2.159,-1.541 1.197,-1.449 2.146,-3.581 3.093,-5.822 5.673,-13.442 10.06,-27.497 13.043,-41.771 0.799,-3.834 4.334,-6.456 8.251,-6.089 3.898,0.365 6.902,3.599 6.977,7.513 0.348,18.026 -0.006,36.298 -1.054,54.31 -0.247,4.245 -3.905,7.479 -8.13,7.236 -4.242,-0.247 -7.483,-3.887 -7.236,-8.13 0.045,-0.777 0.09,-1.557 0.133,-2.335 -0.885,1.674 -1.919,3.328 -3.214,4.896 -3.453,4.175 -7.991,6.686 -12.78,7.073 -0.417,0.036 -0.836,0.052 -1.255,0.052 z"
   id="path24" />
			</g>
			<g
   id="g36">
				<g
   id="g30">
					<path
   style="fill:#ffbc00"
   d="m 257.974,171.365 c -6.154,0.001 -12.258,-3.613 -15.826,-9.471 -2.94,-4.823 -3.795,-10.175 -4.245,-14.773 -1.34,-13.712 0.063,-27.932 4.058,-41.123 1.233,-4.07 5.526,-6.368 9.596,-5.134 4.069,1.233 6.367,5.529 5.134,9.596 -3.416,11.279 -4.616,23.439 -3.47,35.163 0.281,2.866 0.745,6.089 2.069,8.263 0.83,1.36 2.12,2.118 2.694,2.087 0.379,-0.031 1.27,-0.467 2.157,-1.54 1.201,-1.452 2.148,-3.581 3.093,-5.818 5.673,-13.444 10.062,-27.499 13.045,-41.777 0.799,-3.833 4.334,-6.453 8.251,-6.087 3.898,0.365 6.902,3.599 6.977,7.514 0.347,18.042 -0.007,36.315 -1.053,54.309 -0.247,4.245 -3.907,7.479 -8.13,7.236 -4.242,-0.247 -7.483,-3.887 -7.236,-8.13 0.045,-0.778 0.089,-1.555 0.131,-2.334 -0.882,1.672 -1.918,3.327 -3.215,4.896 -3.447,4.171 -7.985,6.684 -12.774,7.073 -0.418,0.034 -0.838,0.05 -1.256,0.05 z"
   id="path28" />
				</g>
				<g
   id="g34">
					<path
   style="fill:#ffffff"
   d="m 252.837,166.231 c -6.154,0.001 -12.258,-3.615 -15.825,-9.473 -2.939,-4.822 -3.794,-10.172 -4.244,-14.769 -1.34,-13.718 0.064,-27.939 4.06,-41.125 1.233,-4.067 5.525,-6.372 9.597,-5.133 4.067,1.232 6.366,5.529 5.133,9.597 -3.417,11.274 -4.617,23.433 -3.471,35.163 0.279,2.863 0.745,6.084 2.07,8.261 0.828,1.362 2.143,2.142 2.693,2.087 0.382,-0.031 1.27,-0.466 2.159,-1.541 1.197,-1.449 2.146,-3.581 3.093,-5.822 5.673,-13.442 10.06,-27.497 13.043,-41.771 0.799,-3.834 4.334,-6.456 8.251,-6.089 3.898,0.365 6.902,3.599 6.977,7.513 0.348,18.026 -0.006,36.298 -1.054,54.31 -0.247,4.245 -3.905,7.479 -8.13,7.236 -4.242,-0.247 -7.483,-3.887 -7.236,-8.13 0.045,-0.777 0.09,-1.557 0.133,-2.335 -0.884,1.674 -1.919,3.328 -3.214,4.896 -3.453,4.175 -7.991,6.686 -12.78,7.073 -0.417,0.035 -0.837,0.052 -1.255,0.052 z"
   id="path32" />
				</g>
			</g>
		</g>
		<g
   id="g48">
			<path
   style="fill:#fd4242"
   d="m 395.804,169.999 c -1.308,-4.045 -5.654,-6.265 -9.689,-4.956 -11.277,3.639 -23.731,-1.651 -31.637,-7.812 -6.97,-5.436 -12.688,-12.545 -17.943,-20.034 7.029,-1.873 13.256,-4.905 18.378,-8.991 10.03,-8.003 15.539,-20.178 14.376,-31.777 -1.296,-12.923 -10.747,-24.796 -24.665,-30.986 -11.185,-4.975 -23.877,-6.029 -35.733,-2.969 -11.855,3.061 -22.448,10.127 -29.829,19.897 -2.561,3.392 -1.889,8.217 1.503,10.78 3.389,2.56 8.219,1.888 10.78,-1.503 5.292,-7.007 12.89,-12.075 21.395,-14.27 8.5,-2.195 17.604,-1.441 25.629,2.129 8.745,3.889 14.87,11.135 15.606,18.459 0.636,6.356 -2.763,13.502 -8.662,18.209 -5.636,4.496 -12.571,6.445 -18.381,7.266 l 1.887,-18.116 c 0.44,-4.228 -2.63,-8.012 -6.858,-8.451 -4.234,-0.425 -8.012,2.632 -8.451,6.858 l -7.048,67.672 c -0.441,4.227 2.629,8.011 6.856,8.452 0.272,0.027 0.54,0.041 0.807,0.041 3.893,0 7.234,-2.942 7.646,-6.898 l 2.729,-26.198 c 5.738,8.094 12.295,16.157 20.514,22.567 10.282,8.018 22.052,12.261 33.227,12.261 4.331,0 8.575,-0.639 12.606,-1.941 4.045,-1.306 6.265,-5.644 4.957,-9.689 z"
   id="path40" />
			<g
   id="g46">
				<path
   style="fill:#ffbc00"
   d="m 390.672,164.865 c -1.306,-4.045 -5.653,-6.269 -9.689,-4.956 -11.274,3.636 -23.732,-1.648 -31.636,-7.813 -6.971,-5.435 -12.687,-12.543 -17.943,-20.033 7.029,-1.871 13.257,-4.905 18.378,-8.991 10.032,-8.004 15.54,-20.179 14.375,-31.775 -1.297,-12.922 -10.747,-24.795 -24.663,-30.986 -11.19,-4.975 -23.878,-6.035 -35.733,-2.97 -11.856,3.061 -22.45,10.127 -29.83,19.898 -2.561,3.392 -1.889,8.217 1.503,10.78 3.389,2.56 8.218,1.889 10.78,-1.503 5.293,-7.008 12.892,-12.076 21.395,-14.272 8.504,-2.197 17.605,-1.439 25.63,2.131 8.744,3.889 14.869,11.135 15.605,18.46 0.638,6.353 -2.762,13.5 -8.66,18.206 -5.635,4.496 -12.571,6.446 -18.381,7.267 l 1.887,-18.116 c 0.441,-4.227 -2.629,-8.011 -6.857,-8.452 -4.254,-0.43 -8.013,2.629 -8.452,6.857 l -7.05,67.674 c -0.441,4.228 2.629,8.012 6.857,8.453 0.272,0.027 0.54,0.041 0.807,0.041 3.893,0 7.234,-2.942 7.646,-6.898 l 2.729,-26.2 c 5.738,8.095 12.295,16.158 20.514,22.567 10.281,8.018 22.049,12.261 33.226,12.261 4.331,0 8.576,-0.638 12.609,-1.942 4.041,-1.306 6.26,-5.643 4.953,-9.688 z"
   id="path42" />
				<path
   style="fill:#ffffff"
   d="m 385.537,159.732 c -1.308,-4.045 -5.654,-6.265 -9.689,-4.956 -11.277,3.639 -23.731,-1.651 -31.637,-7.812 -6.97,-5.436 -12.688,-12.545 -17.943,-20.034 7.029,-1.873 13.256,-4.905 18.378,-8.991 10.03,-8.003 15.539,-20.178 14.376,-31.777 -1.296,-12.923 -10.747,-24.796 -24.665,-30.986 -11.185,-4.975 -23.877,-6.029 -35.733,-2.969 -11.855,3.061 -22.448,10.127 -29.829,19.897 -2.561,3.392 -1.889,8.217 1.503,10.78 3.389,2.56 8.219,1.888 10.78,-1.503 5.292,-7.007 12.89,-12.075 21.395,-14.27 8.5,-2.195 17.604,-1.441 25.629,2.129 8.745,3.889 14.87,11.135 15.606,18.459 0.636,6.356 -2.763,13.502 -8.662,18.209 -5.636,4.496 -12.571,6.445 -18.381,7.266 l 1.887,-18.116 c 0.44,-4.228 -2.63,-8.012 -6.858,-8.451 -4.234,-0.425 -8.012,2.632 -8.451,6.858 l -7.048,67.672 c -0.441,4.227 2.629,8.011 6.856,8.452 0.272,0.027 0.54,0.041 0.807,0.041 3.893,0 7.234,-2.942 7.646,-6.898 l 2.729,-26.198 c 5.738,8.094 12.295,16.157 20.514,22.567 10.282,8.018 22.052,12.262 33.227,12.262 4.331,0 8.575,-0.639 12.606,-1.941 4.045,-1.308 6.265,-5.645 4.957,-9.69 z"
   id="path44" />
			</g>
		</g>
	</g>
	<g
   id="g126">
		<g
   id="g60">
			<path
   style="fill:#fd4242"
   d="m 187.718,219.316 c -3.065,-15.339 -14.528,-28.58 -29.204,-33.731 -14.889,-5.227 -32.112,-1.903 -43.889,8.462 -8.982,7.907 -14.182,19.38 -13.909,30.688 0.102,4.249 3.611,7.562 7.879,7.508 4.249,-0.103 7.611,-3.63 7.508,-7.879 -0.164,-6.814 3.085,-13.828 8.692,-18.764 7.549,-6.645 19.049,-8.852 28.622,-5.494 9.499,3.334 17.219,12.265 19.208,22.224 2.007,10.038 -1.556,21.101 -9.075,28.182 -7.044,6.634 -17.519,9.613 -27.134,7.912 1.118,-14.06 2.446,-28.098 4.079,-42.027 0.495,-4.221 -2.527,-8.044 -6.748,-8.539 -4.219,-0.498 -8.044,2.528 -8.539,6.748 -3.8,32.419 -6.239,65.391 -7.249,97.998 -0.132,4.248 3.205,7.799 7.454,7.93 0.082,0.003 0.162,0.004 0.242,0.004 4.141,0 7.559,-3.29 7.688,-7.458 0.403,-13.029 1.099,-26.117 1.96,-39.204 2.179,0.31 4.369,0.482 6.557,0.482 11.848,0 23.563,-4.47 32.24,-12.64 11.296,-10.636 16.641,-27.28 13.618,-42.402 z"
   id="path52" />
			<g
   id="g58">
				<path
   style="fill:#ffbc00"
   d="m 182.585,214.183 c -3.066,-15.34 -14.53,-28.58 -29.205,-33.731 -14.885,-5.227 -32.113,-1.903 -43.886,8.462 -8.983,7.906 -14.184,19.379 -13.911,30.687 0.101,4.249 3.642,7.553 7.879,7.508 4.249,-0.103 7.611,-3.63 7.508,-7.878 -0.164,-6.813 3.087,-13.827 8.694,-18.762 7.545,-6.646 19.049,-8.851 28.619,-5.494 9.5,3.334 17.219,12.265 19.21,22.225 2.006,10.038 -1.557,21.1 -9.076,28.18 -7.043,6.633 -17.517,9.608 -27.133,7.912 1.118,-14.062 2.446,-28.1 4.079,-42.027 0.495,-4.221 -2.526,-8.044 -6.747,-8.539 -4.214,-0.494 -8.044,2.525 -8.539,6.747 -3.799,32.412 -6.238,65.383 -7.247,97.999 -0.131,4.248 3.206,7.798 7.454,7.93 0.081,0.003 0.162,0.004 0.242,0.004 4.141,0 7.559,-3.29 7.688,-7.458 0.403,-13.03 1.099,-26.118 1.96,-39.204 2.178,0.309 4.368,0.481 6.556,0.48 11.85,0 23.566,-4.469 32.24,-12.64 11.292,-10.633 16.636,-27.278 13.615,-42.401 z"
   id="path54" />
				<path
   style="fill:#ffffff"
   d="m 177.451,209.048 c -3.065,-15.339 -14.528,-28.58 -29.204,-33.731 -14.889,-5.227 -32.112,-1.903 -43.889,8.462 -8.982,7.907 -14.182,19.38 -13.909,30.688 0.102,4.249 3.611,7.562 7.879,7.508 4.249,-0.103 7.611,-3.63 7.508,-7.879 -0.164,-6.814 3.085,-13.828 8.692,-18.764 7.549,-6.645 19.049,-8.852 28.622,-5.494 9.499,3.334 17.219,12.265 19.208,22.225 2.007,10.038 -1.556,21.101 -9.075,28.182 -7.044,6.634 -17.519,9.613 -27.134,7.912 1.118,-14.06 2.446,-28.098 4.079,-42.027 0.495,-4.221 -2.527,-8.044 -6.748,-8.539 -4.219,-0.498 -8.044,2.528 -8.539,6.748 -3.8,32.419 -6.239,65.391 -7.249,97.998 -0.132,4.248 3.205,7.799 7.454,7.93 0.082,0.003 0.162,0.004 0.242,0.004 4.141,0 7.559,-3.29 7.688,-7.458 0.403,-13.029 1.099,-26.117 1.96,-39.204 2.179,0.31 4.369,0.482 6.557,0.482 11.848,0 23.563,-4.47 32.24,-12.64 11.296,-10.636 16.641,-27.28 13.618,-42.403 z"
   id="path56" />
			</g>
		</g>
		<g
   id="g76">
			<g
   id="g64">
				<path
   style="fill:#fd4242"
   d="m 270.119,330.574 c -0.71,0 -1.433,-0.1 -2.149,-0.308 -23.127,-6.714 -44.196,-20.417 -59.962,-38.641 l -0.388,15.883 c -0.104,4.249 -3.595,7.579 -7.881,7.505 -4.249,-0.104 -7.609,-3.632 -7.505,-7.881 l 1.605,-65.619 c 0.088,-3.609 0.197,-8.1 2.192,-12.527 2.418,-5.365 7.313,-9.726 13.783,-12.278 7.233,-2.853 15.137,-2.985 21.7,-0.358 10.746,4.302 17.902,16.301 17.015,28.529 -0.768,10.588 -7.051,20.669 -16.807,26.965 -4.412,2.848 -9.481,4.919 -15.016,6.165 14.091,17.77 33.783,31.154 55.557,37.476 4.082,1.185 6.429,5.454 5.244,9.536 -0.979,3.367 -4.051,5.553 -7.388,5.553 z M 221.406,229.845 c -1.92,0 -3.954,0.396 -5.945,1.181 -2.682,1.058 -4.65,2.62 -5.401,4.285 -0.715,1.588 -0.777,4.125 -0.837,6.577 l -0.535,21.864 c 4.676,-0.495 9.994,-1.813 14.684,-4.839 5.633,-3.635 9.389,-9.439 9.803,-15.146 0.402,-5.543 -2.842,-11.308 -7.385,-13.127 -1.325,-0.531 -2.815,-0.795 -4.384,-0.795 z"
   id="path62" />
			</g>
			<g
   id="g74">
				<g
   id="g68">
					<path
   style="fill:#ffbc00"
   d="m 264.986,325.44 c -0.71,0 -1.433,-0.1 -2.149,-0.308 -23.129,-6.714 -44.197,-20.417 -59.963,-38.639 l -0.388,15.883 c -0.104,4.25 -3.59,7.583 -7.881,7.505 -4.249,-0.104 -7.609,-3.633 -7.505,-7.881 l 1.605,-65.619 c 0.089,-3.612 0.2,-8.104 2.193,-12.527 2.417,-5.363 7.311,-9.725 13.781,-12.279 7.23,-2.855 15.141,-2.984 21.702,-0.358 10.746,4.305 17.902,16.304 17.015,28.529 -0.769,10.589 -7.052,20.67 -16.807,26.965 -4.411,2.848 -9.481,4.92 -15.017,6.167 14.092,17.769 33.783,31.153 55.558,37.475 4.082,1.185 6.43,5.454 5.245,9.536 -0.98,3.364 -4.052,5.551 -7.389,5.551 z M 216.273,224.711 c -1.92,0 -3.956,0.396 -5.946,1.181 -2.681,1.058 -4.649,2.62 -5.4,4.286 -0.714,1.587 -0.777,4.126 -0.838,6.581 l -0.535,21.86 c 4.677,-0.495 9.996,-1.812 14.685,-4.84 5.632,-3.635 9.388,-9.439 9.803,-15.147 0.402,-5.54 -2.842,-11.306 -7.386,-13.127 -1.325,-0.53 -2.816,-0.794 -4.383,-0.794 z"
   id="path66" />
				</g>
				<g
   id="g72">
					<path
   style="fill:#ffffff"
   d="m 259.852,320.307 c -0.71,0 -1.433,-0.1 -2.149,-0.308 -23.127,-6.714 -44.196,-20.417 -59.962,-38.641 l -0.388,15.883 c -0.104,4.249 -3.595,7.579 -7.881,7.505 -4.249,-0.104 -7.609,-3.632 -7.505,-7.881 l 1.605,-65.619 c 0.088,-3.609 0.197,-8.1 2.192,-12.527 2.418,-5.365 7.313,-9.726 13.783,-12.278 7.233,-2.853 15.137,-2.985 21.7,-0.358 10.746,4.302 17.902,16.301 17.015,28.529 -0.768,10.588 -7.051,20.669 -16.807,26.965 -4.412,2.848 -9.481,4.919 -15.016,6.165 14.091,17.77 33.783,31.154 55.557,37.476 4.082,1.185 6.429,5.454 5.244,9.536 -0.979,3.366 -4.051,5.553 -7.388,5.553 z M 211.139,219.578 c -1.92,0 -3.954,0.396 -5.945,1.181 -2.682,1.058 -4.65,2.62 -5.401,4.285 -0.715,1.588 -0.777,4.125 -0.837,6.577 l -0.535,21.864 c 4.676,-0.495 9.994,-1.813 14.684,-4.839 5.633,-3.635 9.389,-9.439 9.803,-15.146 0.402,-5.543 -2.842,-11.308 -7.385,-13.127 -1.325,-0.531 -2.816,-0.795 -4.384,-0.795 z"
   id="path70" />
				</g>
			</g>
		</g>
		<g
   id="g92">
			<g
   id="g80">
				<path
   style="fill:#fd4242"
   d="m 265.648,305.115 c -0.115,0 -0.23,-0.003 -0.346,-0.007 -4.246,-0.188 -7.537,-3.781 -7.349,-8.028 l 2.812,-63.672 c 0.188,-4.246 3.815,-7.521 8.028,-7.349 4.246,0.188 7.537,3.782 7.349,8.028 l -2.812,63.672 c -0.182,4.13 -3.588,7.356 -7.682,7.356 z"
   id="path78" />
			</g>
			<g
   id="g90">
				<g
   id="g84">
					<path
   style="fill:#ffbc00"
   d="m 260.516,299.98 c -0.115,0 -0.23,-0.003 -0.346,-0.007 -4.246,-0.188 -7.536,-3.782 -7.349,-8.028 l 2.812,-63.672 c 0.188,-4.248 3.805,-7.531 8.028,-7.349 4.246,0.188 7.537,3.781 7.349,8.028 l -2.812,63.672 c -0.183,4.131 -3.589,7.356 -7.682,7.356 z"
   id="path82" />
				</g>
				<g
   id="g88">
					<path
   style="fill:#ffffff"
   d="m 255.381,294.847 c -0.115,0 -0.23,-0.003 -0.346,-0.007 -4.246,-0.188 -7.537,-3.781 -7.349,-8.028 l 2.812,-63.672 c 0.188,-4.246 3.815,-7.521 8.028,-7.349 4.246,0.188 7.537,3.782 7.349,8.028 l -2.812,63.672 c -0.183,4.131 -3.588,7.356 -7.682,7.356 z"
   id="path86" />
				</g>
			</g>
		</g>
		<g
   id="g108">
			<g
   id="g96">
				<path
   style="fill:#fd4242"
   d="m 331.518,320.187 c -8.569,0 -16.694,-2.165 -23.426,-6.314 -10.276,-6.338 -17.769,-17.665 -20.559,-31.076 -2.127,-10.23 -1.69,-21.695 1.337,-35.048 2.082,-9.19 4.892,-17.175 8.494,-24.085 -2.662,-1.628 -5.221,-3.342 -7.74,-5.029 -1.447,-0.969 -2.895,-1.939 -4.353,-2.885 -5.436,-3.526 -11.891,-7.263 -18.547,-8.243 -5.93,-0.866 -11.659,0.833 -14.595,4.346 -2.727,3.263 -7.578,3.694 -10.84,0.97 -3.261,-2.724 -3.695,-7.578 -0.969,-10.84 6.388,-7.645 17.358,-11.353 28.645,-9.704 9.582,1.412 17.853,6.129 24.681,10.557 1.522,0.987 3.032,1.999 4.543,3.01 2.637,1.766 5.196,3.48 7.764,5.027 0.352,-0.41 0.71,-0.814 1.071,-1.214 11.042,-12.178 26.853,-18.483 41.222,-16.481 8.822,1.234 18.075,6.9 18.859,16.782 0.398,5.034 -1.676,10.124 -5.691,13.965 -3.351,3.205 -7.428,4.944 -10.203,5.972 -12.788,4.74 -27.103,4.87 -39.982,0.477 -3.086,5.812 -5.516,12.696 -7.347,20.776 -2.529,11.159 -2.948,20.486 -1.279,28.514 1.933,9.287 6.878,16.981 13.569,21.108 5.584,3.442 12.885,4.737 20.551,3.651 6.902,-0.978 14.006,-3.754 21.722,-8.486 3.624,-2.22 8.362,-1.085 10.584,2.538 2.221,3.624 1.085,8.362 -2.538,10.584 -9.548,5.854 -18.578,9.323 -27.607,10.603 -2.476,0.352 -4.939,0.525 -7.366,0.525 z M 321.23,217.198 c 8.156,1.744 16.785,1.176 24.633,-1.733 1.49,-0.554 3.624,-1.432 4.911,-2.663 0.765,-0.732 0.993,-1.459 0.986,-1.627 -0.039,-0.492 -2.103,-2.258 -5.645,-2.753 -8.308,-1.165 -17.556,2.158 -24.885,8.776 z"
   id="path94" />
			</g>
			<g
   id="g106">
				<g
   id="g100">
					<path
   style="fill:#ffbc00"
   d="m 326.386,315.054 c -8.569,0 -16.696,-2.165 -23.428,-6.316 -10.275,-6.335 -17.768,-17.662 -20.557,-31.075 -2.127,-10.225 -1.69,-21.69 1.335,-35.048 2.082,-9.19 4.894,-17.175 8.495,-24.086 -2.658,-1.626 -5.214,-3.337 -7.73,-5.022 -1.45,-0.972 -2.901,-1.944 -4.364,-2.892 -5.439,-3.526 -11.894,-7.263 -18.546,-8.241 -5.935,-0.879 -11.66,0.832 -14.594,4.344 -2.724,3.263 -7.577,3.7 -10.84,0.972 -3.262,-2.724 -3.698,-7.578 -0.972,-10.84 6.387,-7.648 17.358,-11.37 28.646,-9.704 9.575,1.408 17.848,6.125 24.679,10.554 1.526,0.989 3.04,2.004 4.554,3.017 2.633,1.764 5.188,3.475 7.752,5.019 0.352,-0.41 0.709,-0.814 1.071,-1.214 11.04,-12.175 26.839,-18.49 41.224,-16.481 8.823,1.234 18.076,6.902 18.857,16.783 0.4,5.032 -1.673,10.122 -5.69,13.965 -3.356,3.208 -7.43,4.945 -10.204,5.972 -12.786,4.736 -27.103,4.866 -39.982,0.477 -3.086,5.812 -5.516,12.696 -7.348,20.775 -2.528,11.164 -2.946,20.491 -1.277,28.514 1.933,9.289 6.878,16.982 13.568,21.107 5.585,3.443 12.882,4.739 20.551,3.654 6.899,-0.979 14.006,-3.755 21.725,-8.486 3.625,-2.221 8.362,-1.085 10.583,2.539 2.222,3.624 1.085,8.362 -2.539,10.583 -9.55,5.854 -18.581,9.322 -27.607,10.603 -2.473,0.354 -4.936,0.527 -7.362,0.527 z m -10.29,-102.991 c 8.158,1.745 16.783,1.176 24.634,-1.734 1.491,-0.552 3.621,-1.429 4.911,-2.663 0.764,-0.73 0.992,-1.457 0.985,-1.625 -0.039,-0.496 -2.103,-2.261 -5.644,-2.756 -8.308,-1.162 -17.557,2.165 -24.886,8.778 z"
   id="path98" />
				</g>
				<g
   id="g104">
					<path
   style="fill:#ffffff"
   d="m 321.25,309.92 c -8.569,0 -16.694,-2.165 -23.426,-6.314 -10.276,-6.338 -17.769,-17.665 -20.559,-31.076 -2.127,-10.23 -1.69,-21.695 1.337,-35.048 2.082,-9.19 4.892,-17.175 8.494,-24.085 -2.662,-1.628 -5.221,-3.342 -7.74,-5.029 -1.447,-0.969 -2.895,-1.939 -4.353,-2.885 -5.436,-3.526 -11.891,-7.263 -18.547,-8.243 -5.93,-0.866 -11.659,0.833 -14.595,4.346 -2.727,3.263 -7.578,3.694 -10.84,0.97 -3.261,-2.724 -3.695,-7.578 -0.969,-10.84 6.388,-7.645 17.358,-11.353 28.645,-9.704 9.582,1.412 17.853,6.129 24.681,10.557 1.522,0.987 3.032,1.999 4.543,3.01 2.637,1.766 5.196,3.48 7.764,5.027 0.352,-0.41 0.71,-0.814 1.071,-1.214 11.042,-12.178 26.853,-18.483 41.222,-16.481 8.822,1.234 18.075,6.9 18.859,16.782 0.398,5.034 -1.676,10.124 -5.691,13.965 -3.351,3.205 -7.428,4.944 -10.203,5.972 -12.788,4.74 -27.103,4.87 -39.982,0.477 -3.086,5.812 -5.516,12.696 -7.347,20.776 -2.529,11.159 -2.948,20.486 -1.279,28.514 1.933,9.287 6.878,16.981 13.569,21.108 5.584,3.442 12.885,4.737 20.551,3.651 6.902,-0.978 14.006,-3.754 21.722,-8.486 3.624,-2.22 8.362,-1.085 10.584,2.538 2.221,3.624 1.085,8.362 -2.538,10.584 -9.548,5.854 -18.578,9.323 -27.607,10.603 -2.476,0.352 -4.938,0.525 -7.366,0.525 z M 310.963,206.93 c 8.156,1.744 16.785,1.176 24.633,-1.733 1.49,-0.554 3.624,-1.432 4.911,-2.663 0.766,-0.732 0.993,-1.459 0.986,-1.627 -0.039,-0.492 -2.103,-2.258 -5.645,-2.753 -8.308,-1.164 -17.556,2.159 -24.885,8.776 z"
   id="path102" />
				</g>
			</g>
		</g>
		<g
   id="g124">
			<g
   id="g112">
				<path
   style="fill:#fd4242"
   d="m 392.735,294.152 c -4.631,0 -9.004,-0.853 -12.957,-2.552 -11.787,-5.065 -19.76,-18.389 -19.389,-32.403 0.302,-11.313 5.561,-22.875 14.812,-32.556 4.391,-4.597 8.76,-7.801 13.359,-9.794 6.329,-2.747 13.041,-3.116 18.895,-1.037 7.255,2.571 12.547,8.882 13.478,16.074 0.966,7.464 -2.466,14.835 -10.201,21.91 -9.927,9.083 -20.065,14.937 -31.399,18.055 1.713,2.517 3.955,4.506 6.523,5.609 3.731,1.605 8.689,1.712 13.961,0.31 5.441,-1.448 10.877,-4.293 16.135,-7.044 3.768,-1.969 8.417,-0.517 10.386,3.249 1.971,3.765 0.517,8.416 -3.249,10.386 -6.005,3.144 -12.214,6.394 -19.312,8.282 -3.784,1.009 -7.49,1.511 -11.042,1.511 z m 6.855,-64.272 c -1.552,0 -3.243,0.367 -4.905,1.088 -2.679,1.161 -5.411,3.223 -8.355,6.305 -5.781,6.05 -9.373,12.876 -10.314,19.504 8.657,-2.545 16.528,-7.204 24.326,-14.338 3.658,-3.346 5.598,-6.472 5.326,-8.579 -0.183,-1.405 -1.626,-2.93 -3.359,-3.543 -0.825,-0.293 -1.744,-0.437 -2.719,-0.437 z"
   id="path110" />
			</g>
			<g
   id="g122">
				<g
   id="g116">
					<path
   style="fill:#ffbc00"
   d="m 387.602,289.017 c -4.632,10e-4 -9.005,-0.852 -12.958,-2.55 -11.788,-5.067 -19.761,-18.391 -19.388,-32.403 0.299,-11.31 5.559,-22.871 14.809,-32.556 4.395,-4.6 8.766,-7.803 13.36,-9.794 6.332,-2.746 13.041,-3.114 18.895,-1.038 7.256,2.577 12.547,8.886 13.478,16.076 0.967,7.46 -2.464,14.833 -10.198,21.91 -9.929,9.082 -20.07,14.937 -31.401,18.056 1.714,2.515 3.954,4.504 6.522,5.608 3.73,1.605 8.69,1.714 13.964,0.311 5.435,-1.448 10.873,-4.294 16.133,-7.047 3.77,-1.967 8.417,-0.515 10.388,3.25 1.97,3.767 0.515,8.416 -3.25,10.388 -6.006,3.142 -12.217,6.393 -19.311,8.282 -3.785,1.005 -7.491,1.507 -11.043,1.507 z m 6.858,-64.271 c -1.553,0 -3.247,0.368 -4.911,1.09 -2.674,1.158 -5.406,3.221 -8.353,6.305 -5.78,6.05 -9.371,12.879 -10.312,19.504 8.657,-2.545 16.528,-7.205 24.327,-14.339 3.656,-3.346 5.598,-6.472 5.325,-8.576 -0.183,-1.408 -1.627,-2.932 -3.361,-3.547 -0.824,-0.293 -1.742,-0.437 -2.715,-0.437 z"
   id="path114" />
				</g>
				<g
   id="g120">
					<path
   style="fill:#ffffff"
   d="m 382.468,283.885 c -4.631,0 -9.004,-0.853 -12.957,-2.552 -11.787,-5.065 -19.76,-18.389 -19.389,-32.403 0.302,-11.313 5.561,-22.875 14.812,-32.556 4.391,-4.597 8.76,-7.801 13.359,-9.794 6.329,-2.747 13.041,-3.116 18.895,-1.037 7.255,2.571 12.547,8.882 13.478,16.074 0.966,7.464 -2.467,14.835 -10.201,21.91 -9.927,9.083 -20.065,14.937 -31.399,18.055 1.713,2.517 3.955,4.506 6.523,5.609 3.731,1.605 8.689,1.712 13.961,0.31 5.441,-1.448 10.877,-4.293 16.135,-7.044 3.768,-1.969 8.417,-0.517 10.386,3.249 1.971,3.765 0.517,8.416 -3.249,10.386 -6.005,3.144 -12.214,6.394 -19.312,8.282 -3.784,1.009 -7.49,1.511 -11.042,1.511 z m 6.855,-64.272 c -1.552,0 -3.243,0.367 -4.905,1.088 -2.679,1.161 -5.411,3.223 -8.355,6.305 -5.781,6.05 -9.373,12.876 -10.314,19.504 8.657,-2.545 16.528,-7.204 24.326,-14.338 3.658,-3.346 5.598,-6.472 5.326,-8.579 -0.183,-1.405 -1.626,-2.93 -3.359,-3.543 -0.825,-0.293 -1.745,-0.437 -2.719,-0.437 z"
   id="path118" />
				</g>
			</g>
		</g>
	</g>
	<g
   id="g160">
		<polygon
   style="fill:#fd4242"
   points="405.372,116.491 397.25,125.386 395.21,137.257 386.315,129.135 374.444,127.095 382.566,118.2 384.606,106.329 393.501,114.451 "
   id="polygon128" />
		<polygon
   style="fill:#fd4242"
   points="423.929,168.185 416.007,170.663 410.674,177.022 408.197,169.1 401.837,163.767 409.759,161.29 415.092,154.93 417.569,162.852 "
   id="polygon130" />
		<polygon
   style="fill:#fd4242"
   points="427.463,191.161 425.286,195.32 425.696,199.997 421.537,197.819 416.859,198.23 419.037,194.071 418.627,189.393 422.786,191.571 "
   id="polygon132" />
		<polygon
   style="fill:#fd4242"
   points="104.485,151.838 101.865,155.868 101.834,160.674 97.804,158.055 92.997,158.023 95.617,153.993 95.648,149.187 99.678,151.806 "
   id="polygon134" />
		<polygon
   style="fill:#fd4242"
   points="125.693,105.887 119.28,109.766 115.972,116.491 112.094,110.078 105.369,106.771 111.782,102.893 115.089,96.167 118.967,102.58 "
   id="polygon136" />
		<polygon
   style="fill:#fd4242"
   points="247.196,38.729 242.551,43.125 241.011,49.333 236.615,44.687 230.407,43.147 235.052,38.751 236.592,32.543 240.988,37.189 "
   id="polygon138" />
		<polygon
   style="fill:#fd4242"
   points="287.845,35.194 284.832,36.471 282.985,39.171 281.708,36.158 279.008,34.311 282.02,33.034 283.868,30.334 285.145,33.346 "
   id="polygon140" />
		<polygon
   style="fill:#fd4242"
   points="92.555,253.459 88.896,256.944 87.695,261.854 84.21,258.194 79.301,256.994 82.96,253.508 84.161,248.599 87.646,252.258 "
   id="polygon142" />
		<polygon
   style="fill:#fd4242"
   points="89.904,304.711 83.853,306.537 79.742,311.339 77.917,305.287 73.115,301.177 79.166,299.351 83.277,294.549 85.102,300.601 "
   id="polygon144" />
		<polygon
   style="fill:#fd4242"
   points="405.814,308.688 403.167,311.99 402.721,316.199 399.418,313.553 395.21,313.106 397.856,309.803 398.302,305.595 401.605,308.241 "
   id="polygon146" />
		<polygon
   style="fill:#fd4242"
   points="440.276,248.157 435.939,249.045 432.765,252.133 431.877,247.795 428.789,244.622 433.127,243.734 436.3,240.646 437.188,244.984 "
   id="polygon148" />
		<polygon
   style="fill:#fd4242"
   points="435.416,306.479 430.534,308.407 427.463,312.664 425.535,307.782 421.278,304.711 426.16,302.783 429.231,298.526 431.159,303.408 "
   id="polygon150" />
		<polygon
   style="fill:#fd4242"
   points="168.109,303.828 162.035,309.005 159.714,316.641 154.537,310.567 146.901,308.246 152.974,303.069 155.295,295.433 160.473,301.507 "
   id="polygon152" />
		<polygon
   style="fill:#fd4242"
   points="374.885,73.192 372.73,74 371.351,75.843 370.543,73.687 368.7,72.308 370.855,71.5 372.234,69.657 373.043,71.813 "
   id="polygon154" />
		<polygon
   style="fill:#fd4242"
   points="323.633,38.287 320.076,40.603 318.331,44.473 316.015,40.916 312.145,39.171 315.702,36.855 317.447,32.985 319.764,36.542 "
   id="polygon156" />
		<polygon
   style="fill:#fd4242"
   points="184.456,37.403 183.68,40.054 184.456,42.705 181.805,41.929 179.154,42.705 179.931,40.054 179.154,37.403 181.805,38.18 "
   id="polygon158" />
	</g>
</g>















<text
   xml:space="preserve"
   style="font-style:normal;font-weight:normal;font-size:74.6667px;line-height:1.25;font-family:sans-serif;fill:#000000;fill-opacity:1;stroke:none"
   x="120.47288"
   y="435.85953"
   id="text173"><tspan
     sodipodi:role="line"
     id="tspan171"
     x="120.47288"
     y="435.85953"
     style="font-style:normal;font-variant:normal;font-weight:normal;font-stretch:normal;font-size:74.6667px;font-family:Ubuntu;-inkscape-font-specification:Ubuntu">350 Dhs</tspan></text><g
   id="g335">
	<path
   style="fill:#ff6c6c"
   d="M 95.161,512 C 70.633,512 50.678,492.045 50.678,467.516 V 205.322 C 50.678,92.107 142.785,0 255.999,0 369.214,0 461.322,92.107 461.322,205.322 v 262.194 c 0,24.529 -19.956,44.484 -44.484,44.484 z"
   id="path175" />
	<path
   style="fill:#ffffff"
   d="M 416.839,503.021 H 95.16 c -19.578,0 -35.504,-15.928 -35.504,-35.504 V 205.322 C 59.656,97.058 147.736,8.978 256,8.978 c 108.264,0 196.344,88.08 196.344,196.344 v 262.195 c -10e-4,19.577 -15.927,35.504 -35.505,35.504 z M 256,11.544 c -106.85,0 -193.778,86.929 -193.778,193.778 v 262.195 c 0,18.162 14.777,32.939 32.939,32.939 H 416.84 c 18.162,0 32.939,-14.777 32.939,-32.939 V 205.322 C 449.778,98.472 362.849,11.544 256,11.544 Z"
   id="path177" />
	<path
   style="fill:#ffffff"
   d="m 427.976,361.523 v 96.459 c 0,11.411 -9.25,20.661 -20.661,20.661 h -302.63 c -11.411,0 -20.661,-9.25 -20.661,-20.661 v -96.459 c 0,-11.411 9.25,-20.661 20.661,-20.661 h 302.63 c 11.411,10e-4 20.661,9.251 20.661,20.661 z"
   id="path179" />
	<g
   id="g223">
		<g
   id="g195">
			<g
   id="g183">
				<path
   style="fill:#fd4242"
   d="m 183.716,181.37 c -11.857,0 -23.717,-5.62 -31.889,-15.16 -7.519,-8.777 -11.792,-20.497 -12.031,-33.003 -0.204,-10.781 2.607,-22.186 8.129,-32.983 6.493,-12.692 17.921,-22.945 26.851,-29.58 2.882,-2.86 6.293,-5.202 10.053,-6.813 9.258,-3.969 20.166,-3.471 29.184,1.337 7.751,4.129 13.959,11.317 17.68,20.271 1.923,-2.778 3.771,-5.622 5.595,-8.428 2.317,-3.562 7.083,-4.575 10.647,-2.26 3.563,2.317 4.575,7.083 2.259,10.647 -4.385,6.748 -8.901,13.693 -14.506,19.996 0.203,7.11 -0.647,13.689 -1.46,18.687 -2.527,15.557 -6.845,27.2 -13.588,36.64 -8.993,12.59 -22.451,20.304 -36,20.637 -0.308,0.009 -0.616,0.012 -0.924,0.012 z m -17.704,-81.061 c -1.75,2.334 -3.222,4.653 -4.384,6.925 -4.371,8.547 -6.6,17.427 -6.443,25.681 0.17,8.941 3.129,17.209 8.331,23.282 5.324,6.214 13.266,9.933 20.745,9.775 8.61,-0.212 17.75,-5.652 23.854,-14.197 5.317,-7.444 8.788,-17.029 10.922,-30.163 0.155,-0.956 0.296,-1.891 0.424,-2.808 -4.325,2.438 -8.795,4.147 -13.3,5.069 -11.981,2.445 -24.262,-0.927 -32.073,-8.803 -4.035,-4.069 -6.796,-9.23 -8.076,-14.761 z m 18.93,-18.034 c -1.954,2.159 -3.377,4.78 -3.987,7.528 -1.141,5.127 0.454,10.791 4.062,14.43 4.132,4.167 11.227,5.957 18.061,4.559 6.774,-1.384 12.537,-5.376 16.684,-9.134 -0.18,-1.154 -0.402,-2.272 -0.667,-3.359 -1.928,-7.905 -6.534,-14.465 -12.319,-17.546 -4.862,-2.592 -10.947,-2.888 -15.884,-0.774 -1.463,0.627 -2.836,1.479 -4.073,2.501 -0.456,0.615 -1.013,1.171 -1.667,1.643 -0.071,0.052 -0.14,0.102 -0.21,0.152 z"
   id="path181" />
			</g>
			<g
   id="g193">
				<g
   id="g187">
					<path
   style="fill:#ffbc00"
   d="m 178.588,176.238 c -11.86,0 -23.721,-5.622 -31.894,-15.159 -7.521,-8.778 -11.794,-20.5 -12.031,-33.007 -0.204,-10.781 2.607,-22.186 8.128,-32.98 6.495,-12.696 17.923,-22.948 26.855,-29.582 2.881,-2.86 6.29,-5.201 10.048,-6.812 9.258,-3.968 20.167,-3.466 29.184,1.335 7.752,4.131 13.96,11.32 17.681,20.273 1.924,-2.778 3.771,-5.623 5.595,-8.43 2.314,-3.563 7.078,-4.578 10.647,-2.259 3.564,2.316 4.576,7.082 2.26,10.647 -4.383,6.744 -8.895,13.688 -14.506,19.996 0.203,7.11 -0.646,13.688 -1.459,18.686 -2.529,15.561 -6.847,27.203 -13.588,36.643 -8.992,12.589 -22.45,20.303 -35.999,20.638 -0.307,0.007 -0.614,0.011 -0.921,0.011 z m -17.71,-81.062 c -1.75,2.332 -3.222,4.653 -4.384,6.926 -4.371,8.545 -6.599,17.424 -6.442,25.68 0.169,8.942 3.128,17.21 8.329,23.282 5.325,6.214 13.235,9.954 20.748,9.776 8.61,-0.213 17.75,-5.653 23.853,-14.197 5.316,-7.443 8.786,-17.028 10.922,-30.166 0.155,-0.955 0.296,-1.891 0.423,-2.807 -4.325,2.438 -8.797,4.149 -13.302,5.069 -11.973,2.444 -24.264,-0.926 -32.072,-8.803 -4.034,-4.069 -6.795,-9.227 -8.075,-14.76 z m 18.931,-18.035 c -1.954,2.159 -3.377,4.781 -3.99,7.53 -1.139,5.126 0.456,10.79 4.063,14.427 4.131,4.168 11.223,5.959 18.06,4.56 6.774,-1.383 12.537,-5.375 16.686,-9.134 -0.179,-1.154 -0.402,-2.272 -0.666,-3.358 -1.929,-7.905 -6.535,-14.465 -12.32,-17.549 -4.862,-2.59 -10.951,-2.886 -15.884,-0.773 -1.462,0.627 -2.835,1.479 -4.072,2.501 -0.457,0.615 -1.015,1.171 -1.668,1.645 -0.069,0.051 -0.138,0.101 -0.209,0.151 z"
   id="path185" />
				</g>
				<g
   id="g191">
					<path
   style="fill:#ffffff"
   d="m 173.449,171.103 c -11.857,0 -23.717,-5.62 -31.889,-15.16 -7.519,-8.777 -11.792,-20.497 -12.031,-33.003 -0.204,-10.781 2.607,-22.186 8.129,-32.983 6.493,-12.692 17.921,-22.945 26.851,-29.58 2.882,-2.86 6.293,-5.202 10.053,-6.813 9.258,-3.969 20.166,-3.471 29.184,1.337 7.751,4.129 13.959,11.317 17.68,20.271 1.923,-2.778 3.771,-5.622 5.595,-8.428 2.317,-3.562 7.083,-4.575 10.647,-2.26 3.563,2.317 4.575,7.083 2.259,10.647 -4.385,6.748 -8.901,13.693 -14.506,19.996 0.203,7.11 -0.647,13.689 -1.46,18.687 -2.527,15.557 -6.845,27.2 -13.588,36.64 -8.993,12.59 -22.451,20.304 -36,20.637 -0.308,0.008 -0.616,0.012 -0.924,0.012 z M 155.745,90.042 c -1.75,2.334 -3.222,4.653 -4.384,6.925 -4.371,8.547 -6.6,17.427 -6.443,25.681 0.17,8.941 3.129,17.209 8.331,23.282 5.324,6.214 13.266,9.933 20.745,9.775 8.61,-0.212 17.75,-5.652 23.854,-14.197 5.317,-7.444 8.788,-17.029 10.922,-30.163 0.155,-0.956 0.296,-1.891 0.424,-2.808 -4.325,2.438 -8.795,4.147 -13.3,5.069 -11.981,2.445 -24.262,-0.927 -32.073,-8.803 -4.035,-4.069 -6.796,-9.23 -8.076,-14.761 z m 18.93,-18.034 c -1.954,2.159 -3.377,4.78 -3.987,7.528 -1.141,5.127 0.454,10.791 4.062,14.43 4.132,4.167 11.227,5.957 18.061,4.559 6.774,-1.384 12.537,-5.376 16.684,-9.134 -0.18,-1.154 -0.402,-2.272 -0.667,-3.359 -1.928,-7.905 -6.533,-14.465 -12.319,-17.546 -4.862,-2.592 -10.947,-2.888 -15.884,-0.774 -1.463,0.627 -2.836,1.479 -4.073,2.501 -0.456,0.615 -1.013,1.171 -1.667,1.643 -0.071,0.052 -0.14,0.102 -0.21,0.152 z"
   id="path189" />
				</g>
			</g>
		</g>
		<g
   id="g211">
			<g
   id="g199">
				<path
   style="fill:#fd4242"
   d="m 263.104,176.498 c -6.154,0.001 -12.258,-3.615 -15.825,-9.473 -2.939,-4.822 -3.794,-10.172 -4.244,-14.769 -1.34,-13.718 0.064,-27.939 4.06,-41.125 1.233,-4.067 5.525,-6.372 9.597,-5.133 4.067,1.232 6.366,5.529 5.133,9.597 -3.417,11.274 -4.617,23.433 -3.471,35.163 0.279,2.863 0.745,6.084 2.07,8.261 0.828,1.362 2.143,2.142 2.693,2.087 0.382,-0.031 1.27,-0.466 2.159,-1.541 1.197,-1.449 2.146,-3.581 3.093,-5.822 5.673,-13.442 10.06,-27.497 13.043,-41.771 0.799,-3.834 4.334,-6.456 8.251,-6.089 3.898,0.365 6.902,3.599 6.977,7.513 0.348,18.026 -0.006,36.298 -1.054,54.31 -0.247,4.245 -3.905,7.479 -8.13,7.236 -4.242,-0.247 -7.483,-3.887 -7.236,-8.13 0.045,-0.777 0.09,-1.557 0.133,-2.335 -0.885,1.674 -1.919,3.328 -3.214,4.896 -3.453,4.175 -7.991,6.686 -12.78,7.073 -0.417,0.036 -0.836,0.052 -1.255,0.052 z"
   id="path197" />
			</g>
			<g
   id="g209">
				<g
   id="g203">
					<path
   style="fill:#ffbc00"
   d="m 257.974,171.365 c -6.154,0.001 -12.258,-3.613 -15.826,-9.471 -2.94,-4.823 -3.795,-10.175 -4.245,-14.773 -1.34,-13.712 0.063,-27.932 4.058,-41.123 1.233,-4.07 5.526,-6.368 9.596,-5.134 4.069,1.233 6.367,5.529 5.134,9.596 -3.416,11.279 -4.616,23.439 -3.47,35.163 0.281,2.866 0.745,6.089 2.069,8.263 0.83,1.36 2.12,2.118 2.694,2.087 0.379,-0.031 1.27,-0.467 2.157,-1.54 1.201,-1.452 2.148,-3.581 3.093,-5.818 5.673,-13.444 10.062,-27.499 13.045,-41.777 0.799,-3.833 4.334,-6.453 8.251,-6.087 3.898,0.365 6.902,3.599 6.977,7.514 0.347,18.042 -0.007,36.315 -1.053,54.309 -0.247,4.245 -3.907,7.479 -8.13,7.236 -4.242,-0.247 -7.483,-3.887 -7.236,-8.13 0.045,-0.778 0.089,-1.555 0.131,-2.334 -0.882,1.672 -1.918,3.327 -3.215,4.896 -3.447,4.171 -7.985,6.684 -12.774,7.073 -0.418,0.034 -0.838,0.05 -1.256,0.05 z"
   id="path201" />
				</g>
				<g
   id="g207">
					<path
   style="fill:#ffffff"
   d="m 252.837,166.231 c -6.154,0.001 -12.258,-3.615 -15.825,-9.473 -2.939,-4.822 -3.794,-10.172 -4.244,-14.769 -1.34,-13.718 0.064,-27.939 4.06,-41.125 1.233,-4.067 5.525,-6.372 9.597,-5.133 4.067,1.232 6.366,5.529 5.133,9.597 -3.417,11.274 -4.617,23.433 -3.471,35.163 0.279,2.863 0.745,6.084 2.07,8.261 0.828,1.362 2.143,2.142 2.693,2.087 0.382,-0.031 1.27,-0.466 2.159,-1.541 1.197,-1.449 2.146,-3.581 3.093,-5.822 5.673,-13.442 10.06,-27.497 13.043,-41.771 0.799,-3.834 4.334,-6.456 8.251,-6.089 3.898,0.365 6.902,3.599 6.977,7.513 0.348,18.026 -0.006,36.298 -1.054,54.31 -0.247,4.245 -3.905,7.479 -8.13,7.236 -4.242,-0.247 -7.483,-3.887 -7.236,-8.13 0.045,-0.777 0.09,-1.557 0.133,-2.335 -0.884,1.674 -1.919,3.328 -3.214,4.896 -3.453,4.175 -7.991,6.686 -12.78,7.073 -0.417,0.035 -0.837,0.052 -1.255,0.052 z"
   id="path205" />
				</g>
			</g>
		</g>
		<g
   id="g221">
			<path
   style="fill:#fd4242"
   d="m 395.804,169.999 c -1.308,-4.045 -5.654,-6.265 -9.689,-4.956 -11.277,3.639 -23.731,-1.651 -31.637,-7.812 -6.97,-5.436 -12.688,-12.545 -17.943,-20.034 7.029,-1.873 13.256,-4.905 18.378,-8.991 10.03,-8.003 15.539,-20.178 14.376,-31.777 -1.296,-12.923 -10.747,-24.796 -24.665,-30.986 -11.185,-4.975 -23.877,-6.029 -35.733,-2.969 -11.855,3.061 -22.448,10.127 -29.829,19.897 -2.561,3.392 -1.889,8.217 1.503,10.78 3.389,2.56 8.219,1.888 10.78,-1.503 5.292,-7.007 12.89,-12.075 21.395,-14.27 8.5,-2.195 17.604,-1.441 25.629,2.129 8.745,3.889 14.87,11.135 15.606,18.459 0.636,6.356 -2.763,13.502 -8.662,18.209 -5.636,4.496 -12.571,6.445 -18.381,7.266 l 1.887,-18.116 c 0.44,-4.228 -2.63,-8.012 -6.858,-8.451 -4.234,-0.425 -8.012,2.632 -8.451,6.858 l -7.048,67.672 c -0.441,4.227 2.629,8.011 6.856,8.452 0.272,0.027 0.54,0.041 0.807,0.041 3.893,0 7.234,-2.942 7.646,-6.898 l 2.729,-26.198 c 5.738,8.094 12.295,16.157 20.514,22.567 10.282,8.018 22.052,12.261 33.227,12.261 4.331,0 8.575,-0.639 12.606,-1.941 4.045,-1.306 6.265,-5.644 4.957,-9.689 z"
   id="path213" />
			<g
   id="g219">
				<path
   style="fill:#ffbc00"
   d="m 390.672,164.865 c -1.306,-4.045 -5.653,-6.269 -9.689,-4.956 -11.274,3.636 -23.732,-1.648 -31.636,-7.813 -6.971,-5.435 -12.687,-12.543 -17.943,-20.033 7.029,-1.871 13.257,-4.905 18.378,-8.991 10.032,-8.004 15.54,-20.179 14.375,-31.775 -1.297,-12.922 -10.747,-24.795 -24.663,-30.986 -11.19,-4.975 -23.878,-6.035 -35.733,-2.97 -11.856,3.061 -22.45,10.127 -29.83,19.898 -2.561,3.392 -1.889,8.217 1.503,10.78 3.389,2.56 8.218,1.889 10.78,-1.503 5.293,-7.008 12.892,-12.076 21.395,-14.272 8.504,-2.197 17.605,-1.439 25.63,2.131 8.744,3.889 14.869,11.135 15.605,18.46 0.638,6.353 -2.762,13.5 -8.66,18.206 -5.635,4.496 -12.571,6.446 -18.381,7.267 l 1.887,-18.116 c 0.441,-4.227 -2.629,-8.011 -6.857,-8.452 -4.254,-0.43 -8.013,2.629 -8.452,6.857 l -7.05,67.674 c -0.441,4.228 2.629,8.012 6.857,8.453 0.272,0.027 0.54,0.041 0.807,0.041 3.893,0 7.234,-2.942 7.646,-6.898 l 2.729,-26.2 c 5.738,8.095 12.295,16.158 20.514,22.567 10.281,8.018 22.049,12.261 33.226,12.261 4.331,0 8.576,-0.638 12.609,-1.942 4.041,-1.306 6.26,-5.643 4.953,-9.688 z"
   id="path215" />
				<path
   style="fill:#ffffff"
   d="m 385.537,159.732 c -1.308,-4.045 -5.654,-6.265 -9.689,-4.956 -11.277,3.639 -23.731,-1.651 -31.637,-7.812 -6.97,-5.436 -12.688,-12.545 -17.943,-20.034 7.029,-1.873 13.256,-4.905 18.378,-8.991 10.03,-8.003 15.539,-20.178 14.376,-31.777 -1.296,-12.923 -10.747,-24.796 -24.665,-30.986 -11.185,-4.975 -23.877,-6.029 -35.733,-2.969 -11.855,3.061 -22.448,10.127 -29.829,19.897 -2.561,3.392 -1.889,8.217 1.503,10.78 3.389,2.56 8.219,1.888 10.78,-1.503 5.292,-7.007 12.89,-12.075 21.395,-14.27 8.5,-2.195 17.604,-1.441 25.629,2.129 8.745,3.889 14.87,11.135 15.606,18.459 0.636,6.356 -2.763,13.502 -8.662,18.209 -5.636,4.496 -12.571,6.445 -18.381,7.266 l 1.887,-18.116 c 0.44,-4.228 -2.63,-8.012 -6.858,-8.451 -4.234,-0.425 -8.012,2.632 -8.451,6.858 l -7.048,67.672 c -0.441,4.227 2.629,8.011 6.856,8.452 0.272,0.027 0.54,0.041 0.807,0.041 3.893,0 7.234,-2.942 7.646,-6.898 l 2.729,-26.198 c 5.738,8.094 12.295,16.157 20.514,22.567 10.282,8.018 22.052,12.262 33.227,12.262 4.331,0 8.575,-0.639 12.606,-1.941 4.045,-1.308 6.265,-5.645 4.957,-9.69 z"
   id="path217" />
			</g>
		</g>
	</g>
	<g
   id="g299">
		<g
   id="g233">
			<path
   style="fill:#fd4242"
   d="m 187.718,219.316 c -3.065,-15.339 -14.528,-28.58 -29.204,-33.731 -14.889,-5.227 -32.112,-1.903 -43.889,8.462 -8.982,7.907 -14.182,19.38 -13.909,30.688 0.102,4.249 3.611,7.562 7.879,7.508 4.249,-0.103 7.611,-3.63 7.508,-7.879 -0.164,-6.814 3.085,-13.828 8.692,-18.764 7.549,-6.645 19.049,-8.852 28.622,-5.494 9.499,3.334 17.219,12.265 19.208,22.224 2.007,10.038 -1.556,21.101 -9.075,28.182 -7.044,6.634 -17.519,9.613 -27.134,7.912 1.118,-14.06 2.446,-28.098 4.079,-42.027 0.495,-4.221 -2.527,-8.044 -6.748,-8.539 -4.219,-0.498 -8.044,2.528 -8.539,6.748 -3.8,32.419 -6.239,65.391 -7.249,97.998 -0.132,4.248 3.205,7.799 7.454,7.93 0.082,0.003 0.162,0.004 0.242,0.004 4.141,0 7.559,-3.29 7.688,-7.458 0.403,-13.029 1.099,-26.117 1.96,-39.204 2.179,0.31 4.369,0.482 6.557,0.482 11.848,0 23.563,-4.47 32.24,-12.64 11.296,-10.636 16.641,-27.28 13.618,-42.402 z"
   id="path225" />
			<g
   id="g231">
				<path
   style="fill:#ffbc00"
   d="m 182.585,214.183 c -3.066,-15.34 -14.53,-28.58 -29.205,-33.731 -14.885,-5.227 -32.113,-1.903 -43.886,8.462 -8.983,7.906 -14.184,19.379 -13.911,30.687 0.101,4.249 3.642,7.553 7.879,7.508 4.249,-0.103 7.611,-3.63 7.508,-7.878 -0.164,-6.813 3.087,-13.827 8.694,-18.762 7.545,-6.646 19.049,-8.851 28.619,-5.494 9.5,3.334 17.219,12.265 19.21,22.225 2.006,10.038 -1.557,21.1 -9.076,28.18 -7.043,6.633 -17.517,9.608 -27.133,7.912 1.118,-14.062 2.446,-28.1 4.079,-42.027 0.495,-4.221 -2.526,-8.044 -6.747,-8.539 -4.214,-0.494 -8.044,2.525 -8.539,6.747 -3.799,32.412 -6.238,65.383 -7.247,97.999 -0.131,4.248 3.206,7.798 7.454,7.93 0.081,0.003 0.162,0.004 0.242,0.004 4.141,0 7.559,-3.29 7.688,-7.458 0.403,-13.03 1.099,-26.118 1.96,-39.204 2.178,0.309 4.368,0.481 6.556,0.48 11.85,0 23.566,-4.469 32.24,-12.64 11.292,-10.633 16.636,-27.278 13.615,-42.401 z"
   id="path227" />
				<path
   style="fill:#ffffff"
   d="m 177.451,209.048 c -3.065,-15.339 -14.528,-28.58 -29.204,-33.731 -14.889,-5.227 -32.112,-1.903 -43.889,8.462 -8.982,7.907 -14.182,19.38 -13.909,30.688 0.102,4.249 3.611,7.562 7.879,7.508 4.249,-0.103 7.611,-3.63 7.508,-7.879 -0.164,-6.814 3.085,-13.828 8.692,-18.764 7.549,-6.645 19.049,-8.852 28.622,-5.494 9.499,3.334 17.219,12.265 19.208,22.225 2.007,10.038 -1.556,21.101 -9.075,28.182 -7.044,6.634 -17.519,9.613 -27.134,7.912 1.118,-14.06 2.446,-28.098 4.079,-42.027 0.495,-4.221 -2.527,-8.044 -6.748,-8.539 -4.219,-0.498 -8.044,2.528 -8.539,6.748 -3.8,32.419 -6.239,65.391 -7.249,97.998 -0.132,4.248 3.205,7.799 7.454,7.93 0.082,0.003 0.162,0.004 0.242,0.004 4.141,0 7.559,-3.29 7.688,-7.458 0.403,-13.029 1.099,-26.117 1.96,-39.204 2.179,0.31 4.369,0.482 6.557,0.482 11.848,0 23.563,-4.47 32.24,-12.64 11.296,-10.636 16.641,-27.28 13.618,-42.403 z"
   id="path229" />
			</g>
		</g>
		<g
   id="g249">
			<g
   id="g237">
				<path
   style="fill:#fd4242"
   d="m 270.119,330.574 c -0.71,0 -1.433,-0.1 -2.149,-0.308 -23.127,-6.714 -44.196,-20.417 -59.962,-38.641 l -0.388,15.883 c -0.104,4.249 -3.595,7.579 -7.881,7.505 -4.249,-0.104 -7.609,-3.632 -7.505,-7.881 l 1.605,-65.619 c 0.088,-3.609 0.197,-8.1 2.192,-12.527 2.418,-5.365 7.313,-9.726 13.783,-12.278 7.233,-2.853 15.137,-2.985 21.7,-0.358 10.746,4.302 17.902,16.301 17.015,28.529 -0.768,10.588 -7.051,20.669 -16.807,26.965 -4.412,2.848 -9.481,4.919 -15.016,6.165 14.091,17.77 33.783,31.154 55.557,37.476 4.082,1.185 6.429,5.454 5.244,9.536 -0.979,3.367 -4.051,5.553 -7.388,5.553 z M 221.406,229.845 c -1.92,0 -3.954,0.396 -5.945,1.181 -2.682,1.058 -4.65,2.62 -5.401,4.285 -0.715,1.588 -0.777,4.125 -0.837,6.577 l -0.535,21.864 c 4.676,-0.495 9.994,-1.813 14.684,-4.839 5.633,-3.635 9.389,-9.439 9.803,-15.146 0.402,-5.543 -2.842,-11.308 -7.385,-13.127 -1.325,-0.531 -2.815,-0.795 -4.384,-0.795 z"
   id="path235" />
			</g>
			<g
   id="g247">
				<g
   id="g241">
					<path
   style="fill:#ffbc00"
   d="m 264.986,325.44 c -0.71,0 -1.433,-0.1 -2.149,-0.308 -23.129,-6.714 -44.197,-20.417 -59.963,-38.639 l -0.388,15.883 c -0.104,4.25 -3.59,7.583 -7.881,7.505 -4.249,-0.104 -7.609,-3.633 -7.505,-7.881 l 1.605,-65.619 c 0.089,-3.612 0.2,-8.104 2.193,-12.527 2.417,-5.363 7.311,-9.725 13.781,-12.279 7.23,-2.855 15.141,-2.984 21.702,-0.358 10.746,4.305 17.902,16.304 17.015,28.529 -0.769,10.589 -7.052,20.67 -16.807,26.965 -4.411,2.848 -9.481,4.92 -15.017,6.167 14.092,17.769 33.783,31.153 55.558,37.475 4.082,1.185 6.43,5.454 5.245,9.536 -0.98,3.364 -4.052,5.551 -7.389,5.551 z M 216.273,224.711 c -1.92,0 -3.956,0.396 -5.946,1.181 -2.681,1.058 -4.649,2.62 -5.4,4.286 -0.714,1.587 -0.777,4.126 -0.838,6.581 l -0.535,21.86 c 4.677,-0.495 9.996,-1.812 14.685,-4.84 5.632,-3.635 9.388,-9.439 9.803,-15.147 0.402,-5.54 -2.842,-11.306 -7.386,-13.127 -1.325,-0.53 -2.816,-0.794 -4.383,-0.794 z"
   id="path239" />
				</g>
				<g
   id="g245">
					<path
   style="fill:#ffffff"
   d="m 259.852,320.307 c -0.71,0 -1.433,-0.1 -2.149,-0.308 -23.127,-6.714 -44.196,-20.417 -59.962,-38.641 l -0.388,15.883 c -0.104,4.249 -3.595,7.579 -7.881,7.505 -4.249,-0.104 -7.609,-3.632 -7.505,-7.881 l 1.605,-65.619 c 0.088,-3.609 0.197,-8.1 2.192,-12.527 2.418,-5.365 7.313,-9.726 13.783,-12.278 7.233,-2.853 15.137,-2.985 21.7,-0.358 10.746,4.302 17.902,16.301 17.015,28.529 -0.768,10.588 -7.051,20.669 -16.807,26.965 -4.412,2.848 -9.481,4.919 -15.016,6.165 14.091,17.77 33.783,31.154 55.557,37.476 4.082,1.185 6.429,5.454 5.244,9.536 -0.979,3.366 -4.051,5.553 -7.388,5.553 z M 211.139,219.578 c -1.92,0 -3.954,0.396 -5.945,1.181 -2.682,1.058 -4.65,2.62 -5.401,4.285 -0.715,1.588 -0.777,4.125 -0.837,6.577 l -0.535,21.864 c 4.676,-0.495 9.994,-1.813 14.684,-4.839 5.633,-3.635 9.389,-9.439 9.803,-15.146 0.402,-5.543 -2.842,-11.308 -7.385,-13.127 -1.325,-0.531 -2.816,-0.795 -4.384,-0.795 z"
   id="path243" />
				</g>
			</g>
		</g>
		<g
   id="g265">
			<g
   id="g253">
				<path
   style="fill:#fd4242"
   d="m 265.648,305.115 c -0.115,0 -0.23,-0.003 -0.346,-0.007 -4.246,-0.188 -7.537,-3.781 -7.349,-8.028 l 2.812,-63.672 c 0.188,-4.246 3.815,-7.521 8.028,-7.349 4.246,0.188 7.537,3.782 7.349,8.028 l -2.812,63.672 c -0.182,4.13 -3.588,7.356 -7.682,7.356 z"
   id="path251" />
			</g>
			<g
   id="g263">
				<g
   id="g257">
					<path
   style="fill:#ffbc00"
   d="m 260.516,299.98 c -0.115,0 -0.23,-0.003 -0.346,-0.007 -4.246,-0.188 -7.536,-3.782 -7.349,-8.028 l 2.812,-63.672 c 0.188,-4.248 3.805,-7.531 8.028,-7.349 4.246,0.188 7.537,3.781 7.349,8.028 l -2.812,63.672 c -0.183,4.131 -3.589,7.356 -7.682,7.356 z"
   id="path255" />
				</g>
				<g
   id="g261">
					<path
   style="fill:#ffffff"
   d="m 255.381,294.847 c -0.115,0 -0.23,-0.003 -0.346,-0.007 -4.246,-0.188 -7.537,-3.781 -7.349,-8.028 l 2.812,-63.672 c 0.188,-4.246 3.815,-7.521 8.028,-7.349 4.246,0.188 7.537,3.782 7.349,8.028 l -2.812,63.672 c -0.183,4.131 -3.588,7.356 -7.682,7.356 z"
   id="path259" />
				</g>
			</g>
		</g>
		<g
   id="g281">
			<g
   id="g269">
				<path
   style="fill:#fd4242"
   d="m 331.518,320.187 c -8.569,0 -16.694,-2.165 -23.426,-6.314 -10.276,-6.338 -17.769,-17.665 -20.559,-31.076 -2.127,-10.23 -1.69,-21.695 1.337,-35.048 2.082,-9.19 4.892,-17.175 8.494,-24.085 -2.662,-1.628 -5.221,-3.342 -7.74,-5.029 -1.447,-0.969 -2.895,-1.939 -4.353,-2.885 -5.436,-3.526 -11.891,-7.263 -18.547,-8.243 -5.93,-0.866 -11.659,0.833 -14.595,4.346 -2.727,3.263 -7.578,3.694 -10.84,0.97 -3.261,-2.724 -3.695,-7.578 -0.969,-10.84 6.388,-7.645 17.358,-11.353 28.645,-9.704 9.582,1.412 17.853,6.129 24.681,10.557 1.522,0.987 3.032,1.999 4.543,3.01 2.637,1.766 5.196,3.48 7.764,5.027 0.352,-0.41 0.71,-0.814 1.071,-1.214 11.042,-12.178 26.853,-18.483 41.222,-16.481 8.822,1.234 18.075,6.9 18.859,16.782 0.398,5.034 -1.676,10.124 -5.691,13.965 -3.351,3.205 -7.428,4.944 -10.203,5.972 -12.788,4.74 -27.103,4.87 -39.982,0.477 -3.086,5.812 -5.516,12.696 -7.347,20.776 -2.529,11.159 -2.948,20.486 -1.279,28.514 1.933,9.287 6.878,16.981 13.569,21.108 5.584,3.442 12.885,4.737 20.551,3.651 6.902,-0.978 14.006,-3.754 21.722,-8.486 3.624,-2.22 8.362,-1.085 10.584,2.538 2.221,3.624 1.085,8.362 -2.538,10.584 -9.548,5.854 -18.578,9.323 -27.607,10.603 -2.476,0.352 -4.939,0.525 -7.366,0.525 z M 321.23,217.198 c 8.156,1.744 16.785,1.176 24.633,-1.733 1.49,-0.554 3.624,-1.432 4.911,-2.663 0.765,-0.732 0.993,-1.459 0.986,-1.627 -0.039,-0.492 -2.103,-2.258 -5.645,-2.753 -8.308,-1.165 -17.556,2.158 -24.885,8.776 z"
   id="path267" />
			</g>
			<g
   id="g279">
				<g
   id="g273">
					<path
   style="fill:#ffbc00"
   d="m 326.386,315.054 c -8.569,0 -16.696,-2.165 -23.428,-6.316 -10.275,-6.335 -17.768,-17.662 -20.557,-31.075 -2.127,-10.225 -1.69,-21.69 1.335,-35.048 2.082,-9.19 4.894,-17.175 8.495,-24.086 -2.658,-1.626 -5.214,-3.337 -7.73,-5.022 -1.45,-0.972 -2.901,-1.944 -4.364,-2.892 -5.439,-3.526 -11.894,-7.263 -18.546,-8.241 -5.935,-0.879 -11.66,0.832 -14.594,4.344 -2.724,3.263 -7.577,3.7 -10.84,0.972 -3.262,-2.724 -3.698,-7.578 -0.972,-10.84 6.387,-7.648 17.358,-11.37 28.646,-9.704 9.575,1.408 17.848,6.125 24.679,10.554 1.526,0.989 3.04,2.004 4.554,3.017 2.633,1.764 5.188,3.475 7.752,5.019 0.352,-0.41 0.709,-0.814 1.071,-1.214 11.04,-12.175 26.839,-18.49 41.224,-16.481 8.823,1.234 18.076,6.902 18.857,16.783 0.4,5.032 -1.673,10.122 -5.69,13.965 -3.356,3.208 -7.43,4.945 -10.204,5.972 -12.786,4.736 -27.103,4.866 -39.982,0.477 -3.086,5.812 -5.516,12.696 -7.348,20.775 -2.528,11.164 -2.946,20.491 -1.277,28.514 1.933,9.289 6.878,16.982 13.568,21.107 5.585,3.443 12.882,4.739 20.551,3.654 6.899,-0.979 14.006,-3.755 21.725,-8.486 3.625,-2.221 8.362,-1.085 10.583,2.539 2.222,3.624 1.085,8.362 -2.539,10.583 -9.55,5.854 -18.581,9.322 -27.607,10.603 -2.473,0.354 -4.936,0.527 -7.362,0.527 z m -10.29,-102.991 c 8.158,1.745 16.783,1.176 24.634,-1.734 1.491,-0.552 3.621,-1.429 4.911,-2.663 0.764,-0.73 0.992,-1.457 0.985,-1.625 -0.039,-0.496 -2.103,-2.261 -5.644,-2.756 -8.308,-1.162 -17.557,2.165 -24.886,8.778 z"
   id="path271" />
				</g>
				<g
   id="g277">
					<path
   style="fill:#ffffff"
   d="m 321.25,309.92 c -8.569,0 -16.694,-2.165 -23.426,-6.314 -10.276,-6.338 -17.769,-17.665 -20.559,-31.076 -2.127,-10.23 -1.69,-21.695 1.337,-35.048 2.082,-9.19 4.892,-17.175 8.494,-24.085 -2.662,-1.628 -5.221,-3.342 -7.74,-5.029 -1.447,-0.969 -2.895,-1.939 -4.353,-2.885 -5.436,-3.526 -11.891,-7.263 -18.547,-8.243 -5.93,-0.866 -11.659,0.833 -14.595,4.346 -2.727,3.263 -7.578,3.694 -10.84,0.97 -3.261,-2.724 -3.695,-7.578 -0.969,-10.84 6.388,-7.645 17.358,-11.353 28.645,-9.704 9.582,1.412 17.853,6.129 24.681,10.557 1.522,0.987 3.032,1.999 4.543,3.01 2.637,1.766 5.196,3.48 7.764,5.027 0.352,-0.41 0.71,-0.814 1.071,-1.214 11.042,-12.178 26.853,-18.483 41.222,-16.481 8.822,1.234 18.075,6.9 18.859,16.782 0.398,5.034 -1.676,10.124 -5.691,13.965 -3.351,3.205 -7.428,4.944 -10.203,5.972 -12.788,4.74 -27.103,4.87 -39.982,0.477 -3.086,5.812 -5.516,12.696 -7.347,20.776 -2.529,11.159 -2.948,20.486 -1.279,28.514 1.933,9.287 6.878,16.981 13.569,21.108 5.584,3.442 12.885,4.737 20.551,3.651 6.902,-0.978 14.006,-3.754 21.722,-8.486 3.624,-2.22 8.362,-1.085 10.584,2.538 2.221,3.624 1.085,8.362 -2.538,10.584 -9.548,5.854 -18.578,9.323 -27.607,10.603 -2.476,0.352 -4.938,0.525 -7.366,0.525 z M 310.963,206.93 c 8.156,1.744 16.785,1.176 24.633,-1.733 1.49,-0.554 3.624,-1.432 4.911,-2.663 0.766,-0.732 0.993,-1.459 0.986,-1.627 -0.039,-0.492 -2.103,-2.258 -5.645,-2.753 -8.308,-1.164 -17.556,2.159 -24.885,8.776 z"
   id="path275" />
				</g>
			</g>
		</g>
		<g
   id="g297">
			<g
   id="g285">
				<path
   style="fill:#fd4242"
   d="m 392.735,294.152 c -4.631,0 -9.004,-0.853 -12.957,-2.552 -11.787,-5.065 -19.76,-18.389 -19.389,-32.403 0.302,-11.313 5.561,-22.875 14.812,-32.556 4.391,-4.597 8.76,-7.801 13.359,-9.794 6.329,-2.747 13.041,-3.116 18.895,-1.037 7.255,2.571 12.547,8.882 13.478,16.074 0.966,7.464 -2.466,14.835 -10.201,21.91 -9.927,9.083 -20.065,14.937 -31.399,18.055 1.713,2.517 3.955,4.506 6.523,5.609 3.731,1.605 8.689,1.712 13.961,0.31 5.441,-1.448 10.877,-4.293 16.135,-7.044 3.768,-1.969 8.417,-0.517 10.386,3.249 1.971,3.765 0.517,8.416 -3.249,10.386 -6.005,3.144 -12.214,6.394 -19.312,8.282 -3.784,1.009 -7.49,1.511 -11.042,1.511 z m 6.855,-64.272 c -1.552,0 -3.243,0.367 -4.905,1.088 -2.679,1.161 -5.411,3.223 -8.355,6.305 -5.781,6.05 -9.373,12.876 -10.314,19.504 8.657,-2.545 16.528,-7.204 24.326,-14.338 3.658,-3.346 5.598,-6.472 5.326,-8.579 -0.183,-1.405 -1.626,-2.93 -3.359,-3.543 -0.825,-0.293 -1.744,-0.437 -2.719,-0.437 z"
   id="path283" />
			</g>
			<g
   id="g295">
				<g
   id="g289">
					<path
   style="fill:#ffbc00"
   d="m 387.602,289.017 c -4.632,10e-4 -9.005,-0.852 -12.958,-2.55 -11.788,-5.067 -19.761,-18.391 -19.388,-32.403 0.299,-11.31 5.559,-22.871 14.809,-32.556 4.395,-4.6 8.766,-7.803 13.36,-9.794 6.332,-2.746 13.041,-3.114 18.895,-1.038 7.256,2.577 12.547,8.886 13.478,16.076 0.967,7.46 -2.464,14.833 -10.198,21.91 -9.929,9.082 -20.07,14.937 -31.401,18.056 1.714,2.515 3.954,4.504 6.522,5.608 3.73,1.605 8.69,1.714 13.964,0.311 5.435,-1.448 10.873,-4.294 16.133,-7.047 3.77,-1.967 8.417,-0.515 10.388,3.25 1.97,3.767 0.515,8.416 -3.25,10.388 -6.006,3.142 -12.217,6.393 -19.311,8.282 -3.785,1.005 -7.491,1.507 -11.043,1.507 z m 6.858,-64.271 c -1.553,0 -3.247,0.368 -4.911,1.09 -2.674,1.158 -5.406,3.221 -8.353,6.305 -5.78,6.05 -9.371,12.879 -10.312,19.504 8.657,-2.545 16.528,-7.205 24.327,-14.339 3.656,-3.346 5.598,-6.472 5.325,-8.576 -0.183,-1.408 -1.627,-2.932 -3.361,-3.547 -0.824,-0.293 -1.742,-0.437 -2.715,-0.437 z"
   id="path287" />
				</g>
				<g
   id="g293">
					<path
   style="fill:#ffffff"
   d="m 382.468,283.885 c -4.631,0 -9.004,-0.853 -12.957,-2.552 -11.787,-5.065 -19.76,-18.389 -19.389,-32.403 0.302,-11.313 5.561,-22.875 14.812,-32.556 4.391,-4.597 8.76,-7.801 13.359,-9.794 6.329,-2.747 13.041,-3.116 18.895,-1.037 7.255,2.571 12.547,8.882 13.478,16.074 0.966,7.464 -2.467,14.835 -10.201,21.91 -9.927,9.083 -20.065,14.937 -31.399,18.055 1.713,2.517 3.955,4.506 6.523,5.609 3.731,1.605 8.689,1.712 13.961,0.31 5.441,-1.448 10.877,-4.293 16.135,-7.044 3.768,-1.969 8.417,-0.517 10.386,3.249 1.971,3.765 0.517,8.416 -3.249,10.386 -6.005,3.144 -12.214,6.394 -19.312,8.282 -3.784,1.009 -7.49,1.511 -11.042,1.511 z m 6.855,-64.272 c -1.552,0 -3.243,0.367 -4.905,1.088 -2.679,1.161 -5.411,3.223 -8.355,6.305 -5.781,6.05 -9.373,12.876 -10.314,19.504 8.657,-2.545 16.528,-7.204 24.326,-14.338 3.658,-3.346 5.598,-6.472 5.326,-8.579 -0.183,-1.405 -1.626,-2.93 -3.359,-3.543 -0.825,-0.293 -1.745,-0.437 -2.719,-0.437 z"
   id="path291" />
				</g>
			</g>
		</g>
	</g>
	<g
   id="g333">
		<polygon
   style="fill:#fd4242"
   points="386.315,129.135 374.444,127.095 382.566,118.2 384.606,106.329 393.501,114.451 405.372,116.491 397.25,125.386 395.21,137.257 "
   id="polygon301" />
		<polygon
   style="fill:#fd4242"
   points="408.197,169.1 401.837,163.767 409.759,161.29 415.092,154.93 417.569,162.852 423.929,168.185 416.007,170.663 410.674,177.022 "
   id="polygon303" />
		<polygon
   style="fill:#fd4242"
   points="421.537,197.819 416.859,198.23 419.037,194.071 418.627,189.393 422.786,191.571 427.463,191.161 425.286,195.32 425.696,199.997 "
   id="polygon305" />
		<polygon
   style="fill:#fd4242"
   points="97.804,158.055 92.997,158.023 95.617,153.993 95.648,149.187 99.678,151.806 104.485,151.838 101.865,155.868 101.834,160.674 "
   id="polygon307" />
		<polygon
   style="fill:#fd4242"
   points="112.094,110.078 105.369,106.771 111.782,102.893 115.089,96.167 118.967,102.58 125.693,105.887 119.28,109.766 115.972,116.491 "
   id="polygon309" />
		<polygon
   style="fill:#fd4242"
   points="236.615,44.687 230.407,43.147 235.052,38.751 236.592,32.543 240.988,37.189 247.196,38.729 242.551,43.125 241.011,49.333 "
   id="polygon311" />
		<polygon
   style="fill:#fd4242"
   points="281.708,36.158 279.008,34.311 282.02,33.034 283.868,30.334 285.145,33.346 287.845,35.194 284.832,36.471 282.985,39.171 "
   id="polygon313" />
		<polygon
   style="fill:#fd4242"
   points="84.21,258.194 79.301,256.994 82.96,253.508 84.161,248.599 87.646,252.258 92.555,253.459 88.896,256.944 87.695,261.854 "
   id="polygon315" />
		<polygon
   style="fill:#fd4242"
   points="77.917,305.287 73.115,301.177 79.166,299.351 83.277,294.549 85.102,300.601 89.904,304.711 83.853,306.537 79.742,311.339 "
   id="polygon317" />
		<polygon
   style="fill:#fd4242"
   points="399.418,313.553 395.21,313.106 397.856,309.803 398.302,305.595 401.605,308.241 405.814,308.688 403.167,311.99 402.721,316.199 "
   id="polygon319" />
		<polygon
   style="fill:#fd4242"
   points="431.877,247.795 428.789,244.622 433.127,243.734 436.3,240.646 437.188,244.984 440.276,248.157 435.939,249.045 432.765,252.133 "
   id="polygon321" />
		<polygon
   style="fill:#fd4242"
   points="425.535,307.782 421.278,304.711 426.16,302.783 429.231,298.526 431.159,303.408 435.416,306.479 430.534,308.407 427.463,312.664 "
   id="polygon323" />
		<polygon
   style="fill:#fd4242"
   points="154.537,310.567 146.901,308.246 152.974,303.069 155.295,295.433 160.473,301.507 168.109,303.828 162.035,309.005 159.714,316.641 "
   id="polygon325" />
		<polygon
   style="fill:#fd4242"
   points="370.543,73.687 368.7,72.308 370.855,71.5 372.234,69.657 373.043,71.813 374.885,73.192 372.73,74 371.351,75.843 "
   id="polygon327" />
		<polygon
   style="fill:#fd4242"
   points="316.015,40.916 312.145,39.171 315.702,36.855 317.447,32.985 319.764,36.542 323.633,38.287 320.076,40.603 318.331,44.473 "
   id="polygon329" />
		<polygon
   style="fill:#fd4242"
   points="181.805,41.929 179.154,42.705 179.931,40.054 179.154,37.403 181.805,38.18 184.456,37.403 183.68,40.054 184.456,42.705 "
   id="polygon331" />
	</g>
</g><text
   xml:space="preserve"
   style="font-style:normal;font-weight:normal;font-size:74.6667px;line-height:1.25;font-family:sans-serif;fill:#000000;fill-opacity:1;stroke:none"
   x="120.47288"
   y="435.85953"
   id="text339"><tspan
     sodipodi:role="line"
     id="tspan337"
     x="120.47288"
     y="435.85953"
     style="font-style:normal;font-variant:normal;font-weight:normal;font-stretch:normal;font-size:74.6667px;font-family:Ubuntu;-inkscape-font-specification:Ubuntu">350 Dhs</tspan></text><g
   id="g590"><g
     id="g501">
	<path
   style="fill:#ff6c6c"
   d="M 95.161,512 C 70.633,512 50.678,492.045 50.678,467.516 V 205.322 C 50.678,92.107 142.785,0 255.999,0 369.214,0 461.322,92.107 461.322,205.322 v 262.194 c 0,24.529 -19.956,44.484 -44.484,44.484 z"
   id="path341" />
	<path
   style="fill:#ffffff"
   d="M 416.839,503.021 H 95.16 c -19.578,0 -35.504,-15.928 -35.504,-35.504 V 205.322 C 59.656,97.058 147.736,8.978 256,8.978 c 108.264,0 196.344,88.08 196.344,196.344 v 262.195 c -10e-4,19.577 -15.927,35.504 -35.505,35.504 z M 256,11.544 c -106.85,0 -193.778,86.929 -193.778,193.778 v 262.195 c 0,18.162 14.777,32.939 32.939,32.939 H 416.84 c 18.162,0 32.939,-14.777 32.939,-32.939 V 205.322 C 449.778,98.472 362.849,11.544 256,11.544 Z"
   id="path343" />
	<path
   style="fill:#ffffff"
   d="m 427.976,361.523 v 96.459 c 0,11.411 -9.25,20.661 -20.661,20.661 h -302.63 c -11.411,0 -20.661,-9.25 -20.661,-20.661 v -96.459 c 0,-11.411 9.25,-20.661 20.661,-20.661 h 302.63 c 11.411,10e-4 20.661,9.251 20.661,20.661 z"
   id="path345" />
	<g
   id="g389">
		<g
   id="g361">
			<g
   id="g349">
				<path
   style="fill:#fd4242"
   d="m 183.716,181.37 c -11.857,0 -23.717,-5.62 -31.889,-15.16 -7.519,-8.777 -11.792,-20.497 -12.031,-33.003 -0.204,-10.781 2.607,-22.186 8.129,-32.983 6.493,-12.692 17.921,-22.945 26.851,-29.58 2.882,-2.86 6.293,-5.202 10.053,-6.813 9.258,-3.969 20.166,-3.471 29.184,1.337 7.751,4.129 13.959,11.317 17.68,20.271 1.923,-2.778 3.771,-5.622 5.595,-8.428 2.317,-3.562 7.083,-4.575 10.647,-2.26 3.563,2.317 4.575,7.083 2.259,10.647 -4.385,6.748 -8.901,13.693 -14.506,19.996 0.203,7.11 -0.647,13.689 -1.46,18.687 -2.527,15.557 -6.845,27.2 -13.588,36.64 -8.993,12.59 -22.451,20.304 -36,20.637 -0.308,0.009 -0.616,0.012 -0.924,0.012 z m -17.704,-81.061 c -1.75,2.334 -3.222,4.653 -4.384,6.925 -4.371,8.547 -6.6,17.427 -6.443,25.681 0.17,8.941 3.129,17.209 8.331,23.282 5.324,6.214 13.266,9.933 20.745,9.775 8.61,-0.212 17.75,-5.652 23.854,-14.197 5.317,-7.444 8.788,-17.029 10.922,-30.163 0.155,-0.956 0.296,-1.891 0.424,-2.808 -4.325,2.438 -8.795,4.147 -13.3,5.069 -11.981,2.445 -24.262,-0.927 -32.073,-8.803 -4.035,-4.069 -6.796,-9.23 -8.076,-14.761 z m 18.93,-18.034 c -1.954,2.159 -3.377,4.78 -3.987,7.528 -1.141,5.127 0.454,10.791 4.062,14.43 4.132,4.167 11.227,5.957 18.061,4.559 6.774,-1.384 12.537,-5.376 16.684,-9.134 -0.18,-1.154 -0.402,-2.272 -0.667,-3.359 -1.928,-7.905 -6.534,-14.465 -12.319,-17.546 -4.862,-2.592 -10.947,-2.888 -15.884,-0.774 -1.463,0.627 -2.836,1.479 -4.073,2.501 -0.456,0.615 -1.013,1.171 -1.667,1.643 -0.071,0.052 -0.14,0.102 -0.21,0.152 z"
   id="path347" />
			</g>
			<g
   id="g359">
				<g
   id="g353">
					<path
   style="fill:#ffbc00"
   d="m 178.588,176.238 c -11.86,0 -23.721,-5.622 -31.894,-15.159 -7.521,-8.778 -11.794,-20.5 -12.031,-33.007 -0.204,-10.781 2.607,-22.186 8.128,-32.98 6.495,-12.696 17.923,-22.948 26.855,-29.582 2.881,-2.86 6.29,-5.201 10.048,-6.812 9.258,-3.968 20.167,-3.466 29.184,1.335 7.752,4.131 13.96,11.32 17.681,20.273 1.924,-2.778 3.771,-5.623 5.595,-8.43 2.314,-3.563 7.078,-4.578 10.647,-2.259 3.564,2.316 4.576,7.082 2.26,10.647 -4.383,6.744 -8.895,13.688 -14.506,19.996 0.203,7.11 -0.646,13.688 -1.459,18.686 -2.529,15.561 -6.847,27.203 -13.588,36.643 -8.992,12.589 -22.45,20.303 -35.999,20.638 -0.307,0.007 -0.614,0.011 -0.921,0.011 z m -17.71,-81.062 c -1.75,2.332 -3.222,4.653 -4.384,6.926 -4.371,8.545 -6.599,17.424 -6.442,25.68 0.169,8.942 3.128,17.21 8.329,23.282 5.325,6.214 13.235,9.954 20.748,9.776 8.61,-0.213 17.75,-5.653 23.853,-14.197 5.316,-7.443 8.786,-17.028 10.922,-30.166 0.155,-0.955 0.296,-1.891 0.423,-2.807 -4.325,2.438 -8.797,4.149 -13.302,5.069 -11.973,2.444 -24.264,-0.926 -32.072,-8.803 -4.034,-4.069 -6.795,-9.227 -8.075,-14.76 z m 18.931,-18.035 c -1.954,2.159 -3.377,4.781 -3.99,7.53 -1.139,5.126 0.456,10.79 4.063,14.427 4.131,4.168 11.223,5.959 18.06,4.56 6.774,-1.383 12.537,-5.375 16.686,-9.134 -0.179,-1.154 -0.402,-2.272 -0.666,-3.358 -1.929,-7.905 -6.535,-14.465 -12.32,-17.549 -4.862,-2.59 -10.951,-2.886 -15.884,-0.773 -1.462,0.627 -2.835,1.479 -4.072,2.501 -0.457,0.615 -1.015,1.171 -1.668,1.645 -0.069,0.051 -0.138,0.101 -0.209,0.151 z"
   id="path351" />
				</g>
				<g
   id="g357">
					<path
   style="fill:#ffffff"
   d="m 173.449,171.103 c -11.857,0 -23.717,-5.62 -31.889,-15.16 -7.519,-8.777 -11.792,-20.497 -12.031,-33.003 -0.204,-10.781 2.607,-22.186 8.129,-32.983 6.493,-12.692 17.921,-22.945 26.851,-29.58 2.882,-2.86 6.293,-5.202 10.053,-6.813 9.258,-3.969 20.166,-3.471 29.184,1.337 7.751,4.129 13.959,11.317 17.68,20.271 1.923,-2.778 3.771,-5.622 5.595,-8.428 2.317,-3.562 7.083,-4.575 10.647,-2.26 3.563,2.317 4.575,7.083 2.259,10.647 -4.385,6.748 -8.901,13.693 -14.506,19.996 0.203,7.11 -0.647,13.689 -1.46,18.687 -2.527,15.557 -6.845,27.2 -13.588,36.64 -8.993,12.59 -22.451,20.304 -36,20.637 -0.308,0.008 -0.616,0.012 -0.924,0.012 z M 155.745,90.042 c -1.75,2.334 -3.222,4.653 -4.384,6.925 -4.371,8.547 -6.6,17.427 -6.443,25.681 0.17,8.941 3.129,17.209 8.331,23.282 5.324,6.214 13.266,9.933 20.745,9.775 8.61,-0.212 17.75,-5.652 23.854,-14.197 5.317,-7.444 8.788,-17.029 10.922,-30.163 0.155,-0.956 0.296,-1.891 0.424,-2.808 -4.325,2.438 -8.795,4.147 -13.3,5.069 -11.981,2.445 -24.262,-0.927 -32.073,-8.803 -4.035,-4.069 -6.796,-9.23 -8.076,-14.761 z m 18.93,-18.034 c -1.954,2.159 -3.377,4.78 -3.987,7.528 -1.141,5.127 0.454,10.791 4.062,14.43 4.132,4.167 11.227,5.957 18.061,4.559 6.774,-1.384 12.537,-5.376 16.684,-9.134 -0.18,-1.154 -0.402,-2.272 -0.667,-3.359 -1.928,-7.905 -6.533,-14.465 -12.319,-17.546 -4.862,-2.592 -10.947,-2.888 -15.884,-0.774 -1.463,0.627 -2.836,1.479 -4.073,2.501 -0.456,0.615 -1.013,1.171 -1.667,1.643 -0.071,0.052 -0.14,0.102 -0.21,0.152 z"
   id="path355" />
				</g>
			</g>
		</g>
		<g
   id="g377">
			<g
   id="g365">
				<path
   style="fill:#fd4242"
   d="m 263.104,176.498 c -6.154,0.001 -12.258,-3.615 -15.825,-9.473 -2.939,-4.822 -3.794,-10.172 -4.244,-14.769 -1.34,-13.718 0.064,-27.939 4.06,-41.125 1.233,-4.067 5.525,-6.372 9.597,-5.133 4.067,1.232 6.366,5.529 5.133,9.597 -3.417,11.274 -4.617,23.433 -3.471,35.163 0.279,2.863 0.745,6.084 2.07,8.261 0.828,1.362 2.143,2.142 2.693,2.087 0.382,-0.031 1.27,-0.466 2.159,-1.541 1.197,-1.449 2.146,-3.581 3.093,-5.822 5.673,-13.442 10.06,-27.497 13.043,-41.771 0.799,-3.834 4.334,-6.456 8.251,-6.089 3.898,0.365 6.902,3.599 6.977,7.513 0.348,18.026 -0.006,36.298 -1.054,54.31 -0.247,4.245 -3.905,7.479 -8.13,7.236 -4.242,-0.247 -7.483,-3.887 -7.236,-8.13 0.045,-0.777 0.09,-1.557 0.133,-2.335 -0.885,1.674 -1.919,3.328 -3.214,4.896 -3.453,4.175 -7.991,6.686 -12.78,7.073 -0.417,0.036 -0.836,0.052 -1.255,0.052 z"
   id="path363" />
			</g>
			<g
   id="g375">
				<g
   id="g369">
					<path
   style="fill:#ffbc00"
   d="m 257.974,171.365 c -6.154,0.001 -12.258,-3.613 -15.826,-9.471 -2.94,-4.823 -3.795,-10.175 -4.245,-14.773 -1.34,-13.712 0.063,-27.932 4.058,-41.123 1.233,-4.07 5.526,-6.368 9.596,-5.134 4.069,1.233 6.367,5.529 5.134,9.596 -3.416,11.279 -4.616,23.439 -3.47,35.163 0.281,2.866 0.745,6.089 2.069,8.263 0.83,1.36 2.12,2.118 2.694,2.087 0.379,-0.031 1.27,-0.467 2.157,-1.54 1.201,-1.452 2.148,-3.581 3.093,-5.818 5.673,-13.444 10.062,-27.499 13.045,-41.777 0.799,-3.833 4.334,-6.453 8.251,-6.087 3.898,0.365 6.902,3.599 6.977,7.514 0.347,18.042 -0.007,36.315 -1.053,54.309 -0.247,4.245 -3.907,7.479 -8.13,7.236 -4.242,-0.247 -7.483,-3.887 -7.236,-8.13 0.045,-0.778 0.089,-1.555 0.131,-2.334 -0.882,1.672 -1.918,3.327 -3.215,4.896 -3.447,4.171 -7.985,6.684 -12.774,7.073 -0.418,0.034 -0.838,0.05 -1.256,0.05 z"
   id="path367" />
				</g>
				<g
   id="g373">
					<path
   style="fill:#ffffff"
   d="m 252.837,166.231 c -6.154,0.001 -12.258,-3.615 -15.825,-9.473 -2.939,-4.822 -3.794,-10.172 -4.244,-14.769 -1.34,-13.718 0.064,-27.939 4.06,-41.125 1.233,-4.067 5.525,-6.372 9.597,-5.133 4.067,1.232 6.366,5.529 5.133,9.597 -3.417,11.274 -4.617,23.433 -3.471,35.163 0.279,2.863 0.745,6.084 2.07,8.261 0.828,1.362 2.143,2.142 2.693,2.087 0.382,-0.031 1.27,-0.466 2.159,-1.541 1.197,-1.449 2.146,-3.581 3.093,-5.822 5.673,-13.442 10.06,-27.497 13.043,-41.771 0.799,-3.834 4.334,-6.456 8.251,-6.089 3.898,0.365 6.902,3.599 6.977,7.513 0.348,18.026 -0.006,36.298 -1.054,54.31 -0.247,4.245 -3.905,7.479 -8.13,7.236 -4.242,-0.247 -7.483,-3.887 -7.236,-8.13 0.045,-0.777 0.09,-1.557 0.133,-2.335 -0.884,1.674 -1.919,3.328 -3.214,4.896 -3.453,4.175 -7.991,6.686 -12.78,7.073 -0.417,0.035 -0.837,0.052 -1.255,0.052 z"
   id="path371" />
				</g>
			</g>
		</g>
		<g
   id="g387">
			<path
   style="fill:#fd4242"
   d="m 395.804,169.999 c -1.308,-4.045 -5.654,-6.265 -9.689,-4.956 -11.277,3.639 -23.731,-1.651 -31.637,-7.812 -6.97,-5.436 -12.688,-12.545 -17.943,-20.034 7.029,-1.873 13.256,-4.905 18.378,-8.991 10.03,-8.003 15.539,-20.178 14.376,-31.777 -1.296,-12.923 -10.747,-24.796 -24.665,-30.986 -11.185,-4.975 -23.877,-6.029 -35.733,-2.969 -11.855,3.061 -22.448,10.127 -29.829,19.897 -2.561,3.392 -1.889,8.217 1.503,10.78 3.389,2.56 8.219,1.888 10.78,-1.503 5.292,-7.007 12.89,-12.075 21.395,-14.27 8.5,-2.195 17.604,-1.441 25.629,2.129 8.745,3.889 14.87,11.135 15.606,18.459 0.636,6.356 -2.763,13.502 -8.662,18.209 -5.636,4.496 -12.571,6.445 -18.381,7.266 l 1.887,-18.116 c 0.44,-4.228 -2.63,-8.012 -6.858,-8.451 -4.234,-0.425 -8.012,2.632 -8.451,6.858 l -7.048,67.672 c -0.441,4.227 2.629,8.011 6.856,8.452 0.272,0.027 0.54,0.041 0.807,0.041 3.893,0 7.234,-2.942 7.646,-6.898 l 2.729,-26.198 c 5.738,8.094 12.295,16.157 20.514,22.567 10.282,8.018 22.052,12.261 33.227,12.261 4.331,0 8.575,-0.639 12.606,-1.941 4.045,-1.306 6.265,-5.644 4.957,-9.689 z"
   id="path379" />
			<g
   id="g385">
				<path
   style="fill:#ffbc00"
   d="m 390.672,164.865 c -1.306,-4.045 -5.653,-6.269 -9.689,-4.956 -11.274,3.636 -23.732,-1.648 -31.636,-7.813 -6.971,-5.435 -12.687,-12.543 -17.943,-20.033 7.029,-1.871 13.257,-4.905 18.378,-8.991 10.032,-8.004 15.54,-20.179 14.375,-31.775 -1.297,-12.922 -10.747,-24.795 -24.663,-30.986 -11.19,-4.975 -23.878,-6.035 -35.733,-2.97 -11.856,3.061 -22.45,10.127 -29.83,19.898 -2.561,3.392 -1.889,8.217 1.503,10.78 3.389,2.56 8.218,1.889 10.78,-1.503 5.293,-7.008 12.892,-12.076 21.395,-14.272 8.504,-2.197 17.605,-1.439 25.63,2.131 8.744,3.889 14.869,11.135 15.605,18.46 0.638,6.353 -2.762,13.5 -8.66,18.206 -5.635,4.496 -12.571,6.446 -18.381,7.267 l 1.887,-18.116 c 0.441,-4.227 -2.629,-8.011 -6.857,-8.452 -4.254,-0.43 -8.013,2.629 -8.452,6.857 l -7.05,67.674 c -0.441,4.228 2.629,8.012 6.857,8.453 0.272,0.027 0.54,0.041 0.807,0.041 3.893,0 7.234,-2.942 7.646,-6.898 l 2.729,-26.2 c 5.738,8.095 12.295,16.158 20.514,22.567 10.281,8.018 22.049,12.261 33.226,12.261 4.331,0 8.576,-0.638 12.609,-1.942 4.041,-1.306 6.26,-5.643 4.953,-9.688 z"
   id="path381" />
				<path
   style="fill:#ffffff"
   d="m 385.537,159.732 c -1.308,-4.045 -5.654,-6.265 -9.689,-4.956 -11.277,3.639 -23.731,-1.651 -31.637,-7.812 -6.97,-5.436 -12.688,-12.545 -17.943,-20.034 7.029,-1.873 13.256,-4.905 18.378,-8.991 10.03,-8.003 15.539,-20.178 14.376,-31.777 -1.296,-12.923 -10.747,-24.796 -24.665,-30.986 -11.185,-4.975 -23.877,-6.029 -35.733,-2.969 -11.855,3.061 -22.448,10.127 -29.829,19.897 -2.561,3.392 -1.889,8.217 1.503,10.78 3.389,2.56 8.219,1.888 10.78,-1.503 5.292,-7.007 12.89,-12.075 21.395,-14.27 8.5,-2.195 17.604,-1.441 25.629,2.129 8.745,3.889 14.87,11.135 15.606,18.459 0.636,6.356 -2.763,13.502 -8.662,18.209 -5.636,4.496 -12.571,6.445 -18.381,7.266 l 1.887,-18.116 c 0.44,-4.228 -2.63,-8.012 -6.858,-8.451 -4.234,-0.425 -8.012,2.632 -8.451,6.858 l -7.048,67.672 c -0.441,4.227 2.629,8.011 6.856,8.452 0.272,0.027 0.54,0.041 0.807,0.041 3.893,0 7.234,-2.942 7.646,-6.898 l 2.729,-26.198 c 5.738,8.094 12.295,16.157 20.514,22.567 10.282,8.018 22.052,12.262 33.227,12.262 4.331,0 8.575,-0.639 12.606,-1.941 4.045,-1.308 6.265,-5.645 4.957,-9.69 z"
   id="path383" />
			</g>
		</g>
	</g>
	<g
   id="g465">
		<g
   id="g399">
			<path
   style="fill:#fd4242"
   d="m 187.718,219.316 c -3.065,-15.339 -14.528,-28.58 -29.204,-33.731 -14.889,-5.227 -32.112,-1.903 -43.889,8.462 -8.982,7.907 -14.182,19.38 -13.909,30.688 0.102,4.249 3.611,7.562 7.879,7.508 4.249,-0.103 7.611,-3.63 7.508,-7.879 -0.164,-6.814 3.085,-13.828 8.692,-18.764 7.549,-6.645 19.049,-8.852 28.622,-5.494 9.499,3.334 17.219,12.265 19.208,22.224 2.007,10.038 -1.556,21.101 -9.075,28.182 -7.044,6.634 -17.519,9.613 -27.134,7.912 1.118,-14.06 2.446,-28.098 4.079,-42.027 0.495,-4.221 -2.527,-8.044 -6.748,-8.539 -4.219,-0.498 -8.044,2.528 -8.539,6.748 -3.8,32.419 -6.239,65.391 -7.249,97.998 -0.132,4.248 3.205,7.799 7.454,7.93 0.082,0.003 0.162,0.004 0.242,0.004 4.141,0 7.559,-3.29 7.688,-7.458 0.403,-13.029 1.099,-26.117 1.96,-39.204 2.179,0.31 4.369,0.482 6.557,0.482 11.848,0 23.563,-4.47 32.24,-12.64 11.296,-10.636 16.641,-27.28 13.618,-42.402 z"
   id="path391" />
			<g
   id="g397">
				<path
   style="fill:#ffbc00"
   d="m 182.585,214.183 c -3.066,-15.34 -14.53,-28.58 -29.205,-33.731 -14.885,-5.227 -32.113,-1.903 -43.886,8.462 -8.983,7.906 -14.184,19.379 -13.911,30.687 0.101,4.249 3.642,7.553 7.879,7.508 4.249,-0.103 7.611,-3.63 7.508,-7.878 -0.164,-6.813 3.087,-13.827 8.694,-18.762 7.545,-6.646 19.049,-8.851 28.619,-5.494 9.5,3.334 17.219,12.265 19.21,22.225 2.006,10.038 -1.557,21.1 -9.076,28.18 -7.043,6.633 -17.517,9.608 -27.133,7.912 1.118,-14.062 2.446,-28.1 4.079,-42.027 0.495,-4.221 -2.526,-8.044 -6.747,-8.539 -4.214,-0.494 -8.044,2.525 -8.539,6.747 -3.799,32.412 -6.238,65.383 -7.247,97.999 -0.131,4.248 3.206,7.798 7.454,7.93 0.081,0.003 0.162,0.004 0.242,0.004 4.141,0 7.559,-3.29 7.688,-7.458 0.403,-13.03 1.099,-26.118 1.96,-39.204 2.178,0.309 4.368,0.481 6.556,0.48 11.85,0 23.566,-4.469 32.24,-12.64 11.292,-10.633 16.636,-27.278 13.615,-42.401 z"
   id="path393" />
				<path
   style="fill:#ffffff"
   d="m 177.451,209.048 c -3.065,-15.339 -14.528,-28.58 -29.204,-33.731 -14.889,-5.227 -32.112,-1.903 -43.889,8.462 -8.982,7.907 -14.182,19.38 -13.909,30.688 0.102,4.249 3.611,7.562 7.879,7.508 4.249,-0.103 7.611,-3.63 7.508,-7.879 -0.164,-6.814 3.085,-13.828 8.692,-18.764 7.549,-6.645 19.049,-8.852 28.622,-5.494 9.499,3.334 17.219,12.265 19.208,22.225 2.007,10.038 -1.556,21.101 -9.075,28.182 -7.044,6.634 -17.519,9.613 -27.134,7.912 1.118,-14.06 2.446,-28.098 4.079,-42.027 0.495,-4.221 -2.527,-8.044 -6.748,-8.539 -4.219,-0.498 -8.044,2.528 -8.539,6.748 -3.8,32.419 -6.239,65.391 -7.249,97.998 -0.132,4.248 3.205,7.799 7.454,7.93 0.082,0.003 0.162,0.004 0.242,0.004 4.141,0 7.559,-3.29 7.688,-7.458 0.403,-13.029 1.099,-26.117 1.96,-39.204 2.179,0.31 4.369,0.482 6.557,0.482 11.848,0 23.563,-4.47 32.24,-12.64 11.296,-10.636 16.641,-27.28 13.618,-42.403 z"
   id="path395" />
			</g>
		</g>
		<g
   id="g415">
			<g
   id="g403">
				<path
   style="fill:#fd4242"
   d="m 270.119,330.574 c -0.71,0 -1.433,-0.1 -2.149,-0.308 -23.127,-6.714 -44.196,-20.417 -59.962,-38.641 l -0.388,15.883 c -0.104,4.249 -3.595,7.579 -7.881,7.505 -4.249,-0.104 -7.609,-3.632 -7.505,-7.881 l 1.605,-65.619 c 0.088,-3.609 0.197,-8.1 2.192,-12.527 2.418,-5.365 7.313,-9.726 13.783,-12.278 7.233,-2.853 15.137,-2.985 21.7,-0.358 10.746,4.302 17.902,16.301 17.015,28.529 -0.768,10.588 -7.051,20.669 -16.807,26.965 -4.412,2.848 -9.481,4.919 -15.016,6.165 14.091,17.77 33.783,31.154 55.557,37.476 4.082,1.185 6.429,5.454 5.244,9.536 -0.979,3.367 -4.051,5.553 -7.388,5.553 z M 221.406,229.845 c -1.92,0 -3.954,0.396 -5.945,1.181 -2.682,1.058 -4.65,2.62 -5.401,4.285 -0.715,1.588 -0.777,4.125 -0.837,6.577 l -0.535,21.864 c 4.676,-0.495 9.994,-1.813 14.684,-4.839 5.633,-3.635 9.389,-9.439 9.803,-15.146 0.402,-5.543 -2.842,-11.308 -7.385,-13.127 -1.325,-0.531 -2.815,-0.795 -4.384,-0.795 z"
   id="path401" />
			</g>
			<g
   id="g413">
				<g
   id="g407">
					<path
   style="fill:#ffbc00"
   d="m 264.986,325.44 c -0.71,0 -1.433,-0.1 -2.149,-0.308 -23.129,-6.714 -44.197,-20.417 -59.963,-38.639 l -0.388,15.883 c -0.104,4.25 -3.59,7.583 -7.881,7.505 -4.249,-0.104 -7.609,-3.633 -7.505,-7.881 l 1.605,-65.619 c 0.089,-3.612 0.2,-8.104 2.193,-12.527 2.417,-5.363 7.311,-9.725 13.781,-12.279 7.23,-2.855 15.141,-2.984 21.702,-0.358 10.746,4.305 17.902,16.304 17.015,28.529 -0.769,10.589 -7.052,20.67 -16.807,26.965 -4.411,2.848 -9.481,4.92 -15.017,6.167 14.092,17.769 33.783,31.153 55.558,37.475 4.082,1.185 6.43,5.454 5.245,9.536 -0.98,3.364 -4.052,5.551 -7.389,5.551 z M 216.273,224.711 c -1.92,0 -3.956,0.396 -5.946,1.181 -2.681,1.058 -4.649,2.62 -5.4,4.286 -0.714,1.587 -0.777,4.126 -0.838,6.581 l -0.535,21.86 c 4.677,-0.495 9.996,-1.812 14.685,-4.84 5.632,-3.635 9.388,-9.439 9.803,-15.147 0.402,-5.54 -2.842,-11.306 -7.386,-13.127 -1.325,-0.53 -2.816,-0.794 -4.383,-0.794 z"
   id="path405" />
				</g>
				<g
   id="g411">
					<path
   style="fill:#ffffff"
   d="m 259.852,320.307 c -0.71,0 -1.433,-0.1 -2.149,-0.308 -23.127,-6.714 -44.196,-20.417 -59.962,-38.641 l -0.388,15.883 c -0.104,4.249 -3.595,7.579 -7.881,7.505 -4.249,-0.104 -7.609,-3.632 -7.505,-7.881 l 1.605,-65.619 c 0.088,-3.609 0.197,-8.1 2.192,-12.527 2.418,-5.365 7.313,-9.726 13.783,-12.278 7.233,-2.853 15.137,-2.985 21.7,-0.358 10.746,4.302 17.902,16.301 17.015,28.529 -0.768,10.588 -7.051,20.669 -16.807,26.965 -4.412,2.848 -9.481,4.919 -15.016,6.165 14.091,17.77 33.783,31.154 55.557,37.476 4.082,1.185 6.429,5.454 5.244,9.536 -0.979,3.366 -4.051,5.553 -7.388,5.553 z M 211.139,219.578 c -1.92,0 -3.954,0.396 -5.945,1.181 -2.682,1.058 -4.65,2.62 -5.401,4.285 -0.715,1.588 -0.777,4.125 -0.837,6.577 l -0.535,21.864 c 4.676,-0.495 9.994,-1.813 14.684,-4.839 5.633,-3.635 9.389,-9.439 9.803,-15.146 0.402,-5.543 -2.842,-11.308 -7.385,-13.127 -1.325,-0.531 -2.816,-0.795 -4.384,-0.795 z"
   id="path409" />
				</g>
			</g>
		</g>
		<g
   id="g431">
			<g
   id="g419">
				<path
   style="fill:#fd4242"
   d="m 265.648,305.115 c -0.115,0 -0.23,-0.003 -0.346,-0.007 -4.246,-0.188 -7.537,-3.781 -7.349,-8.028 l 2.812,-63.672 c 0.188,-4.246 3.815,-7.521 8.028,-7.349 4.246,0.188 7.537,3.782 7.349,8.028 l -2.812,63.672 c -0.182,4.13 -3.588,7.356 -7.682,7.356 z"
   id="path417" />
			</g>
			<g
   id="g429">
				<g
   id="g423">
					<path
   style="fill:#ffbc00"
   d="m 260.516,299.98 c -0.115,0 -0.23,-0.003 -0.346,-0.007 -4.246,-0.188 -7.536,-3.782 -7.349,-8.028 l 2.812,-63.672 c 0.188,-4.248 3.805,-7.531 8.028,-7.349 4.246,0.188 7.537,3.781 7.349,8.028 l -2.812,63.672 c -0.183,4.131 -3.589,7.356 -7.682,7.356 z"
   id="path421" />
				</g>
				<g
   id="g427">
					<path
   style="fill:#ffffff"
   d="m 255.381,294.847 c -0.115,0 -0.23,-0.003 -0.346,-0.007 -4.246,-0.188 -7.537,-3.781 -7.349,-8.028 l 2.812,-63.672 c 0.188,-4.246 3.815,-7.521 8.028,-7.349 4.246,0.188 7.537,3.782 7.349,8.028 l -2.812,63.672 c -0.183,4.131 -3.588,7.356 -7.682,7.356 z"
   id="path425" />
				</g>
			</g>
		</g>
		<g
   id="g447">
			<g
   id="g435">
				<path
   style="fill:#fd4242"
   d="m 331.518,320.187 c -8.569,0 -16.694,-2.165 -23.426,-6.314 -10.276,-6.338 -17.769,-17.665 -20.559,-31.076 -2.127,-10.23 -1.69,-21.695 1.337,-35.048 2.082,-9.19 4.892,-17.175 8.494,-24.085 -2.662,-1.628 -5.221,-3.342 -7.74,-5.029 -1.447,-0.969 -2.895,-1.939 -4.353,-2.885 -5.436,-3.526 -11.891,-7.263 -18.547,-8.243 -5.93,-0.866 -11.659,0.833 -14.595,4.346 -2.727,3.263 -7.578,3.694 -10.84,0.97 -3.261,-2.724 -3.695,-7.578 -0.969,-10.84 6.388,-7.645 17.358,-11.353 28.645,-9.704 9.582,1.412 17.853,6.129 24.681,10.557 1.522,0.987 3.032,1.999 4.543,3.01 2.637,1.766 5.196,3.48 7.764,5.027 0.352,-0.41 0.71,-0.814 1.071,-1.214 11.042,-12.178 26.853,-18.483 41.222,-16.481 8.822,1.234 18.075,6.9 18.859,16.782 0.398,5.034 -1.676,10.124 -5.691,13.965 -3.351,3.205 -7.428,4.944 -10.203,5.972 -12.788,4.74 -27.103,4.87 -39.982,0.477 -3.086,5.812 -5.516,12.696 -7.347,20.776 -2.529,11.159 -2.948,20.486 -1.279,28.514 1.933,9.287 6.878,16.981 13.569,21.108 5.584,3.442 12.885,4.737 20.551,3.651 6.902,-0.978 14.006,-3.754 21.722,-8.486 3.624,-2.22 8.362,-1.085 10.584,2.538 2.221,3.624 1.085,8.362 -2.538,10.584 -9.548,5.854 -18.578,9.323 -27.607,10.603 -2.476,0.352 -4.939,0.525 -7.366,0.525 z M 321.23,217.198 c 8.156,1.744 16.785,1.176 24.633,-1.733 1.49,-0.554 3.624,-1.432 4.911,-2.663 0.765,-0.732 0.993,-1.459 0.986,-1.627 -0.039,-0.492 -2.103,-2.258 -5.645,-2.753 -8.308,-1.165 -17.556,2.158 -24.885,8.776 z"
   id="path433" />
			</g>
			<g
   id="g445">
				<g
   id="g439">
					<path
   style="fill:#ffbc00"
   d="m 326.386,315.054 c -8.569,0 -16.696,-2.165 -23.428,-6.316 -10.275,-6.335 -17.768,-17.662 -20.557,-31.075 -2.127,-10.225 -1.69,-21.69 1.335,-35.048 2.082,-9.19 4.894,-17.175 8.495,-24.086 -2.658,-1.626 -5.214,-3.337 -7.73,-5.022 -1.45,-0.972 -2.901,-1.944 -4.364,-2.892 -5.439,-3.526 -11.894,-7.263 -18.546,-8.241 -5.935,-0.879 -11.66,0.832 -14.594,4.344 -2.724,3.263 -7.577,3.7 -10.84,0.972 -3.262,-2.724 -3.698,-7.578 -0.972,-10.84 6.387,-7.648 17.358,-11.37 28.646,-9.704 9.575,1.408 17.848,6.125 24.679,10.554 1.526,0.989 3.04,2.004 4.554,3.017 2.633,1.764 5.188,3.475 7.752,5.019 0.352,-0.41 0.709,-0.814 1.071,-1.214 11.04,-12.175 26.839,-18.49 41.224,-16.481 8.823,1.234 18.076,6.902 18.857,16.783 0.4,5.032 -1.673,10.122 -5.69,13.965 -3.356,3.208 -7.43,4.945 -10.204,5.972 -12.786,4.736 -27.103,4.866 -39.982,0.477 -3.086,5.812 -5.516,12.696 -7.348,20.775 -2.528,11.164 -2.946,20.491 -1.277,28.514 1.933,9.289 6.878,16.982 13.568,21.107 5.585,3.443 12.882,4.739 20.551,3.654 6.899,-0.979 14.006,-3.755 21.725,-8.486 3.625,-2.221 8.362,-1.085 10.583,2.539 2.222,3.624 1.085,8.362 -2.539,10.583 -9.55,5.854 -18.581,9.322 -27.607,10.603 -2.473,0.354 -4.936,0.527 -7.362,0.527 z m -10.29,-102.991 c 8.158,1.745 16.783,1.176 24.634,-1.734 1.491,-0.552 3.621,-1.429 4.911,-2.663 0.764,-0.73 0.992,-1.457 0.985,-1.625 -0.039,-0.496 -2.103,-2.261 -5.644,-2.756 -8.308,-1.162 -17.557,2.165 -24.886,8.778 z"
   id="path437" />
				</g>
				<g
   id="g443">
					<path
   style="fill:#ffffff"
   d="m 321.25,309.92 c -8.569,0 -16.694,-2.165 -23.426,-6.314 -10.276,-6.338 -17.769,-17.665 -20.559,-31.076 -2.127,-10.23 -1.69,-21.695 1.337,-35.048 2.082,-9.19 4.892,-17.175 8.494,-24.085 -2.662,-1.628 -5.221,-3.342 -7.74,-5.029 -1.447,-0.969 -2.895,-1.939 -4.353,-2.885 -5.436,-3.526 -11.891,-7.263 -18.547,-8.243 -5.93,-0.866 -11.659,0.833 -14.595,4.346 -2.727,3.263 -7.578,3.694 -10.84,0.97 -3.261,-2.724 -3.695,-7.578 -0.969,-10.84 6.388,-7.645 17.358,-11.353 28.645,-9.704 9.582,1.412 17.853,6.129 24.681,10.557 1.522,0.987 3.032,1.999 4.543,3.01 2.637,1.766 5.196,3.48 7.764,5.027 0.352,-0.41 0.71,-0.814 1.071,-1.214 11.042,-12.178 26.853,-18.483 41.222,-16.481 8.822,1.234 18.075,6.9 18.859,16.782 0.398,5.034 -1.676,10.124 -5.691,13.965 -3.351,3.205 -7.428,4.944 -10.203,5.972 -12.788,4.74 -27.103,4.87 -39.982,0.477 -3.086,5.812 -5.516,12.696 -7.347,20.776 -2.529,11.159 -2.948,20.486 -1.279,28.514 1.933,9.287 6.878,16.981 13.569,21.108 5.584,3.442 12.885,4.737 20.551,3.651 6.902,-0.978 14.006,-3.754 21.722,-8.486 3.624,-2.22 8.362,-1.085 10.584,2.538 2.221,3.624 1.085,8.362 -2.538,10.584 -9.548,5.854 -18.578,9.323 -27.607,10.603 -2.476,0.352 -4.938,0.525 -7.366,0.525 z M 310.963,206.93 c 8.156,1.744 16.785,1.176 24.633,-1.733 1.49,-0.554 3.624,-1.432 4.911,-2.663 0.766,-0.732 0.993,-1.459 0.986,-1.627 -0.039,-0.492 -2.103,-2.258 -5.645,-2.753 -8.308,-1.164 -17.556,2.159 -24.885,8.776 z"
   id="path441" />
				</g>
			</g>
		</g>
		<g
   id="g463">
			<g
   id="g451">
				<path
   style="fill:#fd4242"
   d="m 392.735,294.152 c -4.631,0 -9.004,-0.853 -12.957,-2.552 -11.787,-5.065 -19.76,-18.389 -19.389,-32.403 0.302,-11.313 5.561,-22.875 14.812,-32.556 4.391,-4.597 8.76,-7.801 13.359,-9.794 6.329,-2.747 13.041,-3.116 18.895,-1.037 7.255,2.571 12.547,8.882 13.478,16.074 0.966,7.464 -2.466,14.835 -10.201,21.91 -9.927,9.083 -20.065,14.937 -31.399,18.055 1.713,2.517 3.955,4.506 6.523,5.609 3.731,1.605 8.689,1.712 13.961,0.31 5.441,-1.448 10.877,-4.293 16.135,-7.044 3.768,-1.969 8.417,-0.517 10.386,3.249 1.971,3.765 0.517,8.416 -3.249,10.386 -6.005,3.144 -12.214,6.394 -19.312,8.282 -3.784,1.009 -7.49,1.511 -11.042,1.511 z m 6.855,-64.272 c -1.552,0 -3.243,0.367 -4.905,1.088 -2.679,1.161 -5.411,3.223 -8.355,6.305 -5.781,6.05 -9.373,12.876 -10.314,19.504 8.657,-2.545 16.528,-7.204 24.326,-14.338 3.658,-3.346 5.598,-6.472 5.326,-8.579 -0.183,-1.405 -1.626,-2.93 -3.359,-3.543 -0.825,-0.293 -1.744,-0.437 -2.719,-0.437 z"
   id="path449" />
			</g>
			<g
   id="g461">
				<g
   id="g455">
					<path
   style="fill:#ffbc00"
   d="m 387.602,289.017 c -4.632,10e-4 -9.005,-0.852 -12.958,-2.55 -11.788,-5.067 -19.761,-18.391 -19.388,-32.403 0.299,-11.31 5.559,-22.871 14.809,-32.556 4.395,-4.6 8.766,-7.803 13.36,-9.794 6.332,-2.746 13.041,-3.114 18.895,-1.038 7.256,2.577 12.547,8.886 13.478,16.076 0.967,7.46 -2.464,14.833 -10.198,21.91 -9.929,9.082 -20.07,14.937 -31.401,18.056 1.714,2.515 3.954,4.504 6.522,5.608 3.73,1.605 8.69,1.714 13.964,0.311 5.435,-1.448 10.873,-4.294 16.133,-7.047 3.77,-1.967 8.417,-0.515 10.388,3.25 1.97,3.767 0.515,8.416 -3.25,10.388 -6.006,3.142 -12.217,6.393 -19.311,8.282 -3.785,1.005 -7.491,1.507 -11.043,1.507 z m 6.858,-64.271 c -1.553,0 -3.247,0.368 -4.911,1.09 -2.674,1.158 -5.406,3.221 -8.353,6.305 -5.78,6.05 -9.371,12.879 -10.312,19.504 8.657,-2.545 16.528,-7.205 24.327,-14.339 3.656,-3.346 5.598,-6.472 5.325,-8.576 -0.183,-1.408 -1.627,-2.932 -3.361,-3.547 -0.824,-0.293 -1.742,-0.437 -2.715,-0.437 z"
   id="path453" />
				</g>
				<g
   id="g459">
					<path
   style="fill:#ffffff"
   d="m 382.468,283.885 c -4.631,0 -9.004,-0.853 -12.957,-2.552 -11.787,-5.065 -19.76,-18.389 -19.389,-32.403 0.302,-11.313 5.561,-22.875 14.812,-32.556 4.391,-4.597 8.76,-7.801 13.359,-9.794 6.329,-2.747 13.041,-3.116 18.895,-1.037 7.255,2.571 12.547,8.882 13.478,16.074 0.966,7.464 -2.467,14.835 -10.201,21.91 -9.927,9.083 -20.065,14.937 -31.399,18.055 1.713,2.517 3.955,4.506 6.523,5.609 3.731,1.605 8.689,1.712 13.961,0.31 5.441,-1.448 10.877,-4.293 16.135,-7.044 3.768,-1.969 8.417,-0.517 10.386,3.249 1.971,3.765 0.517,8.416 -3.249,10.386 -6.005,3.144 -12.214,6.394 -19.312,8.282 -3.784,1.009 -7.49,1.511 -11.042,1.511 z m 6.855,-64.272 c -1.552,0 -3.243,0.367 -4.905,1.088 -2.679,1.161 -5.411,3.223 -8.355,6.305 -5.781,6.05 -9.373,12.876 -10.314,19.504 8.657,-2.545 16.528,-7.204 24.326,-14.338 3.658,-3.346 5.598,-6.472 5.326,-8.579 -0.183,-1.405 -1.626,-2.93 -3.359,-3.543 -0.825,-0.293 -1.745,-0.437 -2.719,-0.437 z"
   id="path457" />
				</g>
			</g>
		</g>
	</g>
	<g
   id="g499">
		<polygon
   style="fill:#fd4242"
   points="374.444,127.095 382.566,118.2 384.606,106.329 393.501,114.451 405.372,116.491 397.25,125.386 395.21,137.257 386.315,129.135 "
   id="polygon467" />
		<polygon
   style="fill:#fd4242"
   points="401.837,163.767 409.759,161.29 415.092,154.93 417.569,162.852 423.929,168.185 416.007,170.663 410.674,177.022 408.197,169.1 "
   id="polygon469" />
		<polygon
   style="fill:#fd4242"
   points="416.859,198.23 419.037,194.071 418.627,189.393 422.786,191.571 427.463,191.161 425.286,195.32 425.696,199.997 421.537,197.819 "
   id="polygon471" />
		<polygon
   style="fill:#fd4242"
   points="92.997,158.023 95.617,153.993 95.648,149.187 99.678,151.806 104.485,151.838 101.865,155.868 101.834,160.674 97.804,158.055 "
   id="polygon473" />
		<polygon
   style="fill:#fd4242"
   points="105.369,106.771 111.782,102.893 115.089,96.167 118.967,102.58 125.693,105.887 119.28,109.766 115.972,116.491 112.094,110.078 "
   id="polygon475" />
		<polygon
   style="fill:#fd4242"
   points="230.407,43.147 235.052,38.751 236.592,32.543 240.988,37.189 247.196,38.729 242.551,43.125 241.011,49.333 236.615,44.687 "
   id="polygon477" />
		<polygon
   style="fill:#fd4242"
   points="279.008,34.311 282.02,33.034 283.868,30.334 285.145,33.346 287.845,35.194 284.832,36.471 282.985,39.171 281.708,36.158 "
   id="polygon479" />
		<polygon
   style="fill:#fd4242"
   points="79.301,256.994 82.96,253.508 84.161,248.599 87.646,252.258 92.555,253.459 88.896,256.944 87.695,261.854 84.21,258.194 "
   id="polygon481" />
		<polygon
   style="fill:#fd4242"
   points="73.115,301.177 79.166,299.351 83.277,294.549 85.102,300.601 89.904,304.711 83.853,306.537 79.742,311.339 77.917,305.287 "
   id="polygon483" />
		<polygon
   style="fill:#fd4242"
   points="395.21,313.106 397.856,309.803 398.302,305.595 401.605,308.241 405.814,308.688 403.167,311.99 402.721,316.199 399.418,313.553 "
   id="polygon485" />
		<polygon
   style="fill:#fd4242"
   points="428.789,244.622 433.127,243.734 436.3,240.646 437.188,244.984 440.276,248.157 435.939,249.045 432.765,252.133 431.877,247.795 "
   id="polygon487" />
		<polygon
   style="fill:#fd4242"
   points="421.278,304.711 426.16,302.783 429.231,298.526 431.159,303.408 435.416,306.479 430.534,308.407 427.463,312.664 425.535,307.782 "
   id="polygon489" />
		<polygon
   style="fill:#fd4242"
   points="146.901,308.246 152.974,303.069 155.295,295.433 160.473,301.507 168.109,303.828 162.035,309.005 159.714,316.641 154.537,310.567 "
   id="polygon491" />
		<polygon
   style="fill:#fd4242"
   points="368.7,72.308 370.855,71.5 372.234,69.657 373.043,71.813 374.885,73.192 372.73,74 371.351,75.843 370.543,73.687 "
   id="polygon493" />
		<polygon
   style="fill:#fd4242"
   points="312.145,39.171 315.702,36.855 317.447,32.985 319.764,36.542 323.633,38.287 320.076,40.603 318.331,44.473 316.015,40.916 "
   id="polygon495" />
		<polygon
   style="fill:#fd4242"
   points="179.154,42.705 179.931,40.054 179.154,37.403 181.805,38.18 184.456,37.403 183.68,40.054 184.456,42.705 181.805,41.929 "
   id="polygon497" />
	</g>
</g><text
     xml:space="preserve"
     style="font-style:normal;font-weight:normal;font-size:64px;line-height:1.25;font-family:sans-serif;fill:#000000;fill-opacity:1;stroke:none"
     x="129.82573"
     y="434.73877"
     id="text505"><tspan
       sodipodi:role="line"
       id="tspan503"
       x="129.82573"
       y="434.73877"
       style="font-style:normal;font-variant:normal;font-weight:normal;font-stretch:normal;font-size:64px;font-family:Ubuntu;-inkscape-font-specification:Ubuntu;fill:#f04744;fill-opacity:1">350 Dhs</tspan></text></g></svg>
