<svg id="Capa_1" enable-background="new 0 0 512 512" height="512" viewBox="0 0 512 512" width="512" xmlns="http://www.w3.org/2000/svg"><g><path d="m512 470.374c0 22.718-18.199 41.186-40.814 41.618-23.336.446-42.438-19.1-42.438-42.44v-311.373h62.439c11.495 0 20.813 9.318 20.813 20.813z" fill="#b3e59f"/><path d="m470.374 512h-428.748c-22.989 0-41.626-18.637-41.626-41.626v-449.561c0-11.495 9.318-20.813 20.813-20.813h387.122c11.495 0 20.813 9.318 20.813 20.813v449.561c0 22.989 18.637 41.626 41.626 41.626z" fill="#ecf4ff"/><path d="m395.447 20.813v457.886c0 13.618 6.54 25.706 16.65 33.301h58.277c-22.989 0-41.626-18.637-41.626-41.626v-449.561c0-11.495-9.318-20.813-20.813-20.813h-33.301c11.495 0 20.813 9.318 20.813 20.813z" fill="#ddeafb"/><g><path d="m374.634 44.748h-320.52c-11.495 0-20.813 9.318-20.813 20.813v108.228c0 11.495 9.318 20.813 20.813 20.813h320.52c11.495 0 20.813-9.318 20.813-20.813v-108.228c0-11.495-9.318-20.813-20.813-20.813z" fill="#ffe07d"/><path d="m374.634 44.748h-23.935c11.495 0 20.813 9.318 20.813 20.813v108.228c0 11.495-9.318 20.813-20.813 20.813h23.935c11.495 0 20.813-9.318 20.813-20.813v-108.228c0-11.495-9.318-20.813-20.813-20.813z" fill="#ffd064"/></g><g fill="#df75a5"><path d="m147.587 148.274c5.764-8.075 9.17-17.944 9.17-28.599 0-27.213-22.139-49.353-49.353-49.353-27.213 0-49.352 22.14-49.352 49.353s22.139 49.352 49.352 49.352c10.993 0 21.156-3.616 29.368-9.716l7.116 7.116c1.509 1.509 3.486 2.264 5.463 2.264s3.955-.755 5.463-2.263c3.018-3.017 3.018-7.909 0-10.927zm-40.183 5.3c-18.692 0-33.899-15.207-33.899-33.899 0-18.693 15.207-33.9 33.899-33.9 18.693 0 33.9 15.207 33.9 33.9 0 6.383-1.775 12.358-4.855 17.461l-8.267-8.268c-3.017-3.017-7.909-3.018-10.927-.001s-3.018 7.909 0 10.927l8.416 8.416c-5.277 3.389-11.544 5.364-18.267 5.364z"/><path d="m276.596 70.322c-4.268 0-7.726 3.459-7.726 7.726v83.253c0 4.268 3.459 7.726 7.726 7.726s7.726-3.459 7.726-7.726v-83.253c0-4.267-3.459-7.726-7.726-7.726z"/><path d="m362.97 153.574h-41.282l46.463-71.308c1.547-2.375 1.67-5.407.319-7.899-1.351-2.493-3.958-4.045-6.793-4.045h-52.538c-4.268 0-7.726 3.459-7.726 7.726 0 4.268 3.459 7.726 7.726 7.726h38.282l-46.463 71.308c-1.547 2.375-1.67 5.407-.319 7.899 1.351 2.493 3.958 4.045 6.793 4.045h55.538c4.268 0 7.726-3.459 7.726-7.726s-3.459-7.726-7.726-7.726z"/><path d="m242.867 70.323c-4.267 0-7.726 3.459-7.726 7.726v57.225c0 4.386-1.186 10.815-11.44 15.979-3.067 1.545-6.544 2.306-10.266 2.321-4.201-.006-7.863-1.044-11.197-3.174-6.743-4.308-9.494-8.672-9.494-15.065v-57.286c0-4.268-3.459-7.726-7.726-7.726s-7.726 3.459-7.726 7.726v57.286c0 11.754 5.439 20.941 16.627 28.088 5.804 3.708 12.363 5.595 19.495 5.605h.055c6.168 0 11.949-1.337 17.183-3.973 16.481-8.3 19.941-20.776 19.941-29.78v-57.226c.001-4.267-3.459-7.726-7.726-7.726z"/></g><g><path d="m303.87 293.905h-170.667c-4.267 0-7.726-3.459-7.726-7.726s3.459-7.726 7.726-7.726h170.667c4.268 0 7.726 3.459 7.726 7.726s-3.458 7.726-7.726 7.726z" fill="#4a80aa"/></g><g><path d="m341.333 252.28h-147.772c-4.267 0-7.726-3.459-7.726-7.726 0-4.268 3.459-7.726 7.726-7.726h147.772c4.268 0 7.726 3.459 7.726 7.726s-3.458 7.726-7.726 7.726z" fill="#4a80aa"/></g><g><path d="m157.138 252.28h-23.935c-4.267 0-7.726-3.459-7.726-7.726 0-4.268 3.459-7.726 7.726-7.726h23.935c4.267 0 7.726 3.459 7.726 7.726.001 4.267-3.459 7.726-7.726 7.726z" fill="#4a80aa"/></g><g><path d="m303.87 368.832h-170.667c-4.267 0-7.726-3.459-7.726-7.726 0-4.268 3.459-7.726 7.726-7.726h170.667c4.268 0 7.726 3.459 7.726 7.726.001 4.267-3.458 7.726-7.726 7.726z" fill="#4a80aa"/></g><g><path d="m341.333 327.206h-147.772c-4.267 0-7.726-3.459-7.726-7.726s3.459-7.726 7.726-7.726h147.772c4.268 0 7.726 3.459 7.726 7.726s-3.458 7.726-7.726 7.726z" fill="#4a80aa"/></g><g><path d="m157.138 327.206h-23.935c-4.267 0-7.726-3.459-7.726-7.726s3.459-7.726 7.726-7.726h23.935c4.267 0 7.726 3.459 7.726 7.726s-3.459 7.726-7.726 7.726z" fill="#4a80aa"/></g><g fill="#df75a5"><path d="m91.577 236.827h-58.276c-4.267 0-7.726 3.459-7.726 7.726v41.626c0 4.268 3.459 7.726 7.726 7.726h58.277c4.267 0 7.726-3.459 7.726-7.726v-41.626c0-4.267-3.459-7.726-7.727-7.726z"/><path d="m91.577 311.754h-58.276c-4.267 0-7.726 3.459-7.726 7.726v41.626c0 4.268 3.459 7.726 7.726 7.726h58.277c4.267 0 7.726-3.459 7.726-7.726v-41.626c0-4.268-3.459-7.726-7.727-7.726z"/><path d="m91.577 386.68h-58.276c-4.267 0-7.726 3.459-7.726 7.726v41.626c0 4.268 3.459 7.726 7.726 7.726h58.277c4.267 0 7.726-3.459 7.726-7.726v-41.626c0-4.267-3.459-7.726-7.727-7.726z"/></g><g><path d="m303.87 443.759h-170.667c-4.267 0-7.726-3.459-7.726-7.726s3.459-7.726 7.726-7.726h170.667c4.268 0 7.726 3.459 7.726 7.726s-3.458 7.726-7.726 7.726z" fill="#4a80aa"/></g><g><path d="m341.333 402.133h-147.772c-4.267 0-7.726-3.459-7.726-7.726s3.459-7.726 7.726-7.726h147.772c4.268 0 7.726 3.459 7.726 7.726s-3.458 7.726-7.726 7.726z" fill="#4a80aa"/></g><g><path d="m157.138 402.133h-23.935c-4.267 0-7.726-3.459-7.726-7.726s3.459-7.726 7.726-7.726h23.935c4.267 0 7.726 3.459 7.726 7.726s-3.459 7.726-7.726 7.726z" fill="#4a80aa"/></g></g></svg>