<?xml version="1.0" encoding="UTF-8"?>
<!-- Generator: Adobe Illustrator 25.2.3, SVG Export Plug-In . SVG Version: 6.00 Build 0)  -->
<svg xmlns="http://www.w3.org/2000/svg" xmlns:xlink="http://www.w3.org/1999/xlink" version="1.1" id="Capa_1" x="0px" y="0px" viewBox="0 0 512 512" style="enable-background:new 0 0 512 512;" xml:space="preserve" width="512" height="512">
<g>
	<path style="opacity:0.2;fill-rule:evenodd;clip-rule:evenodd;fill:#7678C7;" d="M215.69,446.926   c-24.598-0.491-48.054-1.09-71.221,0.864c-10.139,0.852-20.366,2.446-30.03,4.529c-4.121,0.893-8.689,1.877-13.248,3.58   c-3.683,1.385-8.447,3.755-9.189,6.378c-1.148,4.06,3.128,6.759,7.247,8.751c9.802,4.758,24.065,7.804,37.343,9.736   c19.695,2.856,41.251,3.516,63.53,4.234c-3.29,0.823-6.756,1.499-9.817,2.849c-2.675,1.184-5.694,3.105-5.779,5.824   c-0.122,3.777,6.156,6.965,11.37,8.887c31.996,11.809,88.648,11.767,122.581,4.145c6.076-1.365,11.948-2.906,15.96-5.154   c2.562-1.443,5.512-3.513,5.798-6.327c0.336-3.337-2.699-6.353-5.079-8.349c-5.141-4.303-12.859-7.018-19.09-10.637   c34.531,2.3,69.208,2.899,96.046-2.059c3.994-0.736,8.391-1.565,12.488-3.102c3.639-1.373,7.596-3.605,7.745-6.428   c0.202-3.956-6.44-7.167-11.364-9.049c-5.687-2.175-11.632-3.789-17.329-5.24c-12.585-3.205-25.606-5.634-38.374-7.93   c-13.363-2.398-27.213-4.553-40.863-6.332c-14.292-1.87-28.783-3.106-44.335-4.116c-13.641-0.88-30.577-0.909-43.731-0.249   c-6.149,0.313-12.699,0.62-19.01,1.72c-5.225,0.913-12.883,2.908-13.07,6.093C204.039,443.498,212.055,445.196,215.69,446.926z"/>
	<g>
		<g>
			<g>
				<g>
					<g>
						<path style="fill-rule:evenodd;clip-rule:evenodd;fill:#FFB4A3;" d="M185.966,324.751        c-32.64,3.676-62.846,9.506-93.646,14.805c2.186,11.126,4.003,22.663,6.26,33.707c21.945-1.466,44.148-2.742,66.032-3.266        c22.203-0.528,45.846-1.48,53.924-15.146c3.897-6.597,5.656-16.694,7.571-25.033c6.079-26.48,11.575-53.076,15.707-81.06        c0,0,10.73,7.797,15.454,10.949c14.827,9.887,29.041,19.639,43.842,30.321c1.146,0.828,3.439,2.135,3.719,2.897        c0.32,0.853,0.102,2.348,0.218,3.688c1.613,17.306,6.158,31.041,10.935,45.132c2.608,7.681,4.857,15.057,7.523,22.229        c2.639,7.1,5.265,14.091,8.358,21.288c9.637-1.963,18.897-4.274,28.673-6.119c-2.924-20.126-7.149-39.144-10.979-58.614        c-1.893-9.608-4.092-18.969-6.674-28.048c-2.599-9.142-5.065-17.766-10.006-24.153c-2.368-3.075-5.328-5.858-8.065-8.718        c-8.02-8.387-16.831-16.906-25.296-24.739c-11.588-10.73-39.679-41.349-39.679-41.349s-62.184-4.185-62.597-3.972        c-0.369,0.185-3.106,7.359-4.017,9.861c-2.701,7.394,0.373,40.879,0.467,41.781c0.151,1.336-1.946,34.986-3.142,45.372        C189.01,299.918,187.308,312.816,185.966,324.751z"/>
						<g>
							<path style="fill:#DD9083;" d="M185.966,324.751c1.342-11.936,3.044-24.833,4.581-38.19c0.124-1.087,0.271-2.583,0.413-4.12         l8.624,0.562c-0.884,10.133-1.848,20.591-2.955,29.129c-0.329,2.564-0.68,5.415-1.155,8.066         c-0.489,2.719-0.929,5.489-1.942,7.372c-0.769,1.438-2.697,3.046-4.359,3.959c-3.097,1.702-7.683,2.653-12.388,3.391         c-14.258,2.233-27.313,4.303-42.029,5.862c-14.041,1.489-27.677,3.819-41.011,6.339c-0.462-2.533-0.938-5.058-1.426-7.565         C123.12,334.258,153.326,328.427,185.966,324.751z"/>
							<path style="fill:#DD9083;" d="M294.795,273.219c2.528,2.243,13.903,12.112,15.694,15.074         c3.679,6.081,3.959,17.456,5.394,26.351c3.044,18.978,7.993,33.957,13.436,50.021c1.195,3.528,2.493,7.023,3.946,11.775         c0.382,1.252,1.777,5.032,2.119,8.087c-1.173,0.249-2.351,0.494-3.524,0.734c-3.092-7.197-5.718-14.187-8.358-21.288         c-2.666-7.171-4.914-14.547-7.523-22.229c-4.777-14.091-9.322-27.826-10.935-45.132c-0.116-1.34,0.102-2.835-0.218-3.688         c-0.28-0.762-2.573-2.069-3.719-2.897c-5.594-4.033-11.104-7.943-16.596-11.775l6.865-8.037         C292.676,271.343,293.831,272.357,294.795,273.219z"/>
						</g>
					</g>
					<g>
						<path style="fill-rule:evenodd;clip-rule:evenodd;fill:#FFFFFF;" d="M313.346,304.479c2.573-2.671,5.292,6.025,2.702,6.998        c-3.035,1.141-3.657-4.822-2.928-6.725C313.168,304.632,313.257,304.573,313.346,304.479z"/>
						<path style="fill-rule:evenodd;clip-rule:evenodd;fill:#FFFFFF;" d="M315.075,315.331c2.364-1.861,5.061,5.337,1.995,5.85        C314.746,321.573,313.444,316.611,315.075,315.331z"/>
					</g>
					<g>
						<path style="fill-rule:evenodd;clip-rule:evenodd;fill:#FFFFFF;" d="M194.226,326.703c1.142,4.128,9.428-3.242,5.527-4.831        C197.714,321.041,194.964,324.757,194.226,326.703z"/>
						<path style="fill-rule:evenodd;clip-rule:evenodd;fill:#FFFFFF;" d="M192.285,333.91c0.4-0.811,0.778-2.695-0.915-3.373        c-2.208-0.89-5.985,2.041-7.705,2.916c-2.088,1.064-6.505,2.132-6.625,4.772c-0.169,3.766,6.127,1.134,8.256,0.139        c1.129-0.529,2.186-1.158,3.124-1.652C190.019,335.863,191.516,335.475,192.285,333.91z"/>
					</g>
				</g>
				<g>
					<g>
						<path style="fill:#EFF973;" d="M193.689,241.19c-6.883-16.86-3.168-34.387-0.467-41.781c0.911-2.502,3.648-9.676,4.017-9.861        c0.413-0.213,62.001-4.052,62.001-4.052s51.809,53.001,55.861,56.947l-33.547,39.196        c-9.038-6.297-23.883-19.338-23.883-19.338l-15.857-13.543l-2.902,37.392l-53.95-4.319        C186.166,268.715,194.146,242.305,193.689,241.19z"/>
						<g style="opacity:0.18;">
							<path style="fill:#7678C7;" d="M193.689,241.19c-0.093-0.902-0.609-2.018-0.92-3.059c-0.907-3.063-1.786-6.268-2.342-9.643         c-1.653-10.02,0.093-21.685,2.795-29.079c0.911-2.502,2.422-6.854,3.906-9.264c0.169-0.277-0.258-0.412,0.111-0.596         c0.413-0.213,1.435,0.025,1.631,0.047c2.968,0.327,6.074,0.407,9.238,0.471c-2.808,8.488-5.736,20.027-6.274,30.792         c-0.298,6.012,0.417,12.199,0.782,18.474c0.351,5.995-0.267,11.998-0.755,17.523c-0.698,7.98-1.444,17.216-2.253,26.462         l-14.645-1.485C186.166,268.715,193.818,242.388,193.689,241.19z"/>
							<path style="fill:#7678C7;" d="M241.818,248.76c2.457-14.945,2.106-12.77,3.368-18.419         c2.257,2.418,32.489,27.919,46.192,39.875l-9.824,11.423C272.517,275.337,241.951,248.856,241.818,248.76z"/>
							<path style="fill-rule:evenodd;clip-rule:evenodd;fill:#7678C7;" d="M245.137,226.783         c-1.182,0.405-6.198-28.877-5.585-30.597C243.094,194.269,251.269,224.657,245.137,226.783z"/>
						</g>
					</g>
					<g>
						<path style="fill-rule:evenodd;clip-rule:evenodd;fill:#FFFFFF;" d="M202.206,218.529c-3.044,1.396-2.804-7.267,0.107-5.73        C203.833,213.598,202.997,217.111,202.206,218.529z"/>
						<path style="fill-rule:evenodd;clip-rule:evenodd;fill:#FFFFFF;" d="M198.874,223.318c0.284-0.647,1.217-1.82,2.475-1.15        c1.644,0.874,1.795,4.605,2.137,6.074c0.413,1.785,1.995,4.961,0.48,6.362c-2.169,1.996-3.763-3.093-4.235-4.864        c-0.253-0.943-0.409-1.89-0.587-2.698C198.852,225.657,198.327,224.567,198.874,223.318z"/>
					</g>
				</g>
				<g>
					<path style="fill-rule:evenodd;clip-rule:evenodd;fill:#7678C7;" d="M373.268,389.199c6.169,0.741,12.049,1.75,17.46,3.843       c0.429,0.166,0.626,1.999,1.049,2.179c0.846,0.36,1.91-0.912,2.731-0.491c0.937,0.48,1.857,1.002,2.759,1.571       c2.124,1.337,5.181,3.166,5.408,5.984c0.031,0.396-0.006,0.771-0.104,1.129c-0.83,3.039-5.803,2.144-10.284,3.416       c-10.53,2.976-20.537,4.884-31.836,6.465c-8.24,1.155-16.091,4.202-20.568,0.441c-0.489-0.411-0.941-0.872-1.352-1.388       c-2.285-2.874-3.746-6.565-5.04-10.468c-0.202-0.609,1.533-1.635,1.337-2.252c-0.149-0.469-2.23-0.528-2.379-1       c-0.074-0.236-0.149-0.472-0.223-0.709c-1.666-5.291-2.773-10.613-3.301-17.137c7.394-2.512,17.484-4.868,27.446-6.235       c-1.542-6.312,1.426-9.243,7.554-10.816c2.102-0.539,5.723-0.913,6.887,0.092C373.166,365.857,373.588,385.21,373.268,389.199z       "/>
					<g>
						<path style="fill:#C12B2B;" d="M378.107,370.039c0.342,0.11,0.702,0.285,1.053,0.516c0.786,0.529,1.244,1.404,1.364,2.615        c0.453,4.452-3.981,13.1-6.345,15.451c-0.231,0.232-0.56,0.326-0.875,0.253c-0.316-0.068-0.573-0.296-0.68-0.598        c-0.822-2.272-0.653-14.105,2.466-17.378C375.934,370.009,377.009,369.707,378.107,370.039L378.107,370.039 M374.121,385.662        c2.208-3.276,4.816-9.322,4.519-12.303c-0.062-0.621-0.235-1.03-0.524-1.221c-0.204-0.134-0.395-0.229-0.569-0.282l0,0        c-0.302-0.096-0.64-0.117-1.088,0.35C374.437,374.333,373.895,381.852,374.121,385.662"/>
						<path style="fill:#C12B2B;" d="M386.171,374.691c0.831,0.261,1.484,0.886,1.924,1.865c0.391,0.862,0.311,1.847-0.227,2.939        c-1.986,4.014-10.317,8.982-13.578,9.728c-0.32,0.077-0.649-0.017-0.88-0.247c-0.222-0.229-0.324-0.561-0.262-0.88        c0.48-2.187,5.687-10.351,9.851-12.785C384.19,374.618,385.252,374.407,386.171,374.691L386.171,374.691 M375.841,386.676        c3.603-1.614,8.998-5.336,10.331-8.021c0.275-0.558,0.351-0.994,0.204-1.316c-0.213-0.46-0.471-0.743-0.755-0.834        c-0.387-0.119-0.964,0.034-1.662,0.44C381.057,378.645,377.449,383.754,375.841,386.676"/>
						<polygon style="fill:#C12B2B;" points="388.277,387.488 374.09,387.357 374.072,389.247 388.264,389.388       "/>
					</g>
					<path style="fill:#FFFFFF;" d="M364.684,398.225c6.767,4.714,17.902,4.76,26.171-0.621c1.066-0.696,2.551-1.698,3.652-2.874       c-1.231-0.63-2.493-1.186-3.781-1.684c-0.378,0.405-0.755,0.785-1.177,1.085c-2.359,1.682-5.576,3.195-9.686,3.801       c-14.943,2.217-20.688-10.147-23.647-24.339c-0.116-0.548-0.169-1.121-0.227-1.694c0.031,0.811,0.147,1.685,0.382,2.648       c-1.102,0.151-2.208,0.321-3.31,0.493c0.222,0.957,0.453,1.873,0.64,2.645C355.895,386.786,358.703,394.058,364.684,398.225z"/>
					<path style="fill:#FFFFFF;" d="M355.264,408.121c-3.901-7.781-10.557-13.408-21.083-10.276       c-0.555,0.164-1.186,0.343-1.791,0.59c0.365,1.156,0.724,2.312,1.102,3.446c0.484-0.288,0.969-0.582,1.48-0.732       c9.482-2.78,14.84,2.957,17.822,9.834c0.8,1.848,1.373,4.301,2.355,5.516c0.902-0.081,1.817-0.183,2.746-0.297       C358.436,414.211,356.175,409.931,355.264,408.121z"/>
					<path style="fill:#C12B2B;" d="M339.895,413.721c4.474,3.766,12.095,3.331,20.337,2.176       c11.299-1.581,21.306-3.489,31.836-6.465c4.483-1.27,9.66-2.986,10.491-6.022L339.895,413.721z"/>
				</g>
				<g>
					<path style="fill-rule:evenodd;clip-rule:evenodd;fill:#7678C7;" d="M91.151,380.764c-0.874,6.155-2.006,12.008-4.214,17.373       c-0.259,0.63-1.483,0.362-1.773,0.978c-0.297,0.631,0.338,2.145,0.005,2.761c-0.501,0.928-1.044,1.838-1.634,2.73       c-1.382,2.089-3.275,5.111-6.096,5.274c-0.397,0.022-0.773-0.023-1.129-0.13c-3.017-0.9-2.026-7.586-3.202-12.095       c-2.75-10.588-4.435-20.635-5.776-31.965c-0.978-8.267-3.845-14.448,0.012-18.84c0.421-0.479,0.89-0.919,1.413-1.317       c2.927-2.223,6.645-3.599,10.576-4.807c0.437-0.134,2.151,1.907,2.412,2.286c1.31,1.899,0.687-3.204,1.582-3.466       c5.323-1.553,10.664-2.549,17.2-2.943c2.09,6.624,4.012,15.378,5.221,24.262c0.073,0.536-1.166,1.467-1.098,2.004       c0.072,0.571,1.45,0.747,1.516,1.318c6.345-1.41,9.215,1.617,10.66,7.781c0.489,2.114,0.778,5.741-0.249,6.885       C114.496,381.161,95.132,381.165,91.151,380.764z"/>
					<g>
						<path style="fill:#C12B2B;" d="M110.204,386.012c-0.115,0.343-0.302,0.692-0.538,1.041c-0.542,0.772-1.426,1.216-2.644,1.315        c-4.461,0.349-13.006-4.27-15.312-6.684c-0.222-0.236-0.311-0.566-0.235-0.879c0.08-0.314,0.311-0.568,0.618-0.671        c2.284-0.769,14.116-0.351,17.32,2.839C110.284,383.844,110.564,384.919,110.204,386.012L110.204,386.012 M94.675,381.69        c3.226,2.274,9.215,5.021,12.201,4.789c0.618-0.055,1.035-0.216,1.231-0.505c0.138-0.2,0.24-0.389,0.293-0.556l0,0        c0.098-0.306,0.133-0.641-0.324-1.096C105.992,382.248,98.487,381.55,94.675,381.69"/>
						<path style="fill:#C12B2B;" d="M105.379,393.974c-0.276,0.825-0.915,1.463-1.902,1.884c-0.871,0.373-1.857,0.277-2.933-0.286        c-3.972-2.071-8.762-10.516-9.437-13.789c-0.071-0.313,0.035-0.643,0.271-0.872c0.227-0.224,0.56-0.314,0.884-0.24        c2.177,0.517,10.215,5.907,12.565,10.122C105.494,391.996,105.685,393.062,105.379,393.974L105.379,393.974 M93.622,383.386        c1.537,3.645,5.146,9.12,7.789,10.506c0.555,0.283,0.995,0.367,1.315,0.227c0.471-0.202,0.76-0.448,0.853-0.739        c0.129-0.381-0.013-0.955-0.404-1.669C101.535,388.776,96.51,385.058,93.622,383.386"/>
						
							<rect x="84.717" y="387.739" transform="matrix(0.0313 -0.9995 0.9995 0.0313 -299.5588 468.2815)" style="fill:#C12B2B;" width="14.19" height="1.896"/>
					</g>
					<path style="fill:#FFFFFF;" d="M85.873,396.931c-1.631-2.391-3.075-5.644-3.595-9.767       c-1.842-14.619,9.986-20.189,23.797-22.916l0.091-0.06c-0.129-1.109-0.276-2.215-0.422-3.321c-0.96,0.2-1.88,0.41-2.657,0.58       c-9.144,1.997-16.471,4.651-20.768,10.543c-4.861,6.66-5.15,17.791,0.058,26.174c0.671,1.081,1.644,2.587,2.795,3.713       c0.653-1.217,1.235-2.467,1.759-3.742C86.535,397.75,86.162,397.358,85.873,396.931z"/>
					<path style="fill:#FFFFFF;" d="M72.627,362.358c7.865-3.74,13.636-10.27,10.73-20.862c-0.151-0.559-0.315-1.191-0.551-1.797       c-1.164,0.339-2.328,0.675-3.474,1.025c0.28,0.489,0.564,0.978,0.702,1.49c2.577,9.539-3.275,14.78-10.215,17.61       c-1.862,0.759-4.328,1.28-5.568,2.233c0.062,0.902,0.147,1.823,0.236,2.751C66.473,365.399,70.796,363.226,72.627,362.358z"/>
					<path style="fill:#C12B2B;" d="M67.362,346.866c-3.861,4.392-3.595,12.018-2.617,20.287c1.342,11.33,3.026,21.377,5.776,31.965       c1.173,4.51,2.777,9.724,5.794,10.616L67.362,346.866z"/>
				</g>
			</g>
			<g>
				<g>
					<g>
						<g>
							<g>
								<g>
									<path style="fill:#FFB4A3;" d="M321.922,88.083c-0.715-2.947-1.639-6.153-3.15-8.506c-2.51-3.893-4.674-5.915-6.461-11.227           c-0.698-2.091-3.75-9.967-4.954-14.007c-0.418-1.372,0.062-3.054,1.862-2.126c3.075,1.597,5.31,7.287,6.727,9.439           c3.293-0.237,5.834,0.311,8.136,1.125c2.413,1.384,6.389-5.524,14.401-3.942c0.875,7.944-0.809,25.865,1.204,39.103           c0.764,5.006-10.926,1.621-16.347,0.469C322.912,94.779,322.646,91.032,321.922,88.083"/>
									<path style="fill:#DD9083;" d="M338.477,60.801c0,0-1.089,4.004-7.02,10.969c-1.969,2.314-5.394,1.737-7.327-0.738           c-2.351-3.016-5.687-6.9-8.882-9.215c0,0,5.812-1.206,12.406-1.391C333.976,60.251,334.923,60.166,338.477,60.801z"/>
								</g>
								<g>
									<g>
										<path style="fill-rule:evenodd;clip-rule:evenodd;fill:#FFB4A3;" d="M327.187,61.869c0.964,2.028,1.426,5.359,3.564,5.241            c2.182-0.118,2.31-3.555,2.879-5.84c0.227,1.18,0.618,2.86,1.991,2.908c1.804,0.074,3.168-4.447,2.955-7.867            c-0.28-4.657-4.412-7.733-5.839-2.873c-1.582-2.468-5.812-1.876-5.994,1.179c-1-1.458-1.529-2.73-3.39-2.425            c-4.474,0.74-1.809,14.093,1.871,13.845C326.898,65.922,327.165,63.872,327.187,61.869"/>
										<path style="fill:#DD9083;" d="M323.352,52.193c1.862-0.306,2.675,0.788,3.39,2.425c0.102-3.595,4.528-4.007,5.994-1.182            c0.173-0.57,0.373-1.021,0.609-1.388c0.027-0.041,0.053-0.092,0.094-0.132c0.089-0.126,0.178-0.233,0.271-0.334            c0.067-0.058,0.116-0.112,0.178-0.16c1.169-0.981,2.693-0.193,3.684,1.494c-0.538-0.19-1.089-0.291-1.648-0.23            c-1.182,0.125-2.084,0.635-2.817,1.352c-0.187-0.204-0.386-0.395-0.626-0.549c-1.72-1.089-3.972-0.639-5.323,0.814            c-0.293,0.307-0.489,0.661-0.617,1.041c-0.702-1.782-3.075-2.379-4.39-1.636c-0.351,0.202-0.622,0.445-0.827,0.712            C321.673,53.223,322.317,52.367,323.352,52.193z"/>
									</g>
									<g>
										<path style="fill-rule:evenodd;clip-rule:evenodd;fill:#FFB4A3;" d="M317.994,51.387c1.724-0.288,3.15,1.5,3.235,3.359            c-0.111,0.845,0.489,6.16,0.582,6.826c-0.071,1.827-0.422,3.55-1.951,3.66C316.181,65.483,313.506,52.123,317.994,51.387z            "/>
										<path style="fill:#DD9083;" d="M317.994,51.384c2.835-0.554,3.208,3.005,3.235,3.361            c-1.124-2.421-3.883-2.452-5.363-0.806C316.19,52.571,316.87,51.607,317.994,51.384z"/>
									</g>
								</g>
							</g>
							<g>
								<path style="fill-rule:evenodd;clip-rule:evenodd;fill:#FFB4A3;" d="M337.042,77.905          c-5.341-0.095-10.499,0.079-15.951-0.152c1.6,18.244,3.479,36.276,5.714,54.069c-18.244-14.231-38.479-28.958-59.886-41.679          c-0.724,8.009-1.911,16.844-3.159,26.006c-0.396,2.903-1.831,6.445-1.497,8.765c0.275,1.915,5.576,5.445,7.989,7.552          c13.85,12.065,28.272,24.298,44.468,33.888c6.669,3.953,14.05,8.226,22.208,10.24c10.726,2.646,17.995,1.702,19.173-9.61          c0.413-3.946,0.04-8.418-0.449-12.449c-2.306-18.95-7.282-37.439-12.014-54.887          C341.552,91.926,339.788,84.375,337.042,77.905z"/>
								<g>
									<path style="fill:#DD9083;" d="M327.796,141.916c-1.475,0.902-9.802-11.237-8.589-15.947           c2.568,1.957,5.105,3.909,7.598,5.853c-0.009-0.023-0.009-0.047-0.013-0.071           C327.929,136.516,328.689,141.371,327.796,141.916z"/>
									<path style="fill:#DD9083;" d="M355.65,154.535c0.489,4.031,0.862,8.503,0.449,12.449           c-1.178,11.311-8.447,12.256-19.173,9.61c-8.158-2.014-15.538-6.286-22.208-10.24           c-16.196-9.59-30.618-21.823-44.468-33.888c-2.413-2.107-7.714-5.637-7.989-7.552c-0.333-2.32,1.102-5.863,1.497-8.765           c0.151-1.1,0.293-2.192,0.444-3.277c6.785,6.422,13.325,12.691,20.332,18.942c10.735,9.58,20.91,17.266,34.555,25.494           c3.71,2.234,7.709,4.843,13.174,7.405c3.617,1.699,12.619,6.095,15.64,3.447c1.786-1.554,2.093-7.153,2.137-10.974           c0.049-4.16-0.2-7.859-0.453-10.903c-1.56-18.25-11.335-58.767-10.873-63.987c1.848,5.391,3.292,11.317,4.919,17.352           C348.368,117.096,353.345,135.586,355.65,154.535z"/>
								</g>
							</g>
						</g>
						<g>
							<path style="fill-rule:evenodd;clip-rule:evenodd;fill:#FFFFFF;" d="M338.166,166.713c-1.302-1.582-4.559-2.712-7.834-3.633         c-1.395-0.395-3.674-0.991-4.163,0.223c-0.591,1.455,1.884,2.546,2.768,2.933c2.813,1.223,6.447,2.135,8.527,2.054         C337.891,168.063,338.215,167.27,338.166,166.713z"/>
							<path style="fill-rule:evenodd;clip-rule:evenodd;fill:#FFFFFF;" d="M327.534,159.434c1.799-2.767-4.816-5.633-5.616-3.015         c-0.346,1.135,2.333,3.718,4.115,3.858C326.662,160.32,327.222,159.911,327.534,159.434z"/>
							<path style="fill-rule:evenodd;clip-rule:evenodd;fill:#FFFFFF;" d="M313.995,155.642c0.737-0.909-0.067-2.406-1.36-3.503         c-1.04-0.88-3.43-2.093-4.012-0.639c-0.267,0.642,0.218,1.924,1.271,2.865C311.129,155.468,313.044,156.813,313.995,155.642z         "/>
						</g>
					</g>
					<path style="fill-rule:evenodd;clip-rule:evenodd;fill:#484FA3;" d="M277.955,147.698       c10.668-9.177,20.057-20.166,29.321-31.325c-1.022-2.326-3.346-3.789-5.239-5.535c-9.162-8.457-18.937-17.24-29.717-25.182       c-4.505-3.32-9.095-6.504-14.289-8.37c-5.55-1.999-9.22,1.664-10.722,6.928c-2.088,7.339-0.644,14.564,1.129,20.553       C253.628,122.335,265.732,136.19,277.955,147.698z"/>
				</g>
				<g>
					<g>
						<g>
							<g>
								<path style="fill-rule:evenodd;clip-rule:evenodd;fill:#FFB4A3;" d="M163.186,206.57c-0.555-3.294-1.08-6.612-1.586-9.943          c-7.136,1.362-15.076-1.925-22.154-0.339c1.195,2.979,6.438,17.592,6.691,19.063c0.293,1.762-0.186,4.153-0.186,6.294          c0,2.045,0.04,4.195,0.431,5.85c0.369,1.56,1.648,4.768,3.803,5.171c1.791,0.344,2.115-1.171,3.692-1.53          c1.271,0.824,2.208,1.707,3.501,1.693c1.786-0.032,2.164-1.536,3.493-2.47c1.4,0.368,2.266,1.703,3.679,1.723          c1.417,0.018,1.728-1.125,2.697-2.056c2.271,0.549,4.044,1.123,5.239,0c2.377-2.234,0.067-7.846,0.178-10.442          c0.431-0.729,1.204-0.917,1.684-1.336c2.955-2.667,0.045-6.293-2.706-8.412C169.273,208.008,166.118,206.932,163.186,206.57          z"/>
								<g>
									<path style="fill:#DD9083;" d="M173.072,216.226c0.333,0.522,0.724,1.438,0.893,2.295           c-0.426,0.254-0.915,0.488-1.244,0.991c-1.866-2.718-5.825-8.328-5.825-8.328           C168.78,211.022,171.61,213.909,173.072,216.226z"/>
									<path style="fill:#DD9083;" d="M166.376,224.023c1.484,0.407,3.31,4.391,2.377,6.388c-0.493-0.118-1.008-0.247-1.542-0.378           c-0.035,0.031-0.062,0.068-0.098,0.104C167.345,228.907,167.074,227.157,166.376,224.023z"/>
									<path style="fill:#DD9083;" d="M161.986,230.879c-0.364-0.21-0.746-0.383-1.164-0.497           c-0.067,0.036-0.107,0.083-0.155,0.127c0.218-2.238-0.267-4.653-0.915-6.179           C161.79,224.896,162.83,228.596,161.986,230.879z"/>
									<path style="fill:#DD9083;" d="M155.143,231.985c-0.404-0.275-0.831-0.578-1.284-0.874c0.28-2.428-0.071-5.003-0.142-6.17           C155.534,226.194,156.072,229.26,155.143,231.985z"/>
								</g>
							</g>
							<g>
								<path style="fill-rule:evenodd;clip-rule:evenodd;fill:#FFB4A3;" d="M218.949,75.241c-0.209-0.084-0.249,0.055-0.293,0.209          c-19.23,4.417-37.306,9.967-54.617,17.982c-12.001,5.554-25.318,11.502-35.964,20.398          c-4.861,4.067-9.949,8.766-10.344,16.789c-0.191,3.88,1.164,8.121,2.288,12.245c3.159,11.57,7.202,22.793,11.348,33.128          c4.408,10.998,8.407,21.2,12.81,32.084c1.426,3.52,2.706,7.133,4.977,10.131c3.839-0.894,11.139-2.764,14.818-3.889          c-1.569-27.72-8.927-52.449-13.73-77.882c4.026-2.865,8.713-4.487,13.228-6.504c13.17-5.897,26.704-12.096,39.545-18.755          c2.488-8.538,6.483-16.506,9.793-24.1c1.133-2.607,2.053-5.381,3.368-7.667C217.038,77.904,218.358,77.005,218.949,75.241z"/>
								<g>
									<path style="fill:#DD9083;" d="M143.791,208.223c-4.408-10.885-8.016-21.233-12.423-32.231           c-4.146-10.335-8.189-21.558-11.348-33.128c-1.124-4.123-2.479-8.364-2.288-12.245c0.395-8.023,5.483-12.722,10.344-16.789           c10.646-8.896,23.963-14.844,35.964-20.398c13.525-6.262,27.526-11.009,42.171-14.895           c-0.511,0.294-1.009,0.547-1.351,0.738c-1.604,0.894-3.897,1.869-5.612,2.651c-11.943,5.46-22.532,10.543-33.844,15.605           c-7.198,3.217-15.001,6.436-21.772,11.226c-6.585,4.663-14.121,10.506-15.783,19.982           c-1.622,9.199,0.573,18.133,2.524,25.948C132.305,162.448,143.791,208.223,143.791,208.223z"/>
									<path style="fill:#DD9083;" d="M143.253,122.526c1.364-0.74,9.006,6.34,12.801,10.633           c-2.008,0.934-3.968,1.966-5.785,3.256C146.146,132.543,141.987,123.205,143.253,122.526z"/>
								</g>
							</g>
						</g>
					</g>
					<g>
						<path style="fill-rule:evenodd;clip-rule:evenodd;fill:#FFFFFF;" d="M129.43,126.844c-3.608,0.964-1.715-8.515,1.195-6.28        C132.149,121.728,130.568,125.433,129.43,126.844z"/>
						<path style="fill-rule:evenodd;clip-rule:evenodd;fill:#FFFFFF;" d="M124.871,131.486c0.431-0.661,1.68-1.771,2.937-0.801        c1.64,1.27,1.102,5.403,1.208,7.081c0.12,2.041,1.262,5.831-0.671,7.086c-2.755,1.787-3.555-4.107-3.746-6.145        c-0.098-1.085-0.093-2.154-0.129-3.078C124.396,134.052,124.027,132.752,124.871,131.486z"/>
					</g>
				</g>
				<g>
					<g>
						<g>
							<path style="fill-rule:evenodd;clip-rule:evenodd;fill:#FFB4A3;" d="M255.952,67.765l-2.035,10.954         c-6.625,7.49-20.208,5.19-25.433-0.687c-3.399-3.821-2.337-6.106-1.52-10.414c1.107-5.829,2.182-11.82,3.457-17.415         c-1.991-0.492-4.914-2.518-5.763-5.656c-0.635-2.385,0.582-5.19,3.141-5.562c-1.444-12.121,1.866-22.26,13.845-26.375         c11.29-3.879,23.567,0.413,28.006,10.772c5.821,13.579,4.634,29.94-0.498,37.987         C266.789,65.079,261.906,69.052,255.952,67.765"/>
							<g>
								<path style="fill-rule:evenodd;clip-rule:evenodd;fill:#DD9083;" d="M241.836,59.84c3.528,3.552,9.429,7.283,14.116,7.925          l-1.026,5.52C251.811,72.936,243.369,69.936,241.836,59.84"/>
								<g>
									<g>
										<path style="fill-rule:evenodd;clip-rule:evenodd;fill:#FFFFFF;" d="M249.625,40.515c4.23-5.274,8.842-1.771,8.842-1.771            s-1.031,1.904-4.097,2.663C252.087,41.971,249.625,40.515,249.625,40.515"/>
										<path style="fill-rule:evenodd;clip-rule:evenodd;fill:#484FA3;" d="M258.467,38.745c0,0-2.231-1.714-5.07-0.936            c-0.062,0.231-0.227,0.689-0.222,0.944c0.044,1.134,0.92,2.065,2.11,2.369C257.641,40.256,258.467,38.745,258.467,38.745"/>
									</g>
									<g>
										<path style="fill-rule:evenodd;clip-rule:evenodd;fill:#FFFFFF;" d="M265.27,38.123c3.648-4.541,7.634-1.528,7.634-1.528            s-0.884,1.641-3.532,2.297C267.398,39.385,265.27,38.123,265.27,38.123"/>
										<path style="fill-rule:evenodd;clip-rule:evenodd;fill:#484FA3;" d="M272.903,36.595c0,0-1.924-1.479-4.372-0.807            c-0.053,0.198-0.195,0.598-0.191,0.811c0.027,0.979,0.795,1.789,1.818,2.051            C272.188,37.898,272.903,36.595,272.903,36.595"/>
									</g>
									<path style="fill:#DD9083;" d="M256.059,45.704c1.173,1.597,0.822,3.851-0.791,5.024c-1.6,1.156-3.839,0.811-5.012-0.797           c-1.169-1.599-0.818-3.851,0.786-5.014C252.651,43.751,254.89,44.096,256.059,45.704"/>
									<path style="fill:#DD9083;" d="M271.215,46.548c-1.16-1.605-0.809-3.847,0.8-5.027c0.48-0.345,0.92-0.538,1.462-0.612           c0.085,2.402,0.018,4.741-0.218,6.974C272.463,47.691,271.735,47.257,271.215,46.548z"/>
									<path style="fill-rule:evenodd;clip-rule:evenodd;fill:#F44040;" d="M247.635,36.89l1.111,1.006           c3.106-3.405,7.967-2.926,9.713-2.195l0.591-1.373C256.317,33.176,250.985,33.221,247.635,36.89z"/>
									<path style="fill-rule:evenodd;clip-rule:evenodd;fill:#F44040;" d="M263.506,34.952l1.031,0.944           c2.67-2.921,6.851-2.511,8.34-1.876l0.551-1.292C271.064,31.74,266.43,31.771,263.506,34.952z"/>
									<g>
										<path style="fill-rule:evenodd;clip-rule:evenodd;fill:#DD9083;" d="M262.742,40.797c0.804-0.273,4.07,7.042,3.981,7.876            c-0.12,1.054-3.59,2.061-3.91,1.688C261.889,49.303,261.529,41.21,262.742,40.797"/>
										<path style="fill:#DD9083;" d="M269.167,55.72c-3.768,2.621-8.296,0.825-10.899-1.936l1.177-1.099            c2.142,2.278,5.816,3.791,8.824,1.725L269.167,55.72z"/>
									</g>
								</g>
							</g>
						</g>
						<g>
							<g>
								<path style="fill-rule:evenodd;clip-rule:evenodd;fill:#F44040;" d="M234.189,10.726c-3.288-1.136-6.163-2.625-9.784-2.086          c-7.82,1.154-9.544,10.337-5.398,17.642c-3.466,3.9-5.225,8.562-3.741,17.136c0.977,5.574,6.136,18.02,12.619,16.511          c3.368-0.783,4.412-6.277,3.746-10.294c-0.262-1.576-2.586-2.403-3.235-5.265c-0.751-3.272-0.058-8.013,4.71-7.198          c4.314,0.743-0.791,13.695,5.057,11.69c5.19-1.778,6.843-15.123,5.945-21.399c3.43,1.447,15.387,1.389,21.292,0.975          c6.478-0.451,14.698-4.372,11.837-11.455c-1.271-3.144-4.292-4.516-8.98-4.222c0.422-2.179,0.618-5.027-0.035-7.181          c-2.679-8.788-14.916-6.106-18.755,0.528c-1.546-6.646-10.739-7.093-13.854-1.677          C234.536,6.303,234.589,8.285,234.189,10.726z"/>
								<g>
									<path style="fill-rule:evenodd;clip-rule:evenodd;fill:#FFFFFF;" d="M220.184,17.617c2.59-1.306,5.443-2.393,5.585-5.695           C222.09,10.93,218.078,14.852,220.184,17.617z"/>
									<path style="fill-rule:evenodd;clip-rule:evenodd;fill:#FFFFFF;" d="M221.135,20.256c-2.422,0.534-0.764,5.24,1.191,5.008           C224.05,24.098,222.503,20.973,221.135,20.256z"/>
									<path style="fill-rule:evenodd;clip-rule:evenodd;fill:#FFFFFF;" d="M266.372,24.576c0.333-0.024,0.307,0.388,0.409,0.645           c3.261,0.548,6.754-1.29,7.105-4.139C271.442,19.108,266.496,21.704,266.372,24.576z"/>
									<path style="fill-rule:evenodd;clip-rule:evenodd;fill:#FFFFFF;" d="M258.449,24.009c0.164,1.882,3.608,1.877,4.505,0.57           C262.884,22.591,259.329,22.723,258.449,24.009z"/>
								</g>
							</g>
							<g>
								<path style="fill-rule:evenodd;clip-rule:evenodd;fill:#484FA3;" d="M233.149,41.825c0.471,0.002,0.924,0.046,1.382,0.077          c-1.333-3.351-2.075-7.116-2.044-11.099c0.115-13.81,9.406-24.929,20.75-24.835c0.911,0.008,1.808,0.112,2.688,0.26          c-2.524-1.381-5.319-2.176-8.269-2.201c-11.344-0.094-20.635,11.026-20.75,24.832c-0.04,4.847,1.062,9.367,2.99,13.21          C230.959,41.914,232.047,41.815,233.149,41.825z"/>
								<g>
									<path style="fill-rule:evenodd;clip-rule:evenodd;fill:#484FA3;" d="M242.418,43.509           c1.178,5.711-2.168,11.228-7.469,12.323c-5.305,1.096-10.562-2.645-11.739-8.354c-1.182-5.712,2.164-11.229,7.465-12.325           C235.98,34.057,241.236,37.797,242.418,43.509z"/>
									<path style="fill-rule:evenodd;clip-rule:evenodd;fill:#7678C7;" d="M238.526,44.313c0.697,3.396-1.284,6.678-4.443,7.33           c-3.155,0.652-6.283-1.573-6.985-4.97c-0.697-3.397,1.284-6.68,4.443-7.331C234.696,38.69,237.824,40.916,238.526,44.313z"/>
								</g>
							</g>
						</g>
					</g>
					<g>
						<g>
							<path style="fill-rule:evenodd;clip-rule:evenodd;fill:#7678C7;" d="M254.61,76.186c-5.523,2.611-13.881,6.923-22.727,1.783         c-1.337-0.778-2.879-1.954-3.866-2.98c-1.004-1.034-1.408-2.69-2.826-3.061c-22.216,5.912-31.201,36.94-34.906,68.518         c-2.808,23.839-2.364,45.889,1.524,63.402c45.815,3.689,69.342-8.531,73.927-11.706c-2.048-13.6-4.732-37.641-1.102-55.484         c3.488-17.151,8.798-35.047,3.457-47.345C265.661,83.728,260.853,79.665,254.61,76.186z"/>
						</g>
						<path style="fill:#484FA3;" d="M251.194,84.103c-8.998,3.763-19.444,1.864-26.5-4.785c-1.964-1.853-5.021-5.174-5.834-8.384        c2.608-0.215,5.843,0.139,7.127,0.453c0.129,0.36,1.288,2.838,2.031,3.601c0.986,1.026,2.528,2.203,3.866,2.98        c8.847,5.14,17.204,0.828,22.727-1.783c0.342,0.185,2.559,0.789,3.421,1.1c0.6,0.217,1.191,0.452,1.773,0.7        C258.045,80.728,253.62,83.089,251.194,84.103z"/>
						<g>
							<g>
								<path style="fill-rule:evenodd;clip-rule:evenodd;fill:#FFFFFF;" d="M269.944,95.251c1.408,1.423,1.675,6.626-0.138,8.164          c-2.488-0.786-2.306-5.833-1.249-8.267C269.02,95.183,269.486,95.216,269.944,95.251z"/>
								<path style="fill-rule:evenodd;clip-rule:evenodd;fill:#FFFFFF;" d="M263.288,109.468c-1.573-1.35-1.231-7.167,1.409-6.433          C266.523,103.542,266.261,109.767,263.288,109.468z"/>
								<path style="fill-rule:evenodd;clip-rule:evenodd;fill:#FFFFFF;" d="M268.749,108.241c5.883-2.968,3.626,6.034,2.448,11.159          c-0.684,2.936-1.44,7.36-3.341,7.226c-2.466-0.173-1.138-5.111-0.862-7.305          C267.518,115.175,267.865,111.372,268.749,108.241z"/>
							</g>
							<g>
								<path style="fill-rule:evenodd;clip-rule:evenodd;fill:#484FA3;" d="M175.218,129.932          c-6.803-12.318-11.774-25.891-16.569-39.58c1.769-1.822,4.457-2.386,6.843-3.362c11.53-4.734,23.754-9.562,36.626-13.251          c5.381-1.544,10.788-2.927,16.311-2.867c5.901,0.061,8.056,4.773,7.629,10.23c-0.591,7.608-4.465,13.875-8.215,18.873          C206.858,114.632,190.689,123.407,175.218,129.932z"/>
								<g>
									<path style="fill-rule:evenodd;clip-rule:evenodd;fill:#FFFFFF;" d="M210.507,94.328c1.706,3.075,6.896-4.397,3.479-4.912           C212.199,89.145,210.724,92.635,210.507,94.328z"/>
									<path style="fill-rule:evenodd;clip-rule:evenodd;fill:#FFFFFF;" d="M210.346,100.45c0.16-0.726,0.102-2.299-1.382-2.515           c-1.928-0.284-4.385,2.777-5.581,3.808c-1.462,1.249-4.781,2.949-4.368,5.079c0.591,3.036,5.101-0.274,6.611-1.476           c0.795-0.64,1.52-1.344,2.168-1.917C208.911,102.443,210.031,101.846,210.346,100.45z"/>
								</g>
							</g>
							<g>
								<path style="fill-rule:evenodd;clip-rule:evenodd;fill:#FFFFFF;" d="M201.14,135.101c0.738,1.931,0.089,5.36-0.751,8.684          c-0.356,1.425-0.973,3.72-2.284,3.541c-1.573-0.209-1.288-2.928-1.178-3.898c0.333-3.079,1.364-6.726,2.484-8.508          C199.82,134.655,200.682,134.778,201.14,135.101z"/>
								<path style="fill-rule:evenodd;clip-rule:evenodd;fill:#FFFFFF;" d="M204.166,150.572c3.328-0.191,2.515,7.054-0.182,6.443          c-1.173-0.266-2.084-3.918-1.311-5.546C202.953,150.888,203.588,150.606,204.166,150.572z"/>
								<path style="fill-rule:evenodd;clip-rule:evenodd;fill:#FFFFFF;" d="M199.914,158.305c1.169-0.189,2.075,1.266,2.386,2.953          c0.254,1.356,0.111,4.063-1.453,3.844c-0.698-0.091-1.582-1.164-1.875-2.559          C198.621,160.907,198.412,158.553,199.914,158.305z"/>
							</g>
						</g>
					</g>
				</g>
			</g>
		</g>
		<g>
			<g>
				<path style="fill-rule:evenodd;clip-rule:evenodd;fill:#484FA3;" d="M410.129,230.351c-29.174-1.084-58.345-2.167-87.524-3.25      c6.554-12.361,12.01-22.237,19.515-33.48c3.346-5.01,5.869-10.034,11.579-12.329c4.661-1.872,10.895-1.899,16.76-2.092      c14.889-0.488,30.45-0.638,45.579-1.021c3.372-0.086,7.131-0.208,10.068-0.169c3.315,0.044,8.469,0.375,9.695,2.803      c2.257,4.468-2.506,10.755-4.226,13.96C424.957,207.083,416.919,219.621,410.129,230.351z"/>
				<g>
					<g>
						<path style="fill-rule:evenodd;clip-rule:evenodd;fill:#7678C7;" d="M382.03,152.427c7.429-0.438,16.809,0.032,26.855,0.272        c6.674,0.16,20.91-0.761,22.247,4.613c1.062,4.274-3.977,10.625-5.701,13.834c-4.483,8.344-8.696,17.14-13.561,25.499        c-2.333,4.008-5.687,9.288-8.953,11.121c-4.514,2.54-13.432,3.236-20.617,3.256c-5.59,0.017-11.197-0.271-17.355-0.271        c-5.336,0-11.686-0.152-13.837-3.526c-2.608-4.081,0.418-10.924,2.444-15.193c4.297-9.081,8.362-18.137,12.743-26.856        c3.301-6.564,5.101-13.328,15.192-12.75C381.666,152.439,381.857,152.439,382.03,152.427z"/>
						<path style="fill-rule:evenodd;clip-rule:evenodd;fill:#FFFFFF;" d="M382.71,157.573c5.918-0.349,13.401,0.024,21.408,0.217        c5.319,0.129,16.671-0.606,17.733,3.677c0.849,3.408-3.164,8.469-4.541,11.028c-3.573,6.652-6.932,13.662-10.815,20.327        c-1.857,3.195-4.532,7.403-7.131,8.866c-3.599,2.025-10.708,2.578-16.436,2.595c-4.457,0.013-8.927-0.215-13.841-0.215        c-4.248,0-9.309-0.122-11.028-2.812c-2.07-3.253,0.338-8.708,1.951-12.11c3.426-7.239,6.669-14.457,10.162-21.407        c2.63-5.235,4.061-10.625,12.108-10.165C382.417,157.582,382.572,157.582,382.71,157.573z"/>
					</g>
					<g>
						<path style="fill-rule:evenodd;clip-rule:evenodd;fill:#7678C7;" d="M414.084,168.55c-0.609-0.34-0.467-0.963-0.507-1.518        c-1.311,0.681-2.182,3.606-3.826,2.958c-1.018-0.4-1.449-2.333-1.888-3.341c-0.578-1.306-1.115-2.475-1.591-3.389        c-1.911,4.304-3.626,8.922-5.372,13.669c-0.511,1.389-1.217,4.156-2.435,3.957c-0.946-0.155-1.408-1.226-1.724-1.885        c-1.044-2.152-1.755-4.316-2.941-6.302c-1.142,2.024-1.88,4.18-3.013,6.64c-0.355,0.775-0.738,1.79-1.368,1.402        c-0.52-0.319,0.062-1.3,0.302-1.887c0.595-1.47,1.284-3.447,2.124-5.294c0.667-1.475,1.16-3.087,2.373-2.79        c1.288,0.318,1.991,2.555,2.413,3.397c0.631,1.254,1.093,2.264,1.791,3.568c1.457-3.794,3.497-8.871,5.163-13.024        c0.622-1.542,1.533-4.326,3.279-3.575c0.955,0.412,1.657,2.45,2.035,3.226c0.613,1.244,0.986,2.259,1.52,3.354        c0.604-0.572,1.164-1.271,1.724-1.977c-0.147-0.061-0.844-0.013-0.884-0.492c0.573-0.747,1.986-1.057,2.813-1.119        c1.102-0.084,1.107,1.212,1.022,2.211C415.026,167.096,414.95,168.478,414.084,168.55z"/>
						<g>
							<path style="fill-rule:evenodd;clip-rule:evenodd;fill:#EFF973;" d="M389.757,169.985c-2.666,0.072-5.323,0.038-7.98-0.055         c2.097-1.816,4.208-3.915,6.309-5.733C389.646,165.841,390.041,167.817,389.757,169.985z"/>
							<path style="fill-rule:evenodd;clip-rule:evenodd;fill:#F44040;" d="M383.572,179.224c-0.858-2.548-1.364-5.198-2.142-7.769         c0.675-0.173,1.311-0.081,1.959-0.086c1.933-0.01,4.017,0.031,5.985,0.021C389.002,173.877,386.105,178.125,383.572,179.224z         "/>
							<path style="fill-rule:evenodd;clip-rule:evenodd;fill:#7678C7;" d="M387.442,163.605c-2.062,1.965-4.261,3.859-6.483,5.954         c-0.329,0.309-0.835,0.766-0.906,0.907c-0.169,0.342,0.36,1.962,0.462,2.33c0.524,1.97,1.062,3.769,1.586,5.725         c0.12,0.448,0.195,0.979,0.418,1.135c0.035,0.047-0.022,0.073-0.044,0.055c-1.222,0.732-2.888,1.169-4.155,1.143         c-4.781-0.099-7.029-5.35-5.905-9.461c0.977-3.598,4.243-6.96,6.976-8.259c1.404-0.665,2.71-0.889,4.066-0.855         C384.794,162.311,386.176,162.589,387.442,163.605z"/>
						</g>
						<g>
							<path style="fill:#7678C7;" d="M367.394,187.711c-0.115,0.743-0.333,1.791-0.644,3.146c-0.338,1.471-0.56,2.519-0.671,3.145         c-0.08,0.434-0.142,0.843-0.187,1.224c-0.036,0.265-0.142,0.396-0.324,0.392c-0.56-0.015-0.835-0.164-0.84-0.453         c-0.009-0.618,0.053-1.313,0.195-2.086c0.093-0.541,0.284-1.36,0.56-2.453c0.28-1.095,0.462-1.906,0.56-2.437         c0.12-0.679,0.182-1.295,0.191-1.847c0.004-0.074,0.044-0.158,0.12-0.252c0.076-0.094,0.156-0.156,0.231-0.188         c0.404-0.139,0.666-0.057,0.795,0.245C367.501,186.447,367.505,186.97,367.394,187.711z"/>
							<path style="fill:#7678C7;" d="M372.37,190.008c-0.009,0.213-0.035,0.425-0.071,0.637c-0.213,1.186-0.751,2.239-1.626,3.152         c-0.693,0.739-1.315,1.078-1.858,1.023c-0.422-0.042-0.742-0.274-0.96-0.694c-0.302-0.604-0.373-1.382-0.2-2.337         c0.16-0.901,0.498-1.854,1.017-2.865c0.333-0.64,0.649-1.079,0.951-1.316c0.449-0.351,0.915-0.521,1.395-0.508         c0.337,0.009,0.604,0.126,0.791,0.354c0.231,0.293,0.395,0.591,0.484,0.891c0.085,0.257,0.12,0.531,0.107,0.818         C372.397,189.449,372.384,189.731,372.37,190.008z M371.264,189.828c-0.009-0.261-0.009-0.519,0-0.774         c-0.013-0.288-0.093-0.498-0.244-0.629c-0.116-0.088-0.204-0.133-0.267-0.133c-0.071-0.002-0.169,0.054-0.289,0.167         c-0.844,0.82-1.382,1.865-1.604,3.137c-0.133,0.754-0.098,1.41,0.111,1.967c0.031,0.087,0.08,0.131,0.142,0.132         c0.084,0.002,0.271-0.142,0.56-0.433c0.862-0.862,1.369-1.744,1.533-2.645C371.251,190.353,371.273,190.088,371.264,189.828z         "/>
							<path style="fill:#7678C7;" d="M380.875,194.278c0.044,0.056,0.058,0.128,0.04,0.225c-0.009,0.063-0.071,0.22-0.195,0.473         c-0.031-0.01-0.067-0.017-0.089-0.018c-0.058-0.002-0.129,0.023-0.227,0.074c-0.098,0.052-0.169,0.076-0.214,0.074         c-0.044-0.001-0.093-0.022-0.142-0.068c-0.529-0.461-1.36-1.152-2.488-2.074c-0.04,0.393-0.116,0.956-0.231,1.686         c-0.018,0.084-0.027,0.213-0.04,0.381c-0.009,0.172-0.027,0.293-0.04,0.368c-0.045,0.254-0.169,0.428-0.382,0.517         c-0.062,0.041-0.142,0.061-0.244,0.057c-0.107-0.001-0.169-0.042-0.182-0.117c-0.222-0.1-0.324-0.29-0.311-0.566         c0.027-0.764,0.129-1.662,0.311-2.691c0.071-0.369,0.178-0.924,0.329-1.66c0.147-0.738,0.254-1.29,0.324-1.661         c0.2-1.124,0.311-2.102,0.329-2.929c0.005-0.129,0.085-0.212,0.236-0.251c0.115-0.019,0.231-0.036,0.355-0.053         c0.111,0.046,0.227,0.099,0.342,0.16c0.116,0.061,0.169,0.155,0.156,0.283c-0.12,1.445-0.267,2.59-0.436,3.438         c0.444-0.382,0.964-0.891,1.564-1.524c0.511-0.532,1.008-1.069,1.511-1.608c0.12-0.05,0.244-0.074,0.369-0.071         c0.36,0.01,0.52,0.158,0.484,0.444c-0.369,0.651-1.013,1.418-1.919,2.299c-1.066,1.027-1.76,1.759-2.084,2.199         c0.498,0.404,0.991,0.811,1.497,1.217C380.053,193.368,380.515,193.832,380.875,194.278z"/>
							<path style="fill:#7678C7;" d="M388.184,195.611c-0.004,0.212-0.155,0.326-0.462,0.34c-0.2,0.005-0.391-0.1-0.56-0.317         c-0.138-0.186-0.227-0.481-0.258-0.885c-0.022-0.373,0.018-0.899,0.12-1.579c0.12-0.762,0.178-1.289,0.182-1.575         c-0.204,0.472-0.524,1.179-0.964,2.114c-0.258,0.515-0.413,0.811-0.462,0.883c-0.204,0.326-0.418,0.47-0.626,0.432         c-0.418-0.129-0.702-0.423-0.858-0.884c-0.107-0.301-0.164-0.777-0.187-1.426c-0.022-0.713-0.058-1.194-0.111-1.44         c-0.791,2.205-1.506,3.848-2.151,4.929c-0.089,0.158-0.28,0.141-0.569-0.048c-0.236-0.155-0.329-0.369-0.284-0.645         c0.022-0.094,0.178-0.432,0.471-1.01c0.129-0.252,0.667-1.468,1.613-3.649c0.329-0.757,0.769-2.093,1.324-4.006         c0.018-0.021,0.084-0.13,0.195-0.33c0.071-0.148,0.164-0.22,0.284-0.215c0.311,0.005,0.516,0.082,0.604,0.222         c-0.053,0.308-0.098,0.803-0.133,1.489c-0.035,0.686-0.084,1.203-0.147,1.552c-0.022,0.595-0.053,1.197-0.089,1.802         c-0.018,0.681,0.062,1.242,0.249,1.683c1.382-2.807,2.337-5.027,2.87-6.665c0.067-0.169,0.218-0.25,0.453-0.244         c0.338,0.01,0.506,0.141,0.506,0.396c0,0.383-0.049,0.823-0.142,1.322c-0.027,0.158-0.093,0.504-0.209,1.031         c-0.089,0.447-0.151,0.807-0.191,1.081C388.335,192.209,388.18,194.088,388.184,195.611z"/>
							<path style="fill:#7678C7;" d="M398.524,185.206c-0.018,0.201-0.08,0.359-0.182,0.473c-2.164,2.521-3.986,4.716-5.465,6.585         c-0.453,0.628-1.124,1.535-2.026,2.727c-0.302,0.462-0.778,1.156-1.431,2.087c-0.071,0.094-0.156,0.14-0.249,0.139         c-0.049-0.002-0.129-0.025-0.222-0.07c-0.098-0.045-0.164-0.074-0.196-0.085c-0.102-0.014-0.187-0.068-0.262-0.166         c-0.076-0.099-0.102-0.189-0.076-0.274c0.089-0.349,0.276-0.726,0.555-1.134c0.267-0.344,0.529-0.695,0.782-1.051         c0.929-1.392,2.204-3.058,3.835-4.998c1.329-1.594,2.657-3.185,3.986-4.769c0.084-0.104,0.191-0.154,0.329-0.151         C398.355,184.529,398.564,184.759,398.524,185.206z"/>
							<path style="fill:#7678C7;" d="M401.825,186.022c-0.035,0.212-0.2,0.396-0.493,0.547c-0.08,0.04-0.16,0.043-0.235,0.01         c-0.12-0.047-0.187-0.068-0.195-0.068c-0.053-0.002-0.115,0.028-0.182,0.09c-0.595,0.559-0.964,1.253-1.111,2.079         c-0.058,0.308-0.067,0.594-0.031,0.863c0.018,0.118,0.218,0.948,0.6,2.489c0.258,1.029,0.32,1.896,0.191,2.607         c-0.102,0.584-0.324,1.142-0.667,1.675c-0.115,0.179-0.36,0.407-0.742,0.684c-0.302,0.217-0.56,0.322-0.768,0.316         c-0.08-0.002-0.156-0.019-0.227-0.052c-0.249-0.146-0.355-0.324-0.32-0.537c0.027-0.126,0.12-0.278,0.289-0.455         c0.053-0.051,0.142-0.081,0.28-0.088c0.138-0.008,0.24-0.07,0.311-0.184c0.271-0.46,0.453-0.935,0.538-1.423         c0.124-0.689,0.009-1.695-0.347-3.019c-0.355-1.323-0.462-2.376-0.32-3.161c0.115-0.648,0.324-1.221,0.635-1.725         c0.351-0.574,0.778-0.986,1.28-1.229c0.231-0.111,0.444-0.163,0.644-0.159c0.382,0.01,0.653,0.139,0.795,0.386         C401.821,185.789,401.847,185.907,401.825,186.022z"/>
						</g>
					</g>
				</g>
			</g>
			<g>
				<g>
					<path style="fill-rule:evenodd;clip-rule:evenodd;fill:#484FA3;" d="M55.13,436.134c-0.471-2.705,1.346-4.906,2.59-6.454       c3.795-4.721,7.909-6.247,15.902-7.234c10.295-1.272,23.309-1.555,34.507-1.924c16.471-0.542,31.53-0.709,47.245-1.361       c31.849-1.323,63.681-0.88,95.539-1.342c31.854-0.462,65.729,0.047,97.401,0.6c23.936,0.42,48.663,0.298,73.514,0.869       c8.211,0.189,17.373,0.579,24.7-0.25c3.421-0.385,4.177,2.407,5.852,5.02c2.493,3.878,5.976,8.845-1.573,9.461       c-5.176,0.421-13.179,0.137-18.453,0.121c-42.304-0.13-82.365-0.04-123.758,0.967c-16.444,0.4-32.689,1.237-48.334,1.607       c-57.527,1.361-115.112,0.62-175.269-0.754c-8.291-0.189-16.627-1.274-24.394-1.101c-1.146,0.026-2.684-0.187-3.275,0.74       C57.014,435.846,56.227,437.08,55.13,436.134z"/>
					<path style="fill-rule:evenodd;clip-rule:evenodd;fill:#7678C7;" d="M447.982,426.671       c-14.632-58.181-30.819-117.167-45.628-176.061c-52.524,0.815-105.403,2.242-158.274,3.432       c-3.515,0.079-7.229,0.363-10.304-0.236c-5.718-1.113-9.389-4.828-10.908-9.475c-2.852-8.729,2.422-15.446,7.46-17.738       c4.314-1.962,14.498-1.535,21.203-1.686c45.152-1.016,89.03-2.046,133.836-2.907c7.607-0.146,15.854-0.381,23.078-0.557       c7.545-0.184,14.023,2.391,17.191,7.719c1.857,3.121,2.773,7.995,4.048,12.845c16.574,63.068,32.827,124.02,48.898,187.261       c1.231,4.841,2.168,9.885,1.293,14.682c-1.004,5.517-4.821,9.59-10.29,10.89c-3.906,0.926-8.193,0.413-13.037,0.515       c-30.383,0.64-63.574,0.314-93.624,0.572c-45.437,0.387-88.688,0.236-134.054,0.459c-26.517,0.132-52.99,0.302-80.326,0.333       c-30.196,0.034-62.441-0.03-93.629,0.571c-6.749,0.131-13.165,0.158-17.031-2.56c-4.27-2.997-6.843-8.753-5.914-14.516       c1.044-6.453,6.496-10.972,13.837-11.623c8.149-0.723,16.858-0.429,25.238-0.237c8.287,0.189,16.645-0.04,24.971-0.243       c16.6-0.402,33.484,0.169,50.204-0.207c16.778-0.379,33.702,0.084,50.471-0.203c16.885-0.288,33.64,0.076,50.204-0.208       c33.591-0.573,67.289-0.128,100.676-0.41C381.244,426.801,414.702,427.088,447.982,426.671z"/>
				</g>
				<g>
					<g>
						<path style="fill-rule:evenodd;clip-rule:evenodd;fill:#FFFFFF;" d="M39.925,448.664c-3.608-5.61,12.73-6.769,13.365-1.839        c0.738,5.787-9.953,4.408-12.979,2.343C40.12,449.039,40.054,448.86,39.925,448.664z"/>
						<path style="fill-rule:evenodd;clip-rule:evenodd;fill:#FFFFFF;" d="M59.626,450.116c-2.271-4.906,11.433-6.65,11.064-1.074        C70.415,453.273,61.195,453.505,59.626,450.116z"/>
					</g>
					<g>
						<path style="fill-rule:evenodd;clip-rule:evenodd;fill:#FFFFFF;" d="M468.776,426.626c3.892,1.787,3.59-9.3-0.142-7.336        C466.692,420.314,467.763,424.809,468.776,426.626z"/>
						<path style="fill-rule:evenodd;clip-rule:evenodd;fill:#FFFFFF;" d="M473.037,432.754c-0.364-0.829-1.56-2.331-3.168-1.473        c-2.102,1.119-2.293,5.896-2.728,7.773c-0.533,2.285-2.559,6.352-0.617,8.142c2.773,2.555,4.816-3.956,5.421-6.226        c0.329-1.205,0.524-2.418,0.746-3.453C473.073,435.748,473.739,434.351,473.037,432.754z"/>
					</g>
					<g>
						<path style="fill-rule:evenodd;clip-rule:evenodd;fill:#FFFFFF;" d="M418.185,235.23c-2.804,1.32-8.002,0.75-13.072-0.119        c-2.168-0.37-5.674-1.029-5.567-3.004c0.138-2.377,4.234-2.264,5.701-2.219c4.634,0.15,10.211,1.265,13.006,2.73        C418.696,233.2,418.621,234.498,418.185,235.23z"/>
						<path style="fill-rule:evenodd;clip-rule:evenodd;fill:#FFFFFF;" d="M404.571,240.07c0.675,4.952-10.25,4.579-9.651,0.474        c0.266-1.781,5.616-3.574,8.14-2.607C403.962,238.291,404.451,239.209,404.571,240.07z"/>
						<path style="fill-rule:evenodd;clip-rule:evenodd;fill:#FFFFFF;" d="M376.752,234.613c0.427,1.723-1.648,3.249-4.132,3.909        c-1.995,0.531-6.06,0.639-5.918-1.735c0.062-1.051,1.559-2.493,3.612-3.094C372.713,232.983,376.209,232.391,376.752,234.613z        "/>
					</g>
				</g>
			</g>
		</g>
	</g>
</g>















</svg>
